<?xml version="1.0" encoding="UTF-8"?>
<svg version="1.1" xmlns="http://www.w3.org/2000/svg" width="555" height="449">
<path d="M0 0 C4.00181944 0.51579006 5.4349721 2.2686191 7.875 5.375 C17.66522223 18.22808505 21.21801035 30.07120768 21.3125 46.125 C21.32095947 47.48395386 21.32095947 47.48395386 21.32958984 48.87036133 C21.28002803 53.51531096 20.91046668 57.86772422 20 62.42578125 C18.83378848 68.33067621 18.66828692 74.05649025 18.6875 80.0625 C18.67138672 81.07376953 18.65527344 82.08503906 18.63867188 83.12695312 C18.63430958 89.90159938 19.67735595 95.63667591 22 102 C24.57939515 99.49225471 26.9764106 97.03032923 29.1875 94.1875 C29.785625 93.465625 30.38375 92.74375 31 92 C31.66 92 32.32 92 33 92 C33.33 91.01 33.66 90.02 34 89 C36.11205447 87.17529988 38.21001529 85.48251795 40.4375 83.8125 C41.03626953 83.34908203 41.63503906 82.88566406 42.25195312 82.40820312 C46.73431747 79 46.73431747 79 49 79 C49 78.34 49 77.68 49 77 C50.4103177 75.77572421 51.88148931 74.62128187 53.375 73.5 C59.04033005 69.07220304 64.10467865 64.26247045 69 59 C69.515625 58.45085937 70.03125 57.90171875 70.5625 57.3359375 C79.76639597 46.11868929 79.84680361 30.71804037 80 17 C80.99 16.67 81.98 16.34 83 16 C83.65177969 18.18573562 84.29614674 20.3736823 84.9375 22.5625 C85.29714844 23.78066406 85.65679687 24.99882812 86.02734375 26.25390625 C90.54437646 43.65083142 87.3014309 60.09245725 78.51953125 75.6171875 C77.54857665 77.20507572 76.56808002 78.78716866 75.578125 80.36328125 C72.3739935 85.71671878 69.67660953 91.36810246 67 97 C66.17628906 98.69769531 66.17628906 98.69769531 65.3359375 100.4296875 C63.85089962 104.39847294 63.49937407 107.71414595 63.3125 111.9375 C63.27833984 112.62134766 63.24417969 113.30519531 63.20898438 114.00976562 C63.12758473 115.672644 63.06209475 117.3362889 63 119 C63.98613281 118.45472656 63.98613281 118.45472656 64.9921875 117.8984375 C76.21761928 111.96629875 88.11124627 108.3244701 100.3125 104.9375 C117.13381066 100.16467137 132.21667157 93.03901422 141.1640625 77.26953125 C145.01599346 70.33035865 145.01599346 70.33035865 148 63 C148.99 63.33 149.98 63.66 151 64 C148.77769025 85.07272539 142.50600869 100.88170602 125.79296875 114.84375 C124 116 124 116 122 116 C121.67 116.99 121.34 117.98 121 119 C119.44140625 120.38671875 119.44140625 120.38671875 117.5625 121.6875 C116.94503906 122.12449219 116.32757813 122.56148438 115.69140625 123.01171875 C114 124 114 124 112 124 C112 124.66 112 125.32 112 126 C110.68433783 127.05014305 109.32014752 128.03976399 107.9375 129 C100.34253555 134.74399041 95.94632372 142.47594076 92 151 C92.66 150.67 93.32 150.34 94 150 C97.57664055 149.75034008 101.16566389 149.81028317 104.75 149.8125 C105.82241943 149.81185547 106.89483887 149.81121094 107.99975586 149.81054688 C116.16658141 149.86332507 124.1928237 150.45416554 132.3125 151.27954102 C143.27522872 152.37481364 154.29347623 153.11822999 165 150 C165.80695313 149.76667969 166.61390625 149.53335938 167.4453125 149.29296875 C176.29904789 146.25383387 183.09750055 140.10941155 189.5 133.4375 C192 131 192 131 195 131 C194.41221144 135.31309713 192.85255664 138.34520612 190.625 142.0625 C190.01914062 143.08472656 189.41328125 144.10695312 188.7890625 145.16015625 C185.80343533 149.89935046 185.80343533 149.89935046 184 152 C183.34 152 182.68 152 182 152 C181.67 152.99 181.34 153.98 181 155 C169.83329776 166.19888294 153.13154594 169.99563702 138.48828125 174.10546875 C125.77858174 177.61655391 125.77858174 177.61655391 114.875 184.6875 C113.96492188 185.47511719 113.05484375 186.26273438 112.1171875 187.07421875 C110.53533115 188.5127194 110.53533115 188.5127194 109 190 C109.96873047 190.25910156 109.96873047 190.25910156 110.95703125 190.5234375 C120.50948552 193.37218583 128.8780889 197.9982402 137.61035156 202.72167969 C143.66592497 205.96105263 149.83186332 208.98229326 156 212 C156.85980469 212.433125 157.71960938 212.86625 158.60546875 213.3125 C171.26703105 219.40797778 183.83544012 218.99787778 197 215 C199.9294997 213.97191143 202.83228706 212.9027597 205.72265625 211.76953125 C208 211 208 211 211 211 C208.7431385 216.8443581 202.9860004 219.62957515 198 223 C197.07960938 223.62648437 197.07960938 223.62648437 196.140625 224.265625 C186.26109194 230.42810602 175.94626152 231.60279512 164.5625 231.375 C162.73235352 231.37306641 162.73235352 231.37306641 160.86523438 231.37109375 C153.73807502 231.30289127 146.94604879 230.64466779 139.92260742 229.45849609 C136.05780857 228.85218983 132.28279427 228.61734423 128.375 228.625 C127.66351807 228.62371094 126.95203613 228.62242187 126.21899414 228.62109375 C119.9695145 228.74539123 114.63837336 230.27214766 109 233 C109.495 233.45375 109.99 233.9075 110.5 234.375 C112 236 112 236 112 238 C112.56976563 238.24492187 113.13953125 238.48984375 113.7265625 238.7421875 C120.67611875 242.58713099 126.8806523 250.26365495 131 257 C131 257.66 131 258.32 131 259 C131.66 259 132.32 259 133 259 C134.31153763 260.46809505 135.54994075 262.00195784 136.75 263.5625 C137.47058594 264.47902344 138.19117188 265.39554687 138.93359375 266.33984375 C140.12065969 267.8679948 141.30321347 269.39972704 142.47265625 270.94140625 C150.44611871 280.96053838 162.0226498 287.7401971 174.69921875 289.34082031 C177.6309239 289.6365625 180.56283521 289.88987263 183.5 290.125 C184.51320313 290.21136719 185.52640625 290.29773438 186.5703125 290.38671875 C189.04644858 290.59695672 191.52292026 290.80124567 194 291 C194 291.66 194 292.32 194 293 C178.15030643 299.45728257 161.2069521 300.43595907 145.23828125 293.86328125 C139.05601327 291.12997728 133.0212221 288.06938654 127 285 C127 284.34 127 283.68 127 283 C126.45988281 282.89558594 125.91976563 282.79117187 125.36328125 282.68359375 C122.41051381 281.82948747 119.90832733 280.49102167 117.1875 279.0625 C108.4034722 274.6387366 100.74610053 273.55692003 91 273 C91.37511719 273.70382812 91.75023437 274.40765625 92.13671875 275.1328125 C97.33112122 285.1552616 101.11829891 295.30496218 103.875 306.25 C107.07003874 318.50616862 110.70785191 330.63967574 119.3984375 340.15234375 C121 342 121 342 122 345 C123.7859913 346.08410896 123.7859913 346.08410896 126 347 C127.73795334 347.93347237 129.4720019 348.8742336 131.203125 349.8203125 C132.1828125 350.35527344 133.1625 350.89023437 134.171875 351.44140625 C135.18765625 351.99699219 136.2034375 352.55257813 137.25 353.125 C138.28125 353.68832031 139.3125 354.25164062 140.375 354.83203125 C142.91701234 356.22072318 145.45866516 357.61006874 148 359 C148 359.66 148 360.32 148 361 C125.69721029 359.54380411 110.7818604 353.22616138 95.80859375 336.30078125 C92.31754797 332.25832423 89.02330376 328.05951827 85.79125977 323.80810547 C83.69777179 321.06908886 81.64595366 318.65036698 79.1796875 316.21484375 C77 314 77 314 77 312 C76.34 312 75.68 312 75 312 C75 311.34 75 310.68 75 310 C74.28457031 309.72414063 73.56914062 309.44828125 72.83203125 309.1640625 C70.04261145 308.01751478 67.37709642 306.73772885 64.6875 305.375 C63.80449219 304.92898438 62.92148437 304.48296875 62.01171875 304.0234375 C61.34785156 303.68570312 60.68398438 303.34796875 60 303 C60.01047363 303.80518066 60.02094727 304.61036133 60.03173828 305.43994141 C60.06634104 308.50031422 60.09114687 311.56058561 60.10986328 314.62109375 C60.12456776 316.5677768 60.15001202 318.51436947 60.17578125 320.4609375 C60.21461063 328.07149672 59.65404414 335.28035242 58.46289062 342.79394531 C57.82216103 347.23174123 57.65534848 351.58425259 57.6875 356.0625 C57.69313965 356.91247559 57.6987793 357.76245117 57.70458984 358.63818359 C57.90795352 369.26343215 59.73188723 378.04625899 65.6953125 386.9765625 C67 389 67 389 68 392 C68.66 392 69.32 392 70 392 C73.94561785 395.8315277 77.41664129 400.13720713 80 405 C79.34 405.33 78.68 405.66 78 406 C75.46668755 404.82530243 73.06329576 403.59845144 70.625 402.25 C69.95210938 401.8890625 69.27921875 401.528125 68.5859375 401.15625 C61.71673518 397.4241637 61.71673518 397.4241637 59 395 C59 394.34 59 393.68 59 393 C58.01 392.67 57.02 392.34 56 392 C56 391.34 56 390.68 56 390 C55.34 390 54.68 390 54 390 C48.1534914 382.7209032 44.17962874 374.72265969 41 366 C40.71511719 365.24203125 40.43023437 364.4840625 40.13671875 363.703125 C38.59906118 359.38191295 37.54120981 355.04258341 36.5625 350.5625 C34.08584442 339.62711303 29.7762708 326.49607468 20 320 C19.5875 321.11375 19.175 322.2275 18.75 323.375 C18.4715625 324.10976563 18.193125 324.84453125 17.90625 325.6015625 C17.31155909 327.17544274 16.72782682 328.7535165 16.15625 330.3359375 C13.95048837 336.2116301 11.08837666 341.41119733 7.8671875 346.7890625 C2.80209792 355.49932114 -1.44318796 364.57697662 -5 374 C-5.35449219 374.70511719 -5.70898438 375.41023438 -6.07421875 376.13671875 C-10.11836659 388.64456839 -7.25977066 403.00460641 -2.3125 414.76171875 C-1 418 -1 418 -1 421 C-1.66 421 -2.32 421 -3 421 C-3 420.34 -3 419.68 -3 419 C-3.99 418.67 -4.98 418.34 -6 418 C-7.59332366 416.02815193 -9.02739716 414.09613046 -10.4375 412 C-10.83855957 411.40622559 -11.23961914 410.81245117 -11.65283203 410.20068359 C-20.76653224 396.45378231 -23.89325793 380.58935808 -21.0625 364.3125 C-19.97020785 357.79017999 -19.56499122 351.29033496 -19.25 344.6875 C-19.19336182 343.66116455 -19.13672363 342.6348291 -19.07836914 341.57739258 C-18.73249265 333.28377325 -20.2567399 326.83788601 -23 319 C-24.0828125 320.0828125 -24.0828125 320.0828125 -25.1875 321.1875 C-26.115625 322.115625 -27.04375 323.04375 -28 324 C-29.1446875 325.15628906 -29.1446875 325.15628906 -30.3125 326.3359375 C-50.14956012 346 -50.14956012 346 -55 346 C-55 346.66 -55 347.32 -55 348 C-56.43359375 349.375 -56.43359375 349.375 -58.4375 351 C-73.07467111 363.53502419 -78.71189572 376.29011164 -80.40234375 395.140625 C-80.64514768 398.42679328 -80.85084901 401.70839192 -81 405 C-81.66 405 -82.32 405 -83 405 C-83.6536261 403.14856606 -84.29751218 401.29369242 -84.9375 399.4375 C-85.47697266 397.88869141 -85.47697266 397.88869141 -86.02734375 396.30859375 C-91.67059033 377.11248994 -86.67006007 359.51284332 -77.625 342.5 C-75.25261167 338.1747942 -72.77612248 333.924351 -70.25 329.6875 C-64.76847227 320.26957316 -63.18797874 311.73373732 -62 301 C-62.74378906 301.42410156 -63.48757812 301.84820312 -64.25390625 302.28515625 C-74.55659425 307.81965807 -85.23725805 311.02164511 -96.44384766 314.25390625 C-101.34892275 315.68560725 -106.1837794 317.29614837 -111 319 C-111.84046875 319.27972656 -112.6809375 319.55945313 -113.546875 319.84765625 C-127.68090019 324.91746963 -136.49021299 334.53112435 -143.375 347.4375 C-143.82488281 348.26443359 -144.27476562 349.09136719 -144.73828125 349.94335938 C-145.83310344 351.95829808 -146.9201028 353.9770353 -148 356 C-148.99 356 -149.98 356 -151 356 C-148.99632042 335.46817752 -143.59740754 320.73227642 -127.3515625 306.71484375 C-125 305 -125 305 -123 305 C-123 304.34 -123 303.68 -123 303 C-121.35 302.34 -119.7 301.68 -118 301 C-118 300.34 -118 299.68 -118 299 C-116.3203125 297.4921875 -116.3203125 297.4921875 -114.125 295.875 C-113.40570313 295.33617187 -112.68640625 294.79734375 -111.9453125 294.2421875 C-110 293 -110 293 -108 293 C-107.67 292.01 -107.34 291.02 -107 290 C-106.34 290 -105.68 290 -105 290 C-105 289.34 -105 288.68 -105 288 C-103.625 286.375 -103.625 286.375 -102 285 C-101.34 285 -100.68 285 -100 285 C-99.72414063 284.44828125 -99.44828125 283.8965625 -99.1640625 283.328125 C-97.109375 279.21875 -95.0546875 275.109375 -93 271 C-93.96824707 270.97494385 -94.93649414 270.9498877 -95.93408203 270.92407227 C-99.54601985 270.82949294 -103.15778785 270.72939817 -106.76953125 270.62768555 C-108.32906099 270.58452692 -109.88863219 270.54283944 -111.44824219 270.50268555 C-113.69739242 270.44451787 -115.94633759 270.38096077 -118.1953125 270.31640625 C-118.8861795 270.29969376 -119.57704651 270.28298126 -120.28884888 270.26576233 C-124.2825273 270.14511558 -128.06721886 269.66624309 -132 269 C-136.58144571 268.76130769 -141.16291596 268.76907311 -145.75 268.75 C-146.97460938 268.729375 -148.19921875 268.70875 -149.4609375 268.6875 C-159.42283038 268.64483665 -167.53609008 269.83413903 -175.875 275.5625 C-178.85803234 277.5845263 -181.73205294 279.47242475 -185 281 C-185 281.66 -185 282.32 -185 283 C-190.47619048 288 -190.47619048 288 -193 288 C-193.33 288.99 -193.66 289.98 -194 291 C-194.66 290.67 -195.32 290.34 -196 290 C-192.78459869 277.78147501 -183.26417077 266.10596438 -173 259 C-161.76116872 253.01881941 -149.76819672 249.14059008 -137.4375 246.125 C-128.02578142 243.68786024 -118.86093344 240.06227009 -112 233 C-111.34 233 -110.68 233 -110 233 C-110 232.01 -110 231.02 -110 230 C-110.76441406 229.8040625 -111.52882813 229.608125 -112.31640625 229.40625 C-120.85739917 227.021761 -128.20157943 223.48072545 -135.90332031 219.17236328 C-161.7050461 204.1370573 -161.7050461 204.1370573 -190.72070312 203.70898438 C-196.26024365 205.37571563 -201.69612999 207.29287352 -207.09912109 209.35742188 C-209 210 -209 210 -211 210 C-211 209.01 -211 208.02 -211 207 C-209.07994246 205.2243982 -207.21462288 203.67723337 -205.125 202.125 C-204.53001709 201.67954834 -203.93503418 201.23409668 -203.32202148 200.77514648 C-185.45451199 187.66782751 -165.84057886 187.6396964 -144.70263672 190.27905273 C-139.41723368 190.91383346 -134.19840826 191.22176223 -128.875 191.25 C-128.20073975 191.25902344 -127.52647949 191.26804688 -126.83178711 191.27734375 C-120.58200477 191.24006407 -114.46335379 190.18695638 -109 187 C-109.80824219 186.27554688 -110.61648437 185.55109375 -111.44921875 184.8046875 C-112.52883737 183.82833675 -113.60825365 182.85176223 -114.6875 181.875 C-115.21794922 181.400625 -115.74839844 180.92625 -116.29492188 180.4375 C-119.87676155 177.18527747 -123.06047127 173.85029181 -126 170 C-126 169.34 -126 168.68 -126 168 C-126.66 168 -127.32 168 -128 168 C-129.49952916 166.15283932 -130.92521087 164.24537846 -132.3125 162.3125 C-135.29126606 158.17054855 -138.37068265 154.57942983 -142 151 C-142.350625 150.278125 -142.70125 149.55625 -143.0625 148.8125 C-144.27828157 146.46198896 -145.66979756 146.12751731 -148 145 C-148.33 144.01 -148.66 143.02 -149 142 C-150.65984798 141.31653318 -152.32836805 140.65411685 -154 140 C-155.5159375 138.7934375 -155.5159375 138.7934375 -157.0625 137.5625 C-161.8021929 134.03116837 -167.30458177 133.14839496 -173 132 C-173.79921875 131.81824219 -174.5984375 131.63648438 -175.421875 131.44921875 C-179.85039899 130.67758199 -184.33601684 130.60169895 -188.8203125 130.37890625 C-192 130 -192 130 -195 128 C-186.01304824 124.02472908 -178.0038808 122.50634902 -168.1875 122.5 C-167.23415771 122.49419922 -166.28081543 122.48839844 -165.29858398 122.48242188 C-155.81073503 122.64681326 -147.73211186 125.27231483 -139.375 129.625 C-138.70476807 129.96619873 -138.03453613 130.30739746 -137.34399414 130.65893555 C-131.63854048 133.59432606 -126.04060002 136.72116491 -120.49169922 139.94189453 C-110.98392253 145.41922764 -102.97482518 147.1952044 -92 147 C-92.4125 146.23042969 -92.825 145.46085938 -93.25 144.66796875 C-97.52147107 136.17269928 -100.44974554 127.64338146 -103.0625 118.5 C-109.06200942 97.56197037 -114.97467455 79.78125053 -134.91015625 68.64453125 C-139.23284996 66.34383081 -143.58552143 64.11934037 -148 62 C-148 61.34 -148 60.68 -148 60 C-132.60153768 58.66744076 -118.17348246 64.14790111 -106.46875 73.84765625 C-96.11631108 82.87327942 -96.11631108 82.87327942 -94 89 C-93.34 89 -92.68 89 -92 89 C-90.41179934 90.88450676 -88.94717539 92.76186767 -87.5 94.75 C-87.09652344 95.28882812 -86.69304687 95.82765625 -86.27734375 96.3828125 C-84.23378671 99.14802169 -82.40400952 101.85623955 -81 105 C-80.34 105 -79.68 105 -79 105 C-77.375 106.375 -77.375 106.375 -76 108 C-76 108.66 -76 109.32 -76 110 C-75.46890625 110.26554687 -74.9378125 110.53109375 -74.390625 110.8046875 C-69.59375 113.203125 -64.796875 115.6015625 -60 118 C-60.16113281 117.33484375 -60.32226562 116.6696875 -60.48828125 115.984375 C-61.10410159 112.39287316 -61.19082426 108.88216461 -61.1875 105.25 C-61.18814453 104.49614014 -61.18878906 103.74228027 -61.18945312 102.96557617 C-61.14397848 98.00315575 -60.70428314 93.23249215 -60 88.3125 C-58.89192841 80.14567539 -58.67115033 71.98478936 -58.5625 63.75 C-58.52833984 62.49485596 -58.49417969 61.23971191 -58.45898438 59.9465332 C-58.40666418 48.89752512 -60.86289333 38.58099103 -68.375 30.1875 C-69.14457031 29.30578125 -69.91414062 28.4240625 -70.70703125 27.515625 C-71.46371094 26.68546875 -72.22039062 25.8553125 -73 25 C-74.35702657 23.48171799 -75.71149798 21.96114528 -77.0625 20.4375 C-77.91521484 19.50744141 -77.91521484 19.50744141 -78.78515625 18.55859375 C-80 17 -80 17 -80 15 C-74.50767431 16.5491175 -69.89740919 19.15518143 -65 22 C-63.4840625 22.8353125 -63.4840625 22.8353125 -61.9375 23.6875 C-61.298125 24.120625 -60.65875 24.55375 -60 25 C-60 25.66 -60 26.32 -60 27 C-59.360625 27.268125 -58.72125 27.53625 -58.0625 27.8125 C-56 29 -56 29 -55 32 C-54.34 32 -53.68 32 -53 32 C-51.66796875 33.80078125 -51.66796875 33.80078125 -50.1875 36.3125 C-49.70667969 37.11300781 -49.22585937 37.91351563 -48.73046875 38.73828125 C-43.95535727 47.73877355 -40.67832518 56.75814539 -37.9375 66.5625 C-34.04458969 81.78926174 -34.04458969 81.78926174 -26 95 C-26 95.66 -26 96.32 -26 97 C-25.34 97 -24.68 97 -24 97 C-22.375 98.375 -22.375 98.375 -21 100 C-21 100.66 -21 101.32 -21 102 C-20.34 102 -19.68 102 -19 102 C-18.938125 100.9275 -18.87625 99.855 -18.8125 98.75 C-17.07557314 85.63163133 -8.51017106 73.34524037 -1.89575195 62.12719727 C6.05674061 48.56206212 9.71507045 33.09909155 5.77734375 17.578125 C3.9962327 11.67092252 2.01299988 5.83155309 0 0 Z " fill="#EB9B27" transform="translate(274,7)"/>
<path d="M0 0 C3.74879638 1.24959879 5.20967538 3.20967538 8 6 C17.97640885 13.99047266 28.02218433 16.12611974 40.5 17.125 C41.51320313 17.21136719 42.52640625 17.29773438 43.5703125 17.38671875 C46.04644858 17.59695672 48.52292026 17.80124567 51 18 C51 18.66 51 19.32 51 20 C35.15030643 26.45728257 18.2069521 27.43595907 2.23828125 20.86328125 C-3.94398673 18.12997728 -9.9787779 15.06938654 -16 12 C-16 11.34 -16 10.68 -16 10 C-16.61875 9.87625 -17.2375 9.7525 -17.875 9.625 C-20 9 -20 9 -22 7 C-20.68 7 -19.36 7 -18 7 C-18 7.66 -18 8.32 -18 9 C-16.35 9 -14.7 9 -13 9 C-12.67 9.99 -12.34 10.98 -12 12 C-10.35 11.34 -8.7 10.68 -7 10 C-6.38125 10.825 -5.7625 11.65 -5.125 12.5 C-4.42375 13.325 -3.7225 14.15 -3 15 C-2.34 15 -1.68 15 -1 15 C-1.061875 14.071875 -1.12375 13.14375 -1.1875 12.1875 C-1 9 -1 9 0.5 7.125 C0.995 6.75375 1.49 6.3825 2 6 C1.34 4.02 0.68 2.04 0 0 Z " fill="#EA9C2A" transform="translate(417,280)"/>
<path d="M0 0 C15.39846232 -1.33255924 29.82651754 4.14790111 41.53125 13.84765625 C51.88368892 22.87327942 51.88368892 22.87327942 54 29 C54.66 29 55.32 29 56 29 C55.67 29.66 55.34 30.32 55 31 C54.34 30.67 53.68 30.34 53 30 C53 29.34 53 28.68 53 28 C51.68 27.67 50.36 27.34 49 27 C49 26.34 49 25.68 49 25 C48.34 25 47.68 25 47 25 C46.505 24.01 46.505 24.01 46 23 C43.47266765 22.34444881 43.47266765 22.34444881 41 22 C40.566875 23.11375 40.566875 23.11375 40.125 24.25 C39.17697356 26.56739797 38.15154089 28.77917115 37 31 C37.66 31 38.32 31 39 31 C40.60355101 34.50776784 41.22036864 37.14354879 41 41 C41.66 41 42.32 41 43 41 C43 43.31 43 45.62 43 48 C41.21402545 45.32103817 40.12043312 42.85385597 38.99633789 39.859375 C31.44751227 19.78843793 18.98553586 11.11473735 0 2 C0 1.34 0 0.68 0 0 Z " fill="#EB9A26" transform="translate(126,67)"/>
<path d="M0 0 C0.95334229 -0.00580078 1.90668457 -0.01160156 2.88891602 -0.01757812 C12.01804036 0.14059781 19.73046221 2.45852674 27.8125 6.6875 C29.34777344 7.48220703 29.34777344 7.48220703 30.9140625 8.29296875 C32.03941406 8.89044922 32.03941406 8.89044922 33.1875 9.5 C32.5790625 9.64824219 31.970625 9.79648438 31.34375 9.94921875 C26.43777548 11.20237528 23.70334771 12.86291616 20.1875 16.5 C19.5275 16.5 18.8675 16.5 18.1875 16.5 C18.1875 17.16 18.1875 17.82 18.1875 18.5 C19.5075 19.16 20.8275 19.82 22.1875 20.5 C22.1875 21.16 22.1875 21.82 22.1875 22.5 C23.5075 22.83 24.8275 23.16 26.1875 23.5 C24.375 24.1875 24.375 24.1875 22.1875 24.5 C20.4375 23.1875 20.4375 23.1875 19.1875 21.5 C19.1875 20.84 19.1875 20.18 19.1875 19.5 C18.506875 19.273125 17.82625 19.04625 17.125 18.8125 C14.1875 17.5 14.1875 17.5 11.125 15.0625 C6.3853071 11.53116837 0.88291823 10.64839496 -4.8125 9.5 C-5.61171875 9.31824219 -6.4109375 9.13648438 -7.234375 8.94921875 C-11.66289899 8.17758199 -16.14851684 8.10169895 -20.6328125 7.87890625 C-23.8125 7.5 -23.8125 7.5 -26.8125 5.5 C-17.82554824 1.52472908 -9.8163808 0.00634902 0 0 Z " fill="#EB9B29" transform="translate(105.8125,129.5)"/>
<path d="M0 0 C3.27235512 3.15115678 6.2025724 6.42550918 9 10 C9 10.66 9 11.32 9 12 C9.55268555 12.27183105 10.10537109 12.54366211 10.67480469 12.82373047 C13.21267135 14.10758616 15.70738257 15.45636024 18.203125 16.8203125 C19.1828125 17.35527344 20.1625 17.89023437 21.171875 18.44140625 C22.18765625 18.99699219 23.2034375 19.55257813 24.25 20.125 C25.796875 20.96998047 25.796875 20.96998047 27.375 21.83203125 C29.91701234 23.22072318 32.45866516 24.61006874 35 26 C35 26.66 35 27.32 35 28 C17.80673428 26.87741564 4.18656724 23.75704999 -9 12 C-7 11 -7 11 -3 11 C-0.00667261 11.9977758 0.94766315 12.7522025 3 15 C3 13.68 3 12.36 3 11 C2.34 10.67 1.68 10.34 1 10 C1.020625 9.0925 1.04125 8.185 1.0625 7.25 C1.0110245 4.57327412 0.7784983 2.53011948 0 0 Z " fill="#EAAA4A" transform="translate(387,340)"/>
<path d="M0 0 C1.32 0.66 2.64 1.32 4 2 C3.52691406 2.38929688 3.05382812 2.77859375 2.56640625 3.1796875 C-12.96710618 16.32109958 -19.60450268 29.09255115 -21.40234375 49.140625 C-21.64514768 52.42679328 -21.85084901 55.70839192 -22 59 C-22.66 59 -23.32 59 -24 59 C-24.6536261 57.14856606 -25.29751218 55.29369242 -25.9375 53.4375 C-26.29714844 52.40496094 -26.65679687 51.37242187 -27.02734375 50.30859375 C-30.35635774 38.98459837 -29.99341817 26.35895289 -27 15 C-26.67 15 -26.34 15 -26 15 C-25.89530662 20.75813575 -26.25983299 26.29014022 -27 32 C-24.54775306 31.89386164 -24.54775306 31.89386164 -22 31 C-20.62533375 28.52363988 -20.62533375 28.52363988 -20 26 C-19.34 26 -18.68 26 -18 26 C-18 24.68 -18 23.36 -18 22 C-17.34 22 -16.68 22 -16 22 C-16 20.68 -16 19.36 -16 18 C-15.34 18 -14.68 18 -14 18 C-14 17.01 -14 16.02 -14 15 C-13.34 15 -12.68 15 -12 15 C-12 14.01 -12 13.02 -12 12 C-11.34 12 -10.68 12 -10 12 C-10 10.68 -10 9.36 -10 8 C-9.01 8 -8.02 8 -7 8 C-7 7.01 -7 6.02 -7 5 C-5.68 5 -4.36 5 -3 5 C-2.67 3.68 -2.34 2.36 -2 1 C-1.34 1.33 -0.68 1.66 0 2 C0 1.34 0 0.68 0 0 Z " fill="#E99B27" transform="translate(215,353)"/>
<path d="M0 0 C5.49232569 1.5491175 10.10259081 4.15518143 15 7 C16.010625 7.556875 17.02125 8.11375 18.0625 8.6875 C18.701875 9.120625 19.34125 9.55375 20 10 C20 10.66 20 11.32 20 12 C20.639375 12.268125 21.27875 12.53625 21.9375 12.8125 C24 14 24 14 25 17 C25.66 17 26.32 17 27 17 C28.2890625 18.6796875 28.2890625 18.6796875 29.625 20.875 C30.07101563 21.59429687 30.51703125 22.31359375 30.9765625 23.0546875 C32 25 32 25 32 27 C31.34 27 30.68 27 30 27 C29.67 26.34 29.34 25.68 29 25 C28.360625 24.773125 27.72125 24.54625 27.0625 24.3125 C25 23 25 23 23.75 19.375 C23.5025 18.26125 23.255 17.1475 23 16 C22.01 16 21.02 16 20 16 C19.9071875 17.7634375 19.9071875 17.7634375 19.8125 19.5625 C19.77769531 20.22378906 19.74289063 20.88507812 19.70703125 21.56640625 C19.89610331 24.21303072 19.89610331 24.21303072 21.5 27.18554688 C23.17203339 31.00506411 23.34510884 34.27625625 23.29296875 38.46484375 C23.28872391 39.14301651 23.28447906 39.82118927 23.28010559 40.51991272 C23.26347941 42.65953402 23.22586174 44.79816947 23.1875 46.9375 C23.17243222 48.39907482 23.1587475 49.86066458 23.14648438 51.32226562 C23.11362977 54.88182397 23.06196241 58.44081556 23 62 C22.67 62 22.34 62 22 62 C21.99589111 61.21987549 21.99178223 60.43975098 21.98754883 59.63598633 C21.95421783 56.02743951 21.88353068 52.42049414 21.8125 48.8125 C21.80669922 47.58595703 21.80089844 46.35941406 21.79492188 45.09570312 C21.53250941 34.04522267 19.15599879 23.60209973 11.625 15.1875 C10.85542969 14.30578125 10.08585938 13.4240625 9.29296875 12.515625 C8.53628906 11.68546875 7.77960938 10.8553125 7 10 C5.64297343 8.48171799 4.28850202 6.96114528 2.9375 5.4375 C2.36902344 4.81746094 1.80054688 4.19742187 1.21484375 3.55859375 C0 2 0 2 0 0 Z " fill="#E7A646" transform="translate(194,22)"/>
<path d="M0 0 C0.66 0 1.32 0 2 0 C2.65177969 2.18573562 3.29614674 4.3736823 3.9375 6.5625 C4.29714844 7.78066406 4.65679687 8.99882812 5.02734375 10.25390625 C7.95221917 21.51878788 7.17651509 31.68989478 5 43 C4.67 43 4.34 43 4 43 C4 39.7 4 36.4 4 33 C2.515 33.495 2.515 33.495 1 34 C0.01 32.68 -0.98 31.36 -2 30 C-2.04125 31.093125 -2.0825 32.18625 -2.125 33.3125 C-3 37 -3 37 -6.0625 38.9375 C-7.031875 39.288125 -8.00125 39.63875 -9 40 C-8.72285156 39.4740625 -8.44570313 38.948125 -8.16015625 38.40625 C-2.8066925 27.30276962 -1.37820854 17.14206355 -1.140625 4.9453125 C-1 1 -1 1 0 0 Z " fill="#E9A74B" transform="translate(355,23)"/>
<path d="M0 0 C0.66 0.33 1.32 0.66 2 1 C0.71034824 2.37562854 -0.62689293 3.70766393 -2 5 C-2.66 5 -3.32 5 -4 5 C-4.33 6.65 -4.66 8.3 -5 10 C-5.99 10.33 -6.98 10.66 -8 11 C-8 11.66 -8 12.32 -8 13 C-8.66 13 -9.32 13 -10 13 C-9.67 13.99 -9.34 14.98 -9 16 C-8.34 16.33 -7.68 16.66 -7 17 C-7 16.34 -7 15.68 -7 15 C-6.01 15 -5.02 15 -4 15 C-4 14.34 -4 13.68 -4 13 C-2.35 13 -0.7 13 1 13 C-1.98624489 15.25873743 -5.00788868 17.45958926 -8.0625 19.625 C-8.91972656 20.23601562 -9.77695313 20.84703125 -10.66015625 21.4765625 C-13 23 -13 23 -16 24 C-16 24.66 -16 25.32 -16 26 C-21.47619048 31 -21.47619048 31 -24 31 C-24.495 32.485 -24.495 32.485 -25 34 C-25.66 33.67 -26.32 33.34 -27 33 C-23.57418694 19.98191038 -13.14702349 7.58984769 -1.75 0.625 C-0.88375 0.315625 -0.88375 0.315625 0 0 Z " fill="#EA9E31" transform="translate(105,264)"/>
<path d="M0 0 C1.98 0.66 3.96 1.32 6 2 C6 2.66 6 3.32 6 4 C7.65 3.01 9.3 2.02 11 1 C11.33 2.65 11.66 4.3 12 6 C11.34 6 10.68 6 10 6 C10.34786708 7.97536745 10.34786708 7.97536745 11 10 C11.66 10.33 12.32 10.66 13 11 C12.01 12.485 12.01 12.485 11 14 C12.65 14 14.3 14 16 14 C16 11.03 16 8.06 16 5 C17 6.33333333 18 7.66666667 19 9 C19.556875 9.70125 20.11375 10.4025 20.6875 11.125 C22 13 22 13 22 15 C22.66 15 23.32 15 24 15 C27.94561785 18.8315277 31.41664129 23.13720713 34 28 C33.01 28.495 33.01 28.495 32 29 C29.46668755 27.82530243 27.06329576 26.59845144 24.625 25.25 C23.95210938 24.8890625 23.27921875 24.528125 22.5859375 24.15625 C15.71673518 20.4241637 15.71673518 20.4241637 13 18 C13 17.34 13 16.68 13 16 C12.01 15.67 11.02 15.34 10 15 C10 14.34 10 13.68 10 13 C9.34 13 8.68 13 8 13 C6.55265194 11.07310891 5.189953 9.08206043 3.875 7.0625 C3.15054687 5.96035156 2.42609375 4.85820312 1.6796875 3.72265625 C0 1 0 1 0 0 Z " fill="#E8A748" transform="translate(320,384)"/>
<path d="M0 0 C1.98 0.99 3.96 1.98 6 3 C5.67 3.99 5.34 4.98 5 6 C4.2575 6.144375 3.515 6.28875 2.75 6.4375 C0.48735322 6.90031411 -1.7594607 7.43986518 -4 8 C-4.33 11.3 -4.66 14.6 -5 18 C-4.01 18 -3.02 18 -2 18 C-1.67 17.01 -1.34 16.02 -1 15 C0.32 15.33 1.64 15.66 3 16 C2.17242187 16.94939453 2.17242187 16.94939453 1.328125 17.91796875 C-1.63362003 21.83880235 -3.90893115 26.00125838 -6.25 30.3125 C-6.70890625 31.14845703 -7.1678125 31.98441406 -7.640625 32.84570312 C-8.76471849 34.89483188 -9.88435756 36.94626165 -11 39 C-11.99 39 -12.98 39 -14 39 C-12.57319812 24.37947722 -10.98745948 10.98745948 0 0 Z " fill="#EA9C2D" transform="translate(137,324)"/>
<path d="M0 0 C0.99 0 1.98 0 3 0 C2.41221144 4.31309713 0.85255664 7.34520612 -1.375 11.0625 C-1.98085938 12.08472656 -2.58671875 13.10695312 -3.2109375 14.16015625 C-6.19656467 18.89935046 -6.19656467 18.89935046 -8 21 C-8.66 21 -9.32 21 -10 21 C-10.33 21.99 -10.66 22.98 -11 24 C-12.7421875 25.5703125 -12.7421875 25.5703125 -14.875 27.125 C-15.92300781 27.90230469 -15.92300781 27.90230469 -16.9921875 28.6953125 C-19 30 -19 30 -22 31 C-22 29.35 -22 27.7 -22 26 C-20.68 25.34 -19.36 24.68 -18 24 C-17.67 24.33 -17.34 24.66 -17 25 C-16.34 23.02 -15.68 21.04 -15 19 C-15.99 18.34 -16.98 17.68 -18 17 C-18.33 17.66 -18.66 18.32 -19 19 C-19.66 18.34 -20.32 17.68 -21 17 C-20.46632813 16.67128906 -19.93265625 16.34257812 -19.3828125 16.00390625 C-12.22315888 11.43312392 -6.00032094 6.00032094 0 0 Z " fill="#E69D2C" transform="translate(466,138)"/>
<path d="M0 0 C-2.96673254 7.68263686 -13.02747266 12.28131875 -20 16 C-20.33 15.34 -20.66 14.68 -21 14 C-23.02463255 13.34786708 -23.02463255 13.34786708 -25 13 C-25 12.01 -25 11.02 -25 10 C-26.19238281 9.93941406 -27.38476562 9.87882813 -28.61328125 9.81640625 C-30.17969925 9.73198851 -31.74610488 9.64734113 -33.3125 9.5625 C-34.49102539 9.50352539 -34.49102539 9.50352539 -35.69335938 9.44335938 C-36.45068359 9.40146484 -37.20800781 9.35957031 -37.98828125 9.31640625 C-39.03302612 9.26141968 -39.03302612 9.26141968 -40.09887695 9.20532227 C-42 9 -42 9 -45 8 C-45 7.34 -45 6.68 -45 6 C-44.38253906 6.0721875 -43.76507813 6.144375 -43.12890625 6.21875 C-29.22946849 7.74197606 -18.37493172 5.90470891 -5.27734375 0.76953125 C-3 0 -3 0 0 0 Z " fill="#E89F31" transform="translate(485,218)"/>
<path d="M0 0 C6.45880476 -0.55893503 12.26032684 0.31788732 18.5 1.875 C19.20640625 2.04870117 19.9128125 2.22240234 20.640625 2.40136719 C25.73725788 3.73725788 25.73725788 3.73725788 28 6 C26.02 6.99 26.02 6.99 24 8 C24.33 9.98 24.66 11.96 25 14 C26.65 14 28.3 14 30 14 C29.67 15.65 29.34 17.3 29 19 C29.66 19 30.32 19 31 19 C30.67 19.99 30.34 20.98 30 22 C29.34257812 21.25556641 29.34257812 21.25556641 28.671875 20.49609375 C20.64963757 11.9031687 10.48083551 7.03172855 0 2 C0 1.34 0 0.68 0 0 Z " fill="#E79F35" transform="translate(126,67)"/>
<path d="M0 0 C-2 2 -2 2 -4.625 2.125 C-5.40875 2.08375 -6.1925 2.0425 -7 2 C-8.04214691 6.61507774 -8.04214691 6.61507774 -7 11 C-10.45670732 12.17152378 -13.91562122 13.33639077 -17.375 14.5 C-18.35984375 14.83386719 -19.3446875 15.16773438 -20.359375 15.51171875 C-21.30039063 15.82753906 -22.24140625 16.14335937 -23.2109375 16.46875 C-24.51490479 16.90864258 -24.51490479 16.90864258 -25.84521484 17.35742188 C-28 18 -28 18 -30 18 C-30 17.01 -30 16.02 -30 15 C-28.08017614 13.2246143 -26.21350948 11.67819488 -24.125 10.125 C-23.53799316 9.68099854 -22.95098633 9.23699707 -22.34619141 8.77954102 C-7.37556869 -2.28896959 -7.37556869 -2.28896959 0 0 Z " fill="#E8A645" transform="translate(93,199)"/>
<path d="M0 0 C7.11710244 4.19726554 14.34096499 9.98046355 17 18 C17.66 18 18.32 18 19 18 C18.67 18.66 18.34 19.32 18 20 C17.34 19.67 16.68 19.34 16 19 C16 18.34 16 17.68 16 17 C14.68 16.67 13.36 16.34 12 16 C12 15.34 12 14.68 12 14 C11.34 14 10.68 14 10 14 C9.67 13.34 9.34 12.68 9 12 C6.47266765 11.34444881 6.47266765 11.34444881 4 11 C3.566875 12.11375 3.566875 12.11375 3.125 13.25 C2.17697356 15.56739797 1.15154089 17.77917115 0 20 C0.66 20 1.32 20 2 20 C3.60355101 23.50776784 4.22036864 26.14354879 4 30 C4.66 30 5.32 30 6 30 C6 32.31 6 34.62 6 37 C3.83336466 33.75004699 2.5183638 30.43055113 1.125 26.8125 C-0.99951161 21.38645301 -3.2654208 16.15363004 -6 11 C-3.03 11.495 -3.03 11.495 0 12 C-0.33 11.01 -0.66 10.02 -1 9 C0.32 8.67 1.64 8.34 3 8 C2.505 7.05125 2.01 6.1025 1.5 5.125 C0 2 0 2 0 0 Z " fill="#E9A745" transform="translate(163,78)"/>
<path d="M0 0 C0.54527344 0.25394531 1.09054687 0.50789063 1.65234375 0.76953125 C7.00666511 3.21329843 12.38260998 5.2470556 18 7 C18 7.66 18 8.32 18 9 C20.64 9 23.28 9 26 9 C24.671875 10.984375 24.671875 10.984375 22 13 C18.40931746 13.51556954 14.86816829 13.37526282 11.25 13.25 C9.77466797 13.22292969 9.77466797 13.22292969 8.26953125 13.1953125 C5.84536217 13.14824126 3.42317941 13.08250742 1 13 C0.67 11.35 0.34 9.7 0 8 C1.98 7.01 3.96 6.02 6 5 C3.69 4.34 1.38 3.68 -1 3 C-0.67 2.01 -0.34 1.02 0 0 Z " fill="#EB9D2D" transform="translate(429,290)"/>
<path d="M0 0 C0.33 0 0.66 0 1 0 C0.99887207 0.57741943 0.99774414 1.15483887 0.99658203 1.74975586 C1.05230404 13.98073612 2.04120944 24.40687092 6.72265625 35.76171875 C8 39 8 39 8 42 C7.34 42 6.68 42 6 42 C6 41.34 6 40.68 6 40 C5.01 39.67 4.02 39.34 3 39 C1.40680222 37.02830772 -0.02681785 35.09551061 -1.4375 33 C-1.83565918 32.41420166 -2.23381836 31.82840332 -2.64404297 31.22485352 C-10.45942209 19.49214812 -10.45942209 19.49214812 -9.5859375 14.75390625 C-9.39257812 14.17511719 -9.19921875 13.59632813 -9 13 C-8.73445313 13.63808594 -8.46890625 14.27617187 -8.1953125 14.93359375 C-7.84210938 15.75988281 -7.48890625 16.58617187 -7.125 17.4375 C-6.77695312 18.26121094 -6.42890625 19.08492188 -6.0703125 19.93359375 C-5.1755063 22.15746715 -5.1755063 22.15746715 -3 23 C-3.33 23.66 -3.66 24.32 -4 25 C-3.01 24.67 -2.02 24.34 -1 24 C-0.67 16.08 -0.34 8.16 0 0 Z " fill="#E4AA53" transform="translate(265,386)"/>
<path d="M0 0 C14.78132118 -0.18451025 14.78132118 -0.18451025 21 1 C21 1.66 21 2.32 21 3 C6.69825291 8.8266377 -10.32569173 10.94609517 -25 5 C-25.99 4.34 -26.98 3.68 -28 3 C-27.06027344 3.01740234 -27.06027344 3.01740234 -26.1015625 3.03515625 C-24.87566406 3.04869141 -24.87566406 3.04869141 -23.625 3.0625 C-22.40683594 3.07990234 -22.40683594 3.07990234 -21.1640625 3.09765625 C-18.95062858 3.14466334 -18.95062858 3.14466334 -17 2 C-17 3.32 -17 4.64 -17 6 C-10.07 6 -3.14 6 4 6 C4.33 5.01 4.66 4.02 5 3 C2.525 2.505 2.525 2.505 0 2 C0 1.34 0 0.68 0 0 Z " fill="#E3A84F" transform="translate(447,297)"/>
<path d="M0 0 C3.27235512 3.15115678 6.2025724 6.42550918 9 10 C9 10.66 9 11.32 9 12 C9.66 12 10.32 12 11 12 C10.814375 12.7425 10.62875 13.485 10.4375 14.25 C10.00796892 16.94990963 10.14877026 18.44631077 11 21 C9.68 21 8.36 21 7 21 C7 20.34 7 19.68 7 19 C6.43152344 18.99742187 5.86304688 18.99484375 5.27734375 18.9921875 C-1.24386457 18.66558274 -4.53889116 16.69061926 -9 12 C-7 11 -7 11 -3 11 C-0.00667261 11.9977758 0.94766315 12.7522025 3 15 C3 13.68 3 12.36 3 11 C2.34 10.67 1.68 10.34 1 10 C1.020625 9.0925 1.04125 8.185 1.0625 7.25 C1.0110245 4.57327412 0.7784983 2.53011948 0 0 Z " fill="#E89C2B" transform="translate(387,340)"/>
<path d="M0 0 C0.33 0 0.66 0 1 0 C2.16649454 5.5711779 2.18365444 11.02299298 2.1875 16.6875 C2.19974609 17.61755859 2.21199219 18.54761719 2.22460938 19.50585938 C2.23456152 24.29284156 1.94920328 28.75461029 1.0078125 33.453125 C-0.16914133 39.34944835 -0.33169228 45.06299188 -0.3125 51.0625 C-0.32861328 52.07376953 -0.34472656 53.08503906 -0.36132812 54.12695312 C-0.36569042 60.90159938 0.67735595 66.63667591 3 73 C4.98 72.01 4.98 72.01 7 71 C6.67 72.32 6.34 73.64 6 75 C4.02 75 2.04 75 0 75 C0.33 73.02 0.66 71.04 1 69 C0.01 69 -0.98 69 -2 69 C-2.02465098 64.03377651 -2.04283649 59.06758834 -2.05493164 54.10131836 C-2.0599719 52.41055684 -2.06680405 50.71979971 -2.07543945 49.02905273 C-2.08751857 46.60399293 -2.09323123 44.17899056 -2.09765625 41.75390625 C-2.10281754 40.99348526 -2.10797882 40.23306427 -2.11329651 39.44960022 C-2.11349238 37.6326743 -2.06197277 35.81586873 -2 34 C-1.505 33.505 -1.505 33.505 -1 33 C-0.84019563 30.55391002 -0.74070553 28.13268942 -0.68359375 25.68359375 C-0.6524221 24.58701195 -0.6524221 24.58701195 -0.62062073 23.46827698 C-0.55504976 21.12478344 -0.49620568 18.78117461 -0.4375 16.4375 C-0.39432192 14.85220145 -0.35070787 13.26691471 -0.30664062 11.68164062 C-0.1993608 7.78787963 -0.0981151 3.89400228 0 0 Z " fill="#E7B96A" transform="translate(293,36)"/>
<path d="M0 0 C2.8875368 0.34805131 3.92884877 0.9274591 6 3.0390625 C16 15.96875 16 15.96875 16 20 C15.34 20 14.68 20 14 20 C14 19.01 14 18.02 14 17 C12.35 17.66 10.7 18.32 9 19 C9 20.65 9 22.3 9 24 C8.34 24 7.68 24 7 24 C6.773125 22.824375 6.54625 21.64875 6.3125 20.4375 C4.77989164 13.45686044 2.328741 6.74623825 0 0 Z " fill="#E9B05B" transform="translate(274,7)"/>
<path d="M0 0 C0.99 0.33 1.98 0.66 3 1 C2.34 1 1.68 1 1 1 C1.01047363 1.80518066 1.02094727 2.61036133 1.03173828 3.43994141 C1.06634104 6.50031422 1.09114687 9.56058561 1.10986328 12.62109375 C1.12456776 14.5677768 1.15001202 16.51436947 1.17578125 18.4609375 C1.21461063 26.07149672 0.65404414 33.28035242 -0.53710938 40.79394531 C-1.17789849 45.23215347 -1.34237823 49.58398247 -1.3125 54.0625 C-1.31048584 54.9073999 -1.30847168 55.7522998 -1.30639648 56.62280273 C-1.17598822 64.82602925 0.40454543 72.21363628 3 80 C2.01 80 1.02 80 0 80 C-0.13277344 79.39671875 -0.26554687 78.7934375 -0.40234375 78.171875 C-0.57894531 77.37265625 -0.75554687 76.5734375 -0.9375 75.75 C-1.19853516 74.56664062 -1.19853516 74.56664062 -1.46484375 73.359375 C-1.7836462 71.95385177 -2.12806563 70.55316943 -2.52514648 69.16772461 C-3.06413646 66.70721458 -3.12957043 64.47588858 -3.1328125 61.95703125 C-3.13474609 60.97283203 -3.13667969 59.98863281 -3.13867188 58.97460938 C-3.13416016 57.93111328 -3.12964844 56.88761719 -3.125 55.8125 C-3.12306641 54.74708984 -3.12113281 53.68167969 -3.11914062 52.58398438 C-3.07109547 43.69563083 -2.67421369 34.86109423 -2 26 C-1.34 26 -0.68 26 0 26 C-0.0870005 24.37399059 -0.1951781 22.74910322 -0.3125 21.125 C-0.37050781 20.22007812 -0.42851562 19.31515625 -0.48828125 18.3828125 C-0.7882039 15.63778399 -0.7882039 15.63778399 -4 14 C-3.51917969 13.44828125 -3.03835938 12.8965625 -2.54296875 12.328125 C-0.76045839 9.63856507 -0.52248591 7.94178582 -0.3125 4.75 C-0.21388672 3.41195313 -0.21388672 3.41195313 -0.11328125 2.046875 C-0.05720703 1.03367187 -0.05720703 1.03367187 0 0 Z " fill="#E59E3D" transform="translate(333,309)"/>
<path d="M0 0 C1.32 0.66 2.64 1.32 4 2 C3.52691406 2.38929688 3.05382812 2.77859375 2.56640625 3.1796875 C-11.94247681 15.45425914 -18.18122618 26.52901059 -21 45 C-21.33 45 -21.66 45 -22 45 C-22.05451714 42.95863605 -22.09302485 40.91684144 -22.125 38.875 C-22.14820313 37.73804688 -22.17140625 36.60109375 -22.1953125 35.4296875 C-21.99672109 31.94242233 -21.2524801 29.2446138 -20 26 C-19.34 26 -18.68 26 -18 26 C-18 24.68 -18 23.36 -18 22 C-17.34 22 -16.68 22 -16 22 C-16 20.68 -16 19.36 -16 18 C-15.34 18 -14.68 18 -14 18 C-14 17.01 -14 16.02 -14 15 C-13.34 15 -12.68 15 -12 15 C-12 14.01 -12 13.02 -12 12 C-11.34 12 -10.68 12 -10 12 C-10 10.68 -10 9.36 -10 8 C-9.01 8 -8.02 8 -7 8 C-7 7.01 -7 6.02 -7 5 C-5.68 5 -4.36 5 -3 5 C-2.67 3.68 -2.34 2.36 -2 1 C-1.34 1.33 -0.68 1.66 0 2 C0 1.34 0 0.68 0 0 Z " fill="#E8B259" transform="translate(215,353)"/>
<path d="M0 0 C-1.98 0.99 -1.98 0.99 -4 2 C-4 2.99 -4 3.98 -4 5 C-2.02 5.99 -0.04 6.98 2 8 C2 8.33 2 8.66 2 9 C1.44054687 8.93941406 0.88109375 8.87882813 0.3046875 8.81640625 C-6.12316474 8.14468536 -12.54153813 7.71190747 -18.99609375 7.37890625 C-22 7 -22 7 -25 5 C-9.04255319 -0.95744681 -9.04255319 -0.95744681 0 0 Z " fill="#E7A74F" transform="translate(104,130)"/>
<path d="M0 0 C1.65 0 3.3 0 5 0 C2.01375511 2.25873743 -1.00788868 4.45958926 -4.0625 6.625 C-4.91972656 7.23601562 -5.77695313 7.84703125 -6.66015625 8.4765625 C-9 10 -9 10 -12 11 C-12 11.66 -12 12.32 -12 13 C-17.47619048 18 -17.47619048 18 -20 18 C-20.33 18.99 -20.66 19.98 -21 21 C-21.66 20.67 -22.32 20.34 -23 20 C-21.53967505 14.68972746 -19.01679014 10.53669968 -16 6 C-15.67 6.66 -15.34 7.32 -15 8 C-14.38125 7.814375 -13.7625 7.62875 -13.125 7.4375 C-11 7 -11 7 -9 8 C-9.33 7.01 -9.66 6.02 -10 5 C-6.535 4.505 -6.535 4.505 -3 4 C-3 3.34 -3 2.68 -3 2 C-2.01 2 -1.02 2 0 2 C0 1.34 0 0.68 0 0 Z " fill="#E9AD56" transform="translate(101,277)"/>
<path d="M0 0 C0.66 0 1.32 0 2 0 C4.56510863 9.40539831 5.16378951 18.2636237 5 28 C4.34 28 3.68 28 3 28 C2.67 27.01 2.34 26.02 2 25 C1.34 24.67 0.68 24.34 0 24 C0 16.08 0 8.16 0 0 Z " fill="#EA9B27" transform="translate(355,25)"/>
<path d="M0 0 C0.33 1.32 0.66 2.64 1 4 C0.34 4 -0.32 4 -1 4 C-1.0825 4.639375 -1.165 5.27875 -1.25 5.9375 C-2.11118533 9.45400676 -3.51911463 12.46800028 -5.03125 15.74609375 C-6.12691271 18.15110929 -6.12691271 18.15110929 -6.9375 21.4375 C-8.37762909 26.26616813 -10.65611945 30.55378385 -13 35 C-13.66 35 -14.32 35 -15 35 C-14.12740307 22.20191168 -6.30176667 10.81871926 0 0 Z " fill="#E8A94B" transform="translate(270,73)"/>
<path d="M0 0 C0.99 0 1.98 0 3 0 C3 1.32 3 2.64 3 4 C3.66 4 4.32 4 5 4 C5 6.31 5 8.62 5 11 C4.01 11.33 3.02 11.66 2 12 C2 11.01 2 10.02 2 9 C0.31970703 9.16048828 0.31970703 9.16048828 -1.39453125 9.32421875 C-2.86711817 9.4461527 -4.33977867 9.56720032 -5.8125 9.6875 C-6.55048828 9.76033203 -7.28847656 9.83316406 -8.04882812 9.90820312 C-13.51248041 10.32848407 -13.51248041 10.32848407 -16.01171875 8.64453125 C-17 7 -17 7 -17 5 C-18.65 5 -20.3 5 -22 5 C-22.33 4.01 -22.66 3.02 -23 2 C-22.41992188 2.20496094 -21.83984375 2.40992188 -21.2421875 2.62109375 C-13.30827216 5.35737808 -6.36982693 6.14887044 2 6 C1.34 4.02 0.68 2.04 0 0 Z M-16 10 C-14 11 -14 11 -14 11 Z " fill="#E4A03C" transform="translate(180,148)"/>
<path d="M0 0 C0.8132373 0.07831055 1.62647461 0.15662109 2.46435547 0.23730469 C6.62483233 0.68890979 10.17870042 1.29139254 14 3.125 C14 3.455 14 3.785 14 4.125 C8.81418926 4.30079019 4.11116466 4.03793759 -1 3.125 C-12.37046902 1.27213342 -24.17208319 0.65549134 -35 5.125 C-35 4.465 -35 3.805 -35 3.125 C-34.01 3.125 -33.02 3.125 -32 3.125 C-32 2.465 -32 1.805 -32 1.125 C-21.28174943 -1.78164422 -10.94517701 -1.08384662 0 0 Z " fill="#E3A949" transform="translate(419,233.875)"/>
<path d="M0 0 C-2.96673254 7.68263686 -13.02747266 12.28131875 -20 16 C-20.33 15.01 -20.66 14.02 -21 13 C-19.68 13 -18.36 13 -17 13 C-17.33 12.01 -17.66 11.02 -18 10 C-16.35 9.67 -14.7 9.34 -13 9 C-13.33 7.35 -13.66 5.7 -14 4 C-12.23141309 3.32739649 -10.46003984 2.66211605 -8.6875 2 C-7.70136719 1.62875 -6.71523438 1.2575 -5.69921875 0.875 C-3 0 -3 0 0 0 Z " fill="#E7A64B" transform="translate(485,218)"/>
<path d="M0 0 C1.98 0.66 3.96 1.32 6 2 C6 2.66 6 3.32 6 4 C7.65 3.01 9.3 2.02 11 1 C11.33 2.65 11.66 4.3 12 6 C11.34 6 10.68 6 10 6 C10.34786708 7.97536745 10.34786708 7.97536745 11 10 C11.66 10.33 12.32 10.66 13 11 C12.01 12.485 12.01 12.485 11 14 C12.98 14 14.96 14 17 14 C17 14.99 17 15.98 17 17 C15.68 17.33 14.36 17.66 13 18 C13 17.34 13 16.68 13 16 C12.01 15.67 11.02 15.34 10 15 C10 14.34 10 13.68 10 13 C9.34 13 8.68 13 8 13 C6.55265194 11.07310891 5.189953 9.08206043 3.875 7.0625 C3.15054687 5.96035156 2.42609375 4.85820312 1.6796875 3.72265625 C0 1 0 1 0 0 Z " fill="#E9A644" transform="translate(320,384)"/>
<path d="M0 0 C1.79244141 0.01740234 1.79244141 0.01740234 3.62109375 0.03515625 C5.41740234 0.04869141 5.41740234 0.04869141 7.25 0.0625 C8.17683594 0.07410156 9.10367188 0.08570313 10.05859375 0.09765625 C7.62839784 2.52785216 5.84251428 2.882793 2.55859375 3.84765625 C-6.29761018 6.70073273 -13.51416839 11.6079587 -20.94140625 17.09765625 C-20.94140625 15.44765625 -20.94140625 13.79765625 -20.94140625 12.09765625 C-19.29140625 12.09765625 -17.64140625 12.09765625 -15.94140625 12.09765625 C-16.27140625 10.77765625 -16.60140625 9.45765625 -16.94140625 8.09765625 C-16.38453125 7.97390625 -15.82765625 7.85015625 -15.25390625 7.72265625 C-12.86387929 7.12994435 -12.86387929 7.12994435 -10.37890625 6.03515625 C-7.94140625 5.09765625 -7.94140625 5.09765625 -4.94140625 5.09765625 C-4.79703125 4.45828125 -4.65265625 3.81890625 -4.50390625 3.16015625 C-3.63024796 -0.04325748 -3.46473302 0.11503098 0 0 Z " fill="#E7AE5B" transform="translate(160.94140625,321.90234375)"/>
<path d="M0 0 C0.33 0 0.66 0 1 0 C0.99476318 1.10512939 0.98952637 2.21025879 0.98413086 3.34887695 C0.96603785 7.44701325 0.95455222 11.54514602 0.94506836 15.64331055 C0.940038 17.41740513 0.93321301 19.19149556 0.92456055 20.96557617 C0.91243826 23.51482161 0.90675874 26.06401226 0.90234375 28.61328125 C0.89718246 29.40712723 0.89202118 30.20097321 0.88670349 31.01887512 C0.88637123 34.27656286 0.96227174 36.88681521 2 40 C0.3954444 39.85851011 -1.20863767 39.71164314 -2.8125 39.5625 C-3.70582031 39.48128906 -4.59914062 39.40007812 -5.51953125 39.31640625 C-8 39 -8 39 -11 38 C-10.67 36.68 -10.34 35.36 -10 34 C-7.03 35.65 -4.06 37.3 -1 39 C-1.33 37.35 -1.66 35.7 -2 34 C-2.12085245 31.40307769 -2.18988453 28.84645092 -2.1875 26.25 C-2.18814453 25.51789307 -2.18878906 24.78578613 -2.18945312 24.03149414 C-2.11369083 15.94472978 -1.12123995 7.99884574 0 0 Z " fill="#EBC580" transform="translate(215,86)"/>
<path d="M0 0 C0.85464844 0.08378906 1.70929688 0.16757812 2.58984375 0.25390625 C4.24693359 0.40666016 4.24693359 0.40666016 5.9375 0.5625 C7.03964844 0.66691406 8.14179688 0.77132813 9.27734375 0.87890625 C10.17582031 0.91886719 11.07429688 0.95882813 12 1 C12.33 0.67 12.66 0.34 13 0 C19.44982271 -0.5560192 22.63265206 0.42176804 28 4 C28 4.66 28 5.32 28 6 C18.36476153 5.37089508 9.1109839 4.35667828 0 1 C0 0.67 0 0.34 0 0 Z " fill="#E6A548" transform="translate(394,362)"/>
<path d="M0 0 C0.33 0 0.66 0 1 0 C1 1.65 1 3.3 1 5 C0.01 5.33 -0.98 5.66 -2 6 C-2.33 7.65 -2.66 9.3 -3 11 C-2.34 11.33 -1.68 11.66 -1 12 C-1.33 12.66 -1.66 13.32 -2 14 C-2.99 14 -3.98 14 -5 14 C-4.67 15.98 -4.34 17.96 -4 20 C-5.32 20.99 -6.64 21.98 -8 23 C-8.66 22.67 -9.32 22.34 -10 22 C-10 23.32 -10 24.64 -10 26 C-10.66 26 -11.32 26 -12 26 C-10.69565626 19.72061841 -8.52743045 14.66147351 -5.4375 9.0625 C-4.8197168 7.91297852 -4.8197168 7.91297852 -4.18945312 6.74023438 C-1.18071308 1.18071308 -1.18071308 1.18071308 0 0 Z " fill="#E9A742" transform="translate(201,342)"/>
<path d="M0 0 C0.99 0 1.98 0 3 0 C2.40165275 4.14298667 0.99335715 7.18194377 -1.0625 10.8125 C-1.61035156 11.78832031 -2.15820312 12.76414063 -2.72265625 13.76953125 C-3.14417969 14.50558594 -3.56570313 15.24164063 -4 16 C-4.33 16 -4.66 16 -5 16 C-5.66 14.02 -6.32 12.04 -7 10 C-8.32 10.99 -9.64 11.98 -11 13 C-11.66 12.67 -12.32 12.34 -13 12 C-12.14535156 11.21753906 -11.29070312 10.43507812 -10.41015625 9.62890625 C-9.29425993 8.60678273 -8.17837511 7.58464667 -7.0625 6.5625 C-6.21655273 5.7880957 -6.21655273 5.7880957 -5.35351562 4.99804688 C-2.64001674 2.53775333 -2.64001674 2.53775333 0 0 Z " fill="#EAB565" transform="translate(466,138)"/>
<path d="M0 0 C0.99 0.33 1.98 0.66 3 1 C2.0576565 9.93563368 1.06793208 18.49160169 -2 27 C-2.33 27 -2.66 27 -3 27 C-2.36934845 21.2190275 -1.34844868 15.6556294 0 10 C-0.99 10.33 -1.98 10.66 -3 11 C-4.71567661 14.50294871 -4.71567661 14.50294871 -6 18 C-6.66 18 -7.32 18 -8 18 C-6.65150163 13.64029169 -4.95092154 9.68658562 -2.875 5.625 C-2.33617187 4.56539063 -1.79734375 3.50578125 -1.2421875 2.4140625 C-0.83226562 1.61742188 -0.42234375 0.82078125 0 0 Z " fill="#E6B161" transform="translate(422,70)"/>
<path d="M0 0 C2.38708523 1.45065497 3.99372906 2.99372906 6 5 C6 5.66 6 6.32 6 7 C5.34 7 4.68 7 4 7 C4 6.34 4 5.68 4 5 C2.35 5.33 0.7 5.66 -1 6 C-1 6.66 -1 7.32 -1 8 C-2.65 8.33 -4.3 8.66 -6 9 C-7.07525194 6.34771188 -8.09456151 3.71631546 -9 1 C-5.61670875 -0.12776375 -3.54843366 -0.41746278 0 0 Z " fill="#E6A641" transform="translate(157,73)"/>
<path d="M0 0 C0.33 0 0.66 0 1 0 C1.10469338 5.75813575 0.74016701 11.29014022 0 17 C0.99 17 1.98 17 3 17 C2.83628906 17.66386719 2.67257813 18.32773437 2.50390625 19.01171875 C1.89396143 22.62883337 1.89204487 26.15860708 1.9375 29.8125 C1.94201172 30.50537109 1.94652344 31.19824219 1.95117188 31.91210938 C1.96286844 33.60811068 1.98080076 35.30406703 2 37 C-4.05700324 27.91449515 -3.04424167 14.34211523 -1 4.0625 C-0.68206122 2.70463646 -0.35538209 1.34854812 0 0 Z " fill="#E8AB50" transform="translate(188,368)"/>
<path d="M0 0 C1.60407328 -0.02708567 3.2082785 -0.04643483 4.8125 -0.0625 C5.70582031 -0.07410156 6.59914062 -0.08570312 7.51953125 -0.09765625 C10 0 10 0 13 1 C13 1.66 13 2.32 13 3 C15.31 3.33 17.62 3.66 20 4 C19.01 5.485 19.01 5.485 18 7 C5.33029613 5.25740319 5.33029613 5.25740319 0 2 C0 1.34 0 0.68 0 0 Z " fill="#E69B2B" transform="translate(126,67)"/>
<path d="M0 0 C0.33 0 0.66 0 1 0 C1 11.22 1 22.44 1 34 C-4.30004455 23.3999109 -2.00128167 11.23934078 0 0 Z " fill="#E6B567" transform="translate(254,364)"/>
<path d="M0 0 C3.67216854 3.31502657 4.89351826 7.14969722 6.625 11.6875 C6.93695313 12.46544922 7.24890625 13.24339844 7.5703125 14.04492188 C9.51587927 19.07236704 10.54560271 23.62705912 11 29 C10.01 28.67 9.02 28.34 8 28 C8 26.68 8 25.36 8 24 C7.34 23.67 6.68 23.34 6 23 C5.67 23.66 5.34 24.32 5 25 C5.05220703 23.89591797 5.05220703 23.89591797 5.10546875 22.76953125 C5.26088677 17.16708183 5.31715639 13.69930488 2 9 C1.8125 6.1875 1.8125 6.1875 2 4 C1.34 4 0.68 4 0 4 C0 2.68 0 1.36 0 0 Z " fill="#E7AD56" transform="translate(365,282)"/>
<path d="M0 0 C0.33 0 0.66 0 1 0 C1.33 2.97 1.66 5.94 2 9 C2.66 8.01 3.32 7.02 4 6 C4.66 6 5.32 6 6 6 C4.58707905 10.8274799 2.57025846 14.7162359 0 19 C-0.99 19 -1.98 19 -3 19 C-2.6920761 16.20775806 -2.37887563 13.41628573 -2.0625 10.625 C-1.97548828 9.8309375 -1.88847656 9.036875 -1.79882812 8.21875 C-1.11328125 2.2265625 -1.11328125 2.2265625 0 0 Z " fill="#E6AC52" transform="translate(126,344)"/>
<path d="M0 0 C2 3 2 3 2 5 C5.465 4.505 5.465 4.505 9 4 C9.99 5.485 9.99 5.485 11 7 C10.34 7 9.68 7 9 7 C9 7.66 9 8.32 9 9 C9.99 9.33 10.98 9.66 12 10 C12 10.66 12 11.32 12 12 C12.99 12.33 13.98 12.66 15 13 C15 13.66 15 14.32 15 15 C15.66 15 16.32 15 17 15 C16.67 16.32 16.34 17.64 16 19 C15.38125 18.195625 14.7625 17.39125 14.125 16.5625 C12.25835959 13.96125481 12.25835959 13.96125481 10 13 C10 12.34 10 11.68 10 11 C9.34 11 8.68 11 8 11 C8 10.34 8 9.68 8 9 C7.34 8.7525 6.68 8.505 6 8.25 C2.23639093 6.68182955 -1.3711424 4.85494954 -5 3 C-4.360625 2.690625 -3.72125 2.38125 -3.0625 2.0625 C-1.06389179 1.1654837 -1.06389179 1.1654837 0 0 Z " fill="#EAA036" transform="translate(341,308)"/>
<path d="M0 0 C0 0.66 0 1.32 0 2 C-1.62626404 3.38232443 -3.2925002 4.71937515 -5 6 C-2.69 6.33 -0.38 6.66 2 7 C-1.12752591 8.64528614 -4.3053057 9.91702499 -7.625 11.125 C-8.58664063 11.47820312 -9.54828125 11.83140625 -10.5390625 12.1953125 C-13 13 -13 13 -15 13 C-15 12.01 -15 11.02 -15 10 C-12.91271178 8.13319997 -10.8673127 6.47058144 -8.625 4.8125 C-8.02171875 4.34908203 -7.4184375 3.88566406 -6.796875 3.40820312 C-2.27937454 0 -2.27937454 0 0 0 Z " fill="#E7B15F" transform="translate(78,204)"/>
<path d="M0 0 C1.32 0 2.64 0 4 0 C4 0.66 4 1.32 4 2 C6.31 2 8.62 2 11 2 C11 2.99 11 3.98 11 5 C11.56847656 5.10957031 12.13695312 5.21914062 12.72265625 5.33203125 C17.80511265 6.37567422 22.42011458 7.51922873 27 10 C27.9375 12.1875 27.9375 12.1875 28 14 C26 13 26 13 23 11 C21.55232236 10.56681461 20.09183729 10.17555441 18.625 9.8125 C11.89623611 7.9013718 6.03655518 4.45351511 0 1 C0 0.67 0 0.34 0 0 Z " fill="#E6AF59" transform="translate(138,225)"/>
<path d="M0 0 C4.31826191 1.29675616 7.90453185 2.96884306 11.75 5.3125 C17.05060289 8.47961023 22.43524485 11.32842507 28 14 C26.68 14.33 25.36 14.66 24 15 C24 14.34 24 13.68 24 13 C22.35 13 20.7 13 19 13 C19 12.34 19 11.68 19 11 C16.69 10.67 14.38 10.34 12 10 C11.67 9.01 11.34 8.02 11 7 C7.48809191 5.77030122 7.48809191 5.77030122 4 5 C4 4.34 4 3.68 4 3 C2.68 2.67 1.36 2.34 0 2 C0 1.34 0 0.68 0 0 Z " fill="#E7B05A" transform="translate(399,204)"/>
<path d="M0 0 C6.84834237 10.27251355 4.18927753 25.62357571 2 37 C1.67 37 1.34 37 1 37 C1.00523682 36.34104736 1.01047363 35.68209473 1.01586914 35.00317383 C1.18548591 17.47513725 1.18548591 17.47513725 0 0 Z " fill="#E8B260" transform="translate(358,29)"/>
<path d="M0 0 C5.54321063 0.58970326 10.88590286 1.70633841 16 4 C16.33 4.66 16.66 5.32 17 6 C18.134375 6.45375 19.26875 6.9075 20.4375 7.375 C24 9 24 9 25.4375 11.1875 C25.623125 11.785625 25.80875 12.38375 26 13 C22.57094969 11.66275093 19.23769371 10.20576754 15.91796875 8.6171875 C14.98662109 8.17246094 14.05527344 7.72773438 13.09570312 7.26953125 C12.13599609 6.80933594 11.17628906 6.34914062 10.1875 5.875 C9.20845703 5.40707031 8.22941406 4.93914062 7.22070312 4.45703125 C4.81312587 3.30609188 2.40625301 2.15370472 0 1 C0 0.67 0 0.34 0 0 Z " fill="#E7AC59" transform="translate(112,212)"/>
<path d="M0 0 C0.99 0 1.98 0 3 0 C3.66 1.65 4.32 3.3 5 5 C4.34 5.45375 3.68 5.9075 3 6.375 C2.01 7.179375 2.01 7.179375 1 8 C1 8.66 1 9.32 1 10 C-0.98 10 -2.96 10 -5 10 C-4.49942848 5.61999924 -3.06806466 3.15830185 0 0 Z " fill="#E79B29" transform="translate(91,275)"/>
<path d="M0 0 C1.32 0 2.64 0 4 0 C4 0.66 4 1.32 4 2 C5.65 2 7.3 2 9 2 C9.33 2.99 9.66 3.98 10 5 C11.65 4.34 13.3 3.68 15 3 C16.65 5.31 18.3 7.62 20 10 C15.83588785 10 14.33607747 9.38740919 10.75 7.5 C9.85796875 7.0359375 8.9659375 6.571875 8.046875 6.09375 C7.37140625 5.7328125 6.6959375 5.371875 6 5 C6 4.34 6 3.68 6 3 C5.38125 2.87625 4.7625 2.7525 4.125 2.625 C2 2 2 2 0 0 Z " fill="#E6A942" transform="translate(395,287)"/>
<path d="M0 0 C0.99 0.33 1.98 0.66 3 1 C2.34 1 1.68 1 1 1 C1.00523682 1.84183838 1.01047363 2.68367676 1.01586914 3.55102539 C1.03300762 6.70255273 1.04549696 9.85405614 1.05493164 13.00561523 C1.05993113 14.36434719 1.06673291 15.72307385 1.07543945 17.08178711 C1.08769842 19.04538585 1.09273487 21.00902541 1.09765625 22.97265625 C1.10289307 24.15093994 1.10812988 25.32922363 1.11352539 26.54321289 C0.99692685 30.09357576 0.5655059 33.49542884 0 37 C-0.33 37 -0.66 37 -1 37 C-0.97643433 36.06148193 -0.97643433 36.06148193 -0.95239258 35.10400391 C-0.89015325 32.27776069 -0.85104538 29.45166139 -0.8125 26.625 C-0.78736328 25.64015625 -0.76222656 24.6553125 -0.73632812 23.640625 C-0.72182617 22.22910156 -0.72182617 22.22910156 -0.70703125 20.7890625 C-0.6913208 19.91975098 -0.67561035 19.05043945 -0.65942383 18.15478516 C-0.77181396 17.44370605 -0.8842041 16.73262695 -1 16 C-1.99 15.34 -2.98 14.68 -4 14 C-3.51917969 13.44828125 -3.03835938 12.8965625 -2.54296875 12.328125 C-0.76045839 9.63856507 -0.52248591 7.94178582 -0.3125 4.75 C-0.21388672 3.41195313 -0.21388672 3.41195313 -0.11328125 2.046875 C-0.05720703 1.03367187 -0.05720703 1.03367187 0 0 Z " fill="#EAAF5A" transform="translate(333,309)"/>
<path d="M0 0 C0.66 0.66 1.32 1.32 2 2 C1.52949219 2.92941406 1.05898438 3.85882813 0.57421875 4.81640625 C-0.05479682 6.0650491 -0.68369688 7.31375015 -1.3125 8.5625 C-1.62123047 9.17158203 -1.92996094 9.78066406 -2.24804688 10.40820312 C-4.3279067 14.54602951 -6.2128583 18.72735662 -8 23 C-8.82638376 20.10765685 -9 18.11257569 -9 15 C-9.33 14.01 -9.66 13.02 -10 12 C-9.34 11.67 -8.68 11.34 -8 11 C-7.01 11.33 -6.02 11.66 -5 12 C-5 11.01 -5 10.02 -5 9 C-4.34 9 -3.68 9 -3 9 C-3.33 7.35 -3.66 5.7 -4 4 C-2.68 4 -1.36 4 0 4 C0 2.68 0 1.36 0 0 Z " fill="#E8B15B" transform="translate(346,88)"/>
<path d="M0 0 C3.88192126 3.76774711 7.79531881 7.62797789 11 12 C11 12.66 11 13.32 11 14 C11.66 14 12.32 14 13 14 C12.67 14.66 12.34 15.32 12 16 C9.97954558 15.39816251 7.97888961 14.72693904 6 14 C5.67 13.34 5.34 12.68 5 12 C4.34 12 3.68 12 3 12 C2.86722656 11.38511719 2.73445312 10.77023438 2.59765625 10.13671875 C2.42105469 9.32847656 2.24445313 8.52023438 2.0625 7.6875 C1.88847656 6.88699219 1.71445313 6.08648437 1.53515625 5.26171875 C1.00113841 2.854599 1.00113841 2.854599 0 0 Z " fill="#E9AE56" transform="translate(182,98)"/>
<path d="M0 0 C-3.83073083 2.13040644 -7.90213268 3.37310852 -12.0625 4.6875 C-12.78244141 4.92533203 -13.50238281 5.16316406 -14.24414062 5.40820312 C-19.64516741 7.11827753 -19.64516741 7.11827753 -23 6 C-22.175 5.54625 -21.35 5.0925 -20.5 4.625 C-19.2625 3.820625 -19.2625 3.820625 -18 3 C-18 2.34 -18 1.68 -18 1 C-16.14375 1.0309375 -16.14375 1.0309375 -14.25 1.0625 C-9.38215986 1.07104007 -4.90979552 -0.11158626 0 0 Z " fill="#E8B164" transform="translate(195,315)"/>
<path d="M0 0 C4.95 0 9.9 0 15 0 C15 0.66 15 1.32 15 2 C17.64 2 20.28 2 23 2 C23.33 2.99 23.66 3.98 24 5 C20.53058454 4.54177532 17.32604951 4.10868317 14 3 C11.43365139 2.77281504 8.88321893 2.58391816 6.3125 2.4375 C5.61060547 2.39431641 4.90871094 2.35113281 4.18554688 2.30664062 C2.45724794 2.2008264 0.7286489 2.09993419 -1 2 C-0.67 1.34 -0.34 0.68 0 0 Z " fill="#DFA048" transform="translate(88,207)"/>
<path d="M0 0 C3.27235512 3.15115678 6.2025724 6.42550918 9 10 C9 10.66 9 11.32 9 12 C9.66 12.33 10.32 12.66 11 13 C4.6217765 13.36103152 4.6217765 13.36103152 2.0625 11.875 C0.5529148 9.21102612 0.87664264 7.02225522 1 4 C0.56058477 1.73433657 0.56058477 1.73433657 0 0 Z " fill="#EBB05A" transform="translate(387,340)"/>
<path d="M0 0 C2.00720923 0.28674418 4.0085944 0.61866701 6 1 C4.71034824 2.37562854 3.37310707 3.70766393 2 5 C1.34 5 0.68 5 0 5 C-0.33 5.99 -0.66 6.98 -1 8 C-3.21701147 9.58965571 -5.57862473 10.72327486 -8 12 C-8 10.68 -8 9.36 -8 8 C-7.360625 7.731875 -6.72125 7.46375 -6.0625 7.1875 C-3.66868314 6.11332248 -3.66868314 6.11332248 -3 3 C-2.01 3.33 -1.02 3.66 0 4 C-0.33 3.01 -0.66 2.02 -1 1 C-0.67 0.67 -0.34 0.34 0 0 Z " fill="#E7AE51" transform="translate(396,118)"/>
<path d="M0 0 C-8.94382157 5.80139778 -20.14634605 2.7545457 -30 1 C-30 0.67 -30 0.34 -30 0 C-29.36497559 0.00523682 -28.72995117 0.01047363 -28.07568359 0.01586914 C-25.17546595 0.03676256 -22.2752642 0.04969934 -19.375 0.0625 C-17.87646484 0.07506836 -17.87646484 0.07506836 -16.34765625 0.08789062 C-11.56849895 0.10371565 -4.05305828 -2.02652914 0 0 Z " fill="#E6B263" transform="translate(161,198)"/>
<path d="M0 0 C0.33 0 0.66 0 1 0 C2.34516765 6.35897436 2.34516765 6.35897436 0.6875 9.4375 C-1 11 -1 11 -3 11 C-3.309375 11.94875 -3.61875 12.8975 -3.9375 13.875 C-5 17 -5 17 -6 19 C-6.66 19 -7.32 19 -8 19 C-7.09046734 15.99154581 -6.19459571 13.32150595 -4.5625 10.625 C-2.53125337 7.21250566 -1.33130633 3.74033682 0 0 Z " fill="#E8B35F" transform="translate(210,323)"/>
<path d="M0 0 C6.57142857 5.14285714 6.57142857 5.14285714 8 9 C7.01 9.495 7.01 9.495 6 10 C3.3984375 8.78515625 3.3984375 8.78515625 0.375 7.0625 C-0.62789063 6.49660156 -1.63078125 5.93070312 -2.6640625 5.34765625 C-3.43492187 4.90292969 -4.20578125 4.45820313 -5 4 C-4.34 3.67 -3.68 3.34 -3 3 C-2.01 3.33 -1.02 3.66 0 4 C0 2.68 0 1.36 0 0 Z " fill="#E7B872" transform="translate(346,403)"/>
<path d="M0 0 C1.32 0.66 2.64 1.32 4 2 C1.71070947 3.17154293 -0.58118362 4.33738074 -2.875 5.5 C-3.52597656 5.83386719 -4.17695313 6.16773438 -4.84765625 6.51171875 C-9.7734375 9 -9.7734375 9 -12 9 C-11.67 8.01 -11.34 7.02 -11 6 C-9.66666667 5.33333333 -8.33333333 4.66666667 -7 4 C-6.67 3.01 -6.34 2.02 -6 1 C-3.03 1.495 -3.03 1.495 0 2 C0 1.34 0 0.68 0 0 Z " fill="#E8A846" transform="translate(208,306)"/>
<path d="M0 0 C0.33 0 0.66 0 1 0 C2.33333333 5.33333333 3.66666667 10.66666667 5 16 C6.32 15.34 7.64 14.68 9 14 C8.67 15.32 8.34 16.64 8 18 C6.02 18 4.04 18 2 18 C2.33 16.02 2.66 14.04 3 12 C2.01 12 1.02 12 0 12 C0 8.04 0 4.08 0 0 Z " fill="#E7AA53" transform="translate(291,93)"/>
<path d="M0 0 C1.9375 0.8125 1.9375 0.8125 4 2 C4.33 2.99 4.66 3.98 5 5 C5.66 5 6.32 5 7 5 C8.2890625 6.6796875 8.2890625 6.6796875 9.625 8.875 C10.29402344 9.95394531 10.29402344 9.95394531 10.9765625 11.0546875 C12 13 12 13 12 15 C11.34 15 10.68 15 10 15 C9.67 14.34 9.34 13.68 9 13 C8.38125 12.79375 7.7625 12.5875 7.125 12.375 C4.16952232 10.46263209 3.7507089 8.244878 2.7109375 4.97265625 C1.99011114 2.72545002 1.99011114 2.72545002 0 0 Z " fill="#EAB568" transform="translate(214,34)"/>
<path d="M0 0 C1.79244141 0.01740234 1.79244141 0.01740234 3.62109375 0.03515625 C5.41740234 0.04869141 5.41740234 0.04869141 7.25 0.0625 C8.17683594 0.07410156 9.10367188 0.08570313 10.05859375 0.09765625 C6.59331286 3.56293714 1.89773259 4.98271007 -2.94140625 5.28515625 C-3.60140625 5.22328125 -4.26140625 5.16140625 -4.94140625 5.09765625 C-3.81895287 0.12679126 -3.81895287 0.12679126 0 0 Z " fill="#E8AC4F" transform="translate(160.94140625,321.90234375)"/>
<path d="M0 0 C-1.98 0.99 -1.98 0.99 -4 2 C-3.67 2.66 -3.34 3.32 -3 4 C-4.43534841 4.2226746 -5.87345525 4.42761906 -7.3125 4.625 C-8.11300781 4.74101562 -8.91351563 4.85703125 -9.73828125 4.9765625 C-12 5 -12 5 -15 3 C-13.25531628 2.29911844 -11.50398839 1.61475991 -9.75 0.9375 C-8.77546875 0.55464844 -7.8009375 0.17179688 -6.796875 -0.22265625 C-3.95992605 -1.01113787 -2.70590448 -1.02437812 0 0 Z " fill="#E5AC5C" transform="translate(94,132)"/>
<path d="M0 0 C2.53910197 0.38520564 3.72751123 0.70097943 5.484375 2.62890625 C5.90203125 3.26699219 6.3196875 3.90507812 6.75 4.5625 C7.17796875 5.20316406 7.6059375 5.84382812 8.046875 6.50390625 C8.36140625 6.99761719 8.6759375 7.49132812 9 8 C7.68 7.67 6.36 7.34 5 7 C5.33 9.64 5.66 12.28 6 15 C3.36404228 12.36404228 2.92297888 9.93812819 1.875 6.375 C1.52179688 5.18648437 1.16859375 3.99796875 0.8046875 2.7734375 C0.53914063 1.85820312 0.27359375 0.94296875 0 0 Z " fill="#E5BA72" transform="translate(274,7)"/>
<path d="M0 0 C-0.875 4.75 -0.875 4.75 -2 7 C-2.66 7 -3.32 7 -4 7 C-4.33 7.66 -4.66 8.32 -5 9 C-5.99 9 -6.98 9 -8 9 C-7.64598897 5.81390075 -7.16972964 4.20933322 -5.125 1.6875 C-3 0 -3 0 0 0 Z " fill="#E5A64B" transform="translate(469,138)"/>
<path d="M0 0 C5.47932789 1.54545146 10.11429181 4.15543212 15 7 C11.88407501 8.03864166 10.9737344 8.09036928 8 7 C7.67 6.34 7.34 5.68 7 5 C6.34 5 5.68 5 5 5 C4.67 5.66 4.34 6.32 4 7 C0 2.25 0 2.25 0 0 Z " fill="#E9BD6E" transform="translate(194,22)"/>
<path d="M0 0 C2.01003635 3.01505452 2.99171541 5.57496212 4.125 9 C4.47820312 10.051875 4.83140625 11.10375 5.1953125 12.1875 C6 15 6 15 6 18 C5.34 18 4.68 18 4 18 C4 17.34 4 16.68 4 16 C3.01 15.67 2.02 15.34 1 15 C0.67 14.01 0.34 13.02 0 12 C0.66 12 1.32 12 2 12 C1.67 10.7625 1.34 9.525 1 8.25 C0.20108841 5.25408155 0 3.19892281 0 0 Z " fill="#E6BD7C" transform="translate(267,410)"/>
<path d="M0 0 C1.25361328 0.00966797 2.50722656 0.01933594 3.79882812 0.02929688 C5.10916016 0.05443359 6.41949219 0.07957031 7.76953125 0.10546875 C9.10480288 0.12051908 10.44009062 0.13420688 11.77539062 0.14648438 C15.04467701 0.18189181 18.31315218 0.23127985 21.58203125 0.29296875 C21.58203125 0.62296875 21.58203125 0.95296875 21.58203125 1.29296875 C20.9271875 1.3180249 20.27234375 1.34308105 19.59765625 1.36889648 C16.59229889 1.4858953 13.5871764 1.6081451 10.58203125 1.73046875 C9.55207031 1.76978516 8.52210937 1.80910156 7.4609375 1.84960938 C1.7796205 2.08482314 -3.78843143 2.48778252 -9.41796875 3.29296875 C-6.74626226 -0.30947219 -4.30105459 -0.05838536 0 0 Z " fill="#E0AF67" transform="translate(115.41796875,273.70703125)"/>
<path d="M0 0 C3.35433109 0.94933899 6.69246505 1.89748835 10 3 C10.6875 5.0625 10.6875 5.0625 11 7 C10.01 7.495 10.01 7.495 9 8 C9 7.01 9 6.02 9 5 C7.02 5.66 5.04 6.32 3 7 C2.34 6.34 1.68 5.68 1 5 C1 4.34 1 3.68 1 3 C0.67 2.01 0.34 1.02 0 0 Z " fill="#E7A444" transform="translate(389,200)"/>
<path d="M0 0 C-2.95716407 0.83752161 -5.915913 1.66930031 -8.875 2.5 C-9.71675781 2.73847656 -10.55851562 2.97695312 -11.42578125 3.22265625 C-12.63427734 3.56103516 -12.63427734 3.56103516 -13.8671875 3.90625 C-14.61081543 4.11572266 -15.35444336 4.32519531 -16.12060547 4.54101562 C-18 5 -18 5 -20 5 C-20 4.34 -20 3.68 -20 3 C-13.41551185 0.29565665 -7.114497 -2.07768497 0 0 Z " fill="#E8B35E" transform="translate(427,177)"/>
<path d="M0 0 C0.57105469 0.0721875 1.14210938 0.144375 1.73046875 0.21875 C8.83666412 1.03217777 15.85302234 1.10081943 23 1 C21 3 21 3 19.16821289 3.24291992 C18.4436792 3.23881104 17.71914551 3.23470215 16.97265625 3.23046875 C16.18052734 3.22853516 15.38839844 3.22660156 14.57226562 3.22460938 C13.74404297 3.21236328 12.91582031 3.20011719 12.0625 3.1875 C11.23814453 3.18685547 10.41378906 3.18621094 9.56445312 3.18554688 C6.05511556 3.15988965 3.36044699 3.120149 0 2 C0 1.34 0 0.68 0 0 Z " fill="#E4AD56" transform="translate(440,224)"/>
<path d="M0 0 C-2.13958131 1.07474339 -4.28361921 2.13771894 -6.4375 3.18359375 C-7.283125 3.59738281 -8.12875 4.01117188 -9 4.4375 C-10.2684375 5.05431641 -10.2684375 5.05431641 -11.5625 5.68359375 C-13.9009123 6.94648629 -15.92182587 8.34996823 -18 10 C-17.67 8.35 -17.34 6.7 -17 5 C-15.68 5 -14.36 5 -13 5 C-13 4.34 -13 3.68 -13 3 C-12.01 3 -11.02 3 -10 3 C-10 2.34 -10 1.68 -10 1 C-6.61981469 -0.04005702 -3.5219721 -0.08004482 0 0 Z " fill="#E8B064" transform="translate(406,182)"/>
<path d="M0 0 C0.99 0 1.98 0 3 0 C3 1.32 3 2.64 3 4 C3.66 4 4.32 4 5 4 C5 6.31 5 8.62 5 11 C4.01 11.33 3.02 11.66 2 12 C2 11.01 2 10.02 2 9 C-0.64 8.67 -3.28 8.34 -6 8 C-6 7.67 -6 7.34 -6 7 C-3.36 6.67 -0.72 6.34 2 6 C1.34 4.02 0.68 2.04 0 0 Z " fill="#EBB35E" transform="translate(180,148)"/>
<path d="M0 0 C0.33 0.99 0.66 1.98 1 3 C0.67 3.66 0.34 4.32 0 5 C-0.99 5 -1.98 5 -3 5 C-3.33 6.65 -3.66 8.3 -4 10 C-5.98 10 -7.96 10 -10 10 C-6.66666667 6.66666667 -3.33333333 3.33333333 0 0 Z " fill="#E9B25E" transform="translate(335,74)"/>
<path d="M0 0 C0.33 0 0.66 0 1 0 C1.33 3.3 1.66 6.6 2 10 C1.34 10 0.68 10 0 10 C0.0825 10.70125 0.165 11.4025 0.25 12.125 C-0.0808255 15.92949327 -1.75313314 17.98077266 -4 21 C-4.86149062 18.57910232 -5.13536809 17.37903066 -4.2578125 14.921875 C-3.88398438 14.20515625 -3.51015625 13.4884375 -3.125 12.75 C-1.03495184 8.40414123 -0.34856524 4.79277211 0 0 Z " fill="#E8B86B" transform="translate(281,43)"/>
<path d="M0 0 C1.98 0 3.96 0 6 0 C5.125 3.875 5.125 3.875 4 5 C1.32941149 5.14115161 -1.32432238 5.04247107 -4 5 C-3.67 4.34 -3.34 3.68 -3 3 C-2.34 3 -1.68 3 -1 3 C-0.67 2.01 -0.34 1.02 0 0 Z " fill="#EB9B2B" transform="translate(76,206)"/>
<path d="M0 0 C-5.16017278 2.98746845 -10.19834261 4.02541328 -16 5 C-16 5.66 -16 6.32 -16 7 C-17.98 7.33 -19.96 7.66 -22 8 C-18.35570551 4.81890556 -14.94803381 2.91749616 -10.4375 1.1875 C-9.32246094 0.74792969 -8.20742188 0.30835937 -7.05859375 -0.14453125 C-4.08150923 -0.9772024 -2.81626214 -1.12237342 0 0 Z " fill="#E9B168" transform="translate(361,118)"/>
<path d="M0 0 C0.66 0 1.32 0 2 0 C2 0.66 2 1.32 2 2 C2.66 2 3.32 2 4 2 C5.60355101 5.50776784 6.22036864 8.14354879 6 12 C6.66 12 7.32 12 8 12 C8 14.31 8 16.62 8 19 C6.39877443 16.59816164 5.46414439 14.84821846 4.4921875 12.20703125 C4.22792969 11.49482422 3.96367187 10.78261719 3.69140625 10.04882812 C3.42199219 9.31083984 3.15257812 8.57285156 2.875 7.8125 C2.59785156 7.06291016 2.32070312 6.31332031 2.03515625 5.54101562 C1.35329598 3.69529041 0.67618441 1.84781213 0 0 Z " fill="#E9B367" transform="translate(161,96)"/>
<path d="M0 0 C0.33 0.66 0.66 1.32 1 2 C0.00390625 4.3828125 0.00390625 4.3828125 -1.4375 7.125 C-1.91058594 8.03507812 -2.38367188 8.94515625 -2.87109375 9.8828125 C-3.24363281 10.58148438 -3.61617188 11.28015625 -4 12 C-4.66 12 -5.32 12 -6 12 C-5.07692308 4 -5.07692308 4 -3 1 C-2.01 0.67 -1.02 0.34 0 0 Z " fill="#E7AC4C" transform="translate(261,96)"/>
<path d="M0 0 C1.32 0.33 2.64 0.66 4 1 C4.66 3.64 5.32 6.28 6 9 C4.68 8.67 3.36 8.34 2 8 C1.67 8.66 1.34 9.32 1 10 C0.67 6.7 0.34 3.4 0 0 Z " fill="#E69E30" transform="translate(279,14)"/>
<path d="M0 0 C1.98 0.99 3.96 1.98 6 3 C5.67 3.99 5.34 4.98 5 6 C3.8553125 6.2165625 3.8553125 6.2165625 2.6875 6.4375 C-0.08172908 6.9632594 -0.08172908 6.9632594 -3 8 C-1.125 1.125 -1.125 1.125 0 0 Z " fill="#ECA03A" transform="translate(137,324)"/>
<path d="M0 0 C1.04005702 3.38018531 1.08004482 6.4780279 1 10 C-0.65 9.67 -2.3 9.34 -4 9 C-4.33 10.32 -4.66 11.64 -5 13 C-5.99 13 -6.98 13 -8 13 C-7.67386719 12.48050781 -7.34773437 11.96101563 -7.01171875 11.42578125 C-4.63823632 7.63801135 -2.28224716 3.84378469 0 0 Z " fill="#E7AE57" transform="translate(182,277)"/>
<path d="M0 0 C0.66 0.33 1.32 0.66 2 1 C1.67 1.33 1.34 1.66 1 2 C1.66 2.33 2.32 2.66 3 3 C2.67 3.99 2.34 4.98 2 6 C0.15234375 6.73046875 0.15234375 6.73046875 -2.0625 7.1875 C-2.79597656 7.34605469 -3.52945313 7.50460938 -4.28515625 7.66796875 C-5.13400391 7.83232422 -5.13400391 7.83232422 -6 8 C-6 5 -6 5 -4.6875 3.61328125 C-3.125 2.40885417 -1.5625 1.20442708 0 0 Z " fill="#E5B76B" transform="translate(69,209)"/>
<path d="M0 0 C-0.33 1.32 -0.66 2.64 -1 4 C-1.99 4 -2.98 4 -4 4 C-4.33 4.99 -4.66 5.98 -5 7 C-6.20628008 4.66785852 -7.1654738 2.50357861 -8 0 C-4.71023192 -1.09658936 -3.28696233 -0.79953138 0 0 Z " fill="#EC9A27" transform="translate(156,74)"/>
<path d="M0 0 C0.99 0.33 1.98 0.66 3 1 C3.66 4.3 4.32 7.6 5 11 C4.01 11 3.02 11 2 11 C0.57741188 7.17679443 -0.24042276 4.08718695 0 0 Z " fill="#E89B31" transform="translate(264,411)"/>
<path d="M0 0 C2.9375 0.8125 2.9375 0.8125 6 2 C6.33 2.99 6.66 3.98 7 5 C7.99 5.33 8.98 5.66 10 6 C10 6.66 10 7.32 10 8 C10.66 8 11.32 8 12 8 C11.67 9.32 11.34 10.64 11 12 C10.38125 11.195625 9.7625 10.39125 9.125 9.5625 C7.25835959 6.96125481 7.25835959 6.96125481 5 6 C5 5.34 5 4.68 5 4 C4.34 4 3.68 4 3 4 C3 3.34 3 2.68 3 2 C2.01 1.67 1.02 1.34 0 1 C0 0.67 0 0.34 0 0 Z " fill="#E6B268" transform="translate(346,315)"/>
<path d="M0 0 C0.33 1.32 0.66 2.64 1 4 C-2.75 7 -2.75 7 -5 7 C-5.33 7.66 -5.66 8.32 -6 9 C-6.66 8.67 -7.32 8.34 -8 8 C-7.67 7.01 -7.34 6.02 -7 5 C-6.34 5 -5.68 5 -5 5 C-5 4.34 -5 3.68 -5 3 C-2.46153846 0 -2.46153846 0 0 0 Z " fill="#EBB261" transform="translate(174,292)"/>
<path d="M0 0 C0 0.66 0 1.32 0 2 C-1.47365029 3.27716359 -2.95319028 4.54919556 -4.48046875 5.76171875 C-6.08624346 7.01203479 -6.08624346 7.01203479 -7.625 8.75 C-9.32642969 10.29675426 -10.76134195 10.61402447 -13 11 C-11.75165856 7.25497567 -10.13825974 6.23515724 -7.0625 3.8125 C-6.16660156 3.09707031 -5.27070313 2.38164063 -4.34765625 1.64453125 C-2 0 -2 0 0 0 Z " fill="#E9BB6E" transform="translate(320,88)"/>
<path d="M0 0 C6.19518473 0.41588046 11.26689311 1.60251894 17 4 C17 4.33 17 4.66 17 5 C14.69 5 12.38 5 10 5 C10 4.34 10 3.68 10 3 C8.02 3 6.04 3 4 3 C4 2.34 4 1.68 4 1 C2.68 0.67 1.36 0.34 0 0 Z " fill="#E7AD58" transform="translate(111,130)"/>
<path d="M0 0 C0.33 0.66 0.66 1.32 1 2 C0.109375 4.27734375 0.109375 4.27734375 -1.25 6.9375 C-1.90742188 8.25041016 -1.90742188 8.25041016 -2.578125 9.58984375 C-3.87297665 11.78468845 -5.10963121 13.31534782 -7 15 C-6.68383092 8.83470299 -3.50784939 4.82731567 0 0 Z " fill="#E8B66E" transform="translate(134,328)"/>
<path d="M0 0 C1.32 0.33 2.64 0.66 4 1 C4 1.66 4 2.32 4 3 C5.32 3.33 6.64 3.66 8 4 C8 5.32 8 6.64 8 8 C8.66 8 9.32 8 10 8 C9.67 9.32 9.34 10.64 9 12 C8.2575 10.9275 7.515 9.855 6.75 8.75 C4.71465333 5.88543802 2.53554349 3.44163447 0 1 C0 0.67 0 0.34 0 0 Z " fill="#EAB667" transform="translate(133,158)"/>
<path d="M0 0 C0.66 0 1.32 0 2 0 C2 0.99 2 1.98 2 3 C0.68 3 -0.64 3 -2 3 C-2.66 4.32 -3.32 5.64 -4 7 C-5.65 7 -7.3 7 -9 7 C-9.33 7.66 -9.66 8.32 -10 9 C-10.33 8.01 -10.66 7.02 -11 6 C-10.28972656 5.65066406 -9.57945312 5.30132812 -8.84765625 4.94140625 C-7.92855469 4.48636719 -7.00945312 4.03132813 -6.0625 3.5625 C-4.68771484 2.88380859 -4.68771484 2.88380859 -3.28515625 2.19140625 C-1.09471096 1.19474606 -1.09471096 1.19474606 0 0 Z " fill="#E8B05C" transform="translate(398,102)"/>
<path d="M0 0 C9.55122951 0.97131148 9.55122951 0.97131148 13 3 C14.3125 5.625 14.3125 5.625 15 8 C11.45756548 6.63408831 8.07372071 5.09068516 4.6875 3.375 C3.80449219 2.92898437 2.92148438 2.48296875 2.01171875 2.0234375 C1.34785156 1.68570313 0.68398437 1.34796875 0 1 C0 0.67 0 0.34 0 0 Z " fill="#EABA71" transform="translate(133,72)"/>
<path d="M0 0 C6.27 0.33 12.54 0.66 19 1 C19 1.99 19 2.98 19 4 C13.06 3.34 7.12 2.68 1 2 C0.67 2.66 0.34 3.32 0 4 C0 2.68 0 1.36 0 0 Z " fill="#EDBB69" transform="translate(364,278)"/>
<path d="M0 0 C2.4375 0.375 2.4375 0.375 5 1 C5.33 1.66 5.66 2.32 6 3 C8.02463255 3.65213292 8.02463255 3.65213292 10 4 C10 5.65 10 7.3 10 9 C5.82117329 6.43571997 2.87494471 3.98069267 0 0 Z " fill="#E6B25F" transform="translate(155,184)"/>
<path d="M0 0 C3.3 1.65 6.6 3.3 10 5 C10.33 4.01 10.66 3.02 11 2 C11.66 3.32 12.32 4.64 13 6 C11.3954444 5.85851011 9.79136233 5.71164314 8.1875 5.5625 C7.29417969 5.48128906 6.40085938 5.40007812 5.48046875 5.31640625 C3 5 3 5 0 4 C0 2.68 0 1.36 0 0 Z " fill="#E9B25D" transform="translate(204,120)"/>
<path d="M0 0 C3.48749314 2.78999451 6.50157221 5.25235831 9 9 C8.67 9.66 8.34 10.32 8 11 C2.25 7.375 2.25 7.375 0 4 C0 2.68 0 1.36 0 0 Z " fill="#E9B872" transform="translate(393,251)"/>
<path d="M0 0 C0.33 0.66 0.66 1.32 1 2 C1.99 2.3403125 1.99 2.3403125 3 2.6875 C3.66 3.120625 4.32 3.55375 5 4 C5.75 7.625 5.75 7.625 6 11 C5.01 11.495 5.01 11.495 4 12 C3.32645501 10.56570999 2.66140299 9.12742943 2 7.6875 C1.62875 6.88699219 1.2575 6.08648437 0.875 5.26171875 C0 3 0 3 0 0 Z " fill="#E6AE5C" transform="translate(175,136)"/>
<path d="M0 0 C0.33 1.32 0.66 2.64 1 4 C0.34 4 -0.32 4 -1 4 C-1.144375 4.763125 -1.28875 5.52625 -1.4375 6.3125 C-2 9 -2 9 -3 12 C-3.66 12 -4.32 12 -5 12 C-5 12.66 -5 13.32 -5 14 C-5.66 14 -6.32 14 -7 14 C-5.53967505 8.68972746 -3.01679014 4.53669968 0 0 Z " fill="#EBBE73" transform="translate(270,73)"/>
<path d="M0 0 C0.33 1.32 0.66 2.64 1 4 C0.34 4 -0.32 4 -1 4 C-1.20625 4.78375 -1.4125 5.5675 -1.625 6.375 C-3 9 -3 9 -6.125 10.3125 C-7.07375 10.539375 -8.0225 10.76625 -9 11 C-8.60167969 10.54109375 -8.20335937 10.0821875 -7.79296875 9.609375 C-5.08857938 6.47728415 -2.42008229 3.36122541 0 0 Z " fill="#E7B361" transform="translate(345,63)"/>
<path d="M0 0 C4.8274799 1.41292095 8.7162359 3.42974154 13 6 C9.79937313 7.60031344 7.27728194 6.03173691 4 5 C4 4.34 4 3.68 4 3 C2.68 2.67 1.36 2.34 0 2 C0 1.34 0 0.68 0 0 Z " fill="#EAB76A" transform="translate(399,204)"/>
<path d="M0 0 C0.66 0.66 1.32 1.32 2 2 C0.625 4 0.625 4 -1 6 C-1.66 6 -2.32 6 -3 6 C-3.33 6.99 -3.66 7.98 -4 9 C-4.99 9.33 -5.98 9.66 -7 10 C-7 8.68 -7 7.36 -7 6 C-6.01 6 -5.02 6 -4 6 C-4 5.34 -4 4.68 -4 4 C-3.34 4 -2.68 4 -2 4 C-2 3.01 -2 2.02 -2 1 C-1.34 0.67 -0.68 0.34 0 0 Z " fill="#E9B162" transform="translate(459,153)"/>
<path d="M0 0 C4.12751449 0.60698743 7.3321148 2.03810791 11 4 C8.01758453 4.77321882 5.02419525 5.41196203 2 6 C2.33 4.68 2.66 3.36 3 2 C2.01 2 1.02 2 0 2 C0 1.34 0 0.68 0 0 Z " fill="#E7AF54" transform="translate(128,135)"/>
<path d="M0 0 C1.1446875 0.2784375 1.1446875 0.2784375 2.3125 0.5625 C5.08967375 1.22819173 5.08967375 1.22819173 8 0 C7.979375 0.78375 7.95875 1.5675 7.9375 2.375 C7.81315937 4.98114961 7.81315937 4.98114961 9 7 C5.18315774 5.44499019 2.80804268 2.96404505 0 0 Z " fill="#EAB764" transform="translate(378,351)"/>
<path d="M0 0 C1.32 0 2.64 0 4 0 C4 1.32 4 2.64 4 4 C4.99 4.33 5.98 4.66 7 5 C7 5.99 7 6.98 7 8 C7.66 8.33 8.32 8.66 9 9 C6 9 6 9 4.39453125 7.5390625 C3.61142578 6.59160156 3.61142578 6.59160156 2.8125 5.625 C2.28269531 4.99851562 1.75289063 4.37203125 1.20703125 3.7265625 C0 2 0 2 0 0 Z " fill="#E8B769" transform="translate(362,332)"/>
<path d="M0 0 C0.33 0.66 0.66 1.32 1 2 C-3.30769231 7.78461538 -3.30769231 7.78461538 -6.8125 8.875 C-7.8953125 8.936875 -7.8953125 8.936875 -9 9 C-9 8.34 -9 7.68 -9 7 C-7.35 6.34 -5.7 5.68 -4 5 C-4 4.34 -4 3.68 -4 3 C-2 1.375 -2 1.375 0 0 Z " fill="#E9B767" transform="translate(160,303)"/>
<path d="M0 0 C0.66 0.33 1.32 0.66 2 1 C0.1875 3 0.1875 3 -2 5 C-2.99 5 -3.98 5 -5 5 C-5 5.66 -5 6.32 -5 7 C-6.98 7.66 -8.96 8.32 -11 9 C-7.56638098 5.36440339 -4.2026393 2.63886654 0 0 Z " fill="#E6B66C" transform="translate(105,264)"/>
<path d="M0 0 C0.99 0.33 1.98 0.66 3 1 C1.515 2.485 1.515 2.485 0 4 C1.98 4.66 3.96 5.32 6 6 C6 6.33 6 6.66 6 7 C-0.75 7.125 -0.75 7.125 -3 6 C-2.625 3.5625 -2.625 3.5625 -2 1 C-1.34 0.67 -0.68 0.34 0 0 Z " fill="#E8B261" transform="translate(383,193)"/>
<path d="M0 0 C1.32 0.66 2.64 1.32 4 2 C3.67 2.99 3.34 3.98 3 5 C0.4375 6.1875 0.4375 6.1875 -2 7 C-2.125 4.625 -2.125 4.625 -2 2 C-1.34 1.34 -0.68 0.68 0 0 Z " fill="#E8AC49" transform="translate(446,162)"/>
<path d="M0 0 C1.32 0.33 2.64 0.66 4 1 C1.03 5.95 1.03 5.95 -2 11 C-2.33 9.68 -2.66 8.36 -3 7 C-2.34 7 -1.68 7 -1 7 C-0.67 4.69 -0.34 2.38 0 0 Z " fill="#E8B055" transform="translate(282,346)"/>
<path d="M0 0 C1.32 0.33 2.64 0.66 4 1 C4 1.66 4 2.32 4 3 C4.99 3 5.98 3 7 3 C7.33 4.98 7.66 6.96 8 9 C1.42857143 3.85714286 1.42857143 3.85714286 0 0 Z " fill="#EBB871" transform="translate(370,342)"/>
<path d="M0 0 C0.33 0 0.66 0 1 0 C1 1.65 1 3.3 1 5 C0.01 5.33 -0.98 5.66 -2 6 C-3.22520264 9.00847418 -3.22520264 9.00847418 -4 12 C-4.66 12 -5.32 12 -6 12 C-4.43358249 7.69235185 -2.31663844 3.93828536 0 0 Z " fill="#E9B15E" transform="translate(201,342)"/>
<path d="M0 0 C1.32 0.33 2.64 0.66 4 1 C1.79020692 3.81939117 -0.40062046 6.53058944 -3 9 C-3 7.02 -3 5.04 -3 3 C-2.34 3 -1.68 3 -1 3 C-0.67 2.01 -0.34 1.02 0 0 Z " fill="#EAAE57" transform="translate(136,339)"/>
<path d="M0 0 C3.74637273 1.24879091 5.29013939 3.15795107 8 6 C9.1446875 7.1446875 9.1446875 7.1446875 10.3125 8.3125 C10.869375 8.869375 11.42625 9.42625 12 10 C11.236875 9.690625 10.47375 9.38125 9.6875 9.0625 C7.81210323 8.32106407 5.91315348 7.63771783 4 7 C0 2.54285714 0 2.54285714 0 0 Z " fill="#E7B86D" transform="translate(417,280)"/>
<path d="M0 0 C-1.04874998 2.62187494 -1.64931313 3.79371361 -4.125 5.25 C-4.74375 5.4975 -5.3625 5.745 -6 6 C-6.99 4.68 -7.98 3.36 -9 2 C-3.375 0 -3.375 0 0 0 Z " fill="#E4BA6D" transform="translate(485,218)"/>
<path d="M0 0 C1.66666667 1.66666667 3.33333333 3.33333333 5 5 C5.8971875 5.8353125 5.8971875 5.8353125 6.8125 6.6875 C8 8 8 8 8 10 C6.35 9.67 4.7 9.34 3 9 C2.01 6.03 1.02 3.06 0 0 Z " fill="#E7B86F" transform="translate(409,270)"/>
<path d="M0 0 C2 1 2 1 2.6875 2.9375 C3 5 3 5 2 7 C0 6 0 6 -3 4 C-3.33 4.66 -3.66 5.32 -4 6 C-4.66 5.34 -5.32 4.68 -6 4 C-4.02 2.68 -2.04 1.36 0 0 Z " fill="#EAAF50" transform="translate(451,151)"/>
<path d="M0 0 C2.64 0.33 5.28 0.66 8 1 C7.67 2.65 7.34 4.3 7 6 C7.66 6 8.32 6 9 6 C8.67 6.99 8.34 7.98 8 9 C6.66368764 7.6905332 5.33102075 6.37734515 4 5.0625 C3.2575 4.33160156 2.515 3.60070312 1.75 2.84765625 C0 1 0 1 0 0 Z " fill="#ECB570" transform="translate(148,80)"/>
<path d="M0 0 C3.3 0 6.6 0 10 0 C8.02 0.99 8.02 0.99 6 2 C6 2.99 6 3.98 6 5 C4.02 4.01 2.04 3.02 0 2 C0 1.34 0 0.68 0 0 Z " fill="#DFB970" transform="translate(126,67)"/>
<path d="M0 0 C0.33 0.66 0.66 1.32 1 2 C1.66 2 2.32 2 3 2 C3.144375 3.11375 3.28875 4.2275 3.4375 5.375 C3.78372035 8.82142047 3.78372035 8.82142047 5 11 C4.01 12.485 4.01 12.485 3 14 C-0.44419134 4.58997722 -0.44419134 4.58997722 0 0 Z " fill="#E9AF64" transform="translate(312,359)"/>
<path d="M0 0 C2.31 0.66 4.62 1.32 7 2 C7.12375 2.804375 7.2475 3.60875 7.375 4.4375 C7.684375 5.7059375 7.684375 5.7059375 8 7 C8.66 7.33 9.32 7.66 10 8 C9.01 8 8.02 8 7 8 C5 5.6875 5 5.6875 3 3 C2.01769502 1.9826127 1.02530403 0.97403883 0 0 Z " fill="#E9B762" transform="translate(293,325)"/>
<path d="M0 0 C1.65 0.33 3.3 0.66 5 1 C3.9375 2.9375 3.9375 2.9375 2 5 C-1.6875 5.75 -1.6875 5.75 -5 6 C-3 3 -3 3 0 2 C0 1.34 0 0.68 0 0 Z " fill="#E5AA4E" transform="translate(177,316)"/>
<path d="M0 0 C0.33 0.99 0.66 1.98 1 3 C1.66 3 2.32 3 3 3 C2.67 3.99 2.34 4.98 2 6 C1.34 6 0.68 6 0 6 C-0.33 6.99 -0.66 7.98 -1 9 C-1.66 8.67 -2.32 8.34 -3 8 C-1.125 2.25 -1.125 2.25 0 0 Z " fill="#E4C288" transform="translate(81,289)"/>
<path d="M0 0 C0 0.99 0 1.98 0 3 C-2.31 4.32 -4.62 5.64 -7 7 C-7.33 6.01 -7.66 5.02 -8 4 C-6.68 4 -5.36 4 -4 4 C-4.33 3.01 -4.66 2.02 -5 1 C-3 0 -3 0 0 0 Z " fill="#EAAD56" transform="translate(472,227)"/>
<path d="M0 0 C1.65 0 3.3 0 5 0 C1.25 6.875 1.25 6.875 -1 8 C-0.67 5.36 -0.34 2.72 0 0 Z " fill="#E8B661" transform="translate(371,140)"/>
<path d="M0 0 C0.84062397 3.09773244 1.08935201 5.78332751 1 9 C-0.98 9.99 -2.96 10.98 -5 12 C-4.731875 11.505 -4.46375 11.01 -4.1875 10.5 C-2.56124507 7.0763054 -1.30484829 3.55867715 0 0 Z " fill="#E8B15B" transform="translate(351,51)"/>
<path d="M0 0 C0.66 0 1.32 0 2 0 C4.28571429 8.42857143 4.28571429 8.42857143 4 13 C3.01 12.67 2.02 12.34 1 12 C1.01740234 11.07767578 1.01740234 11.07767578 1.03515625 10.13671875 C1.04417969 9.32847656 1.05320312 8.52023438 1.0625 7.6875 C1.07410156 6.88699219 1.08570313 6.08648437 1.09765625 5.26171875 C1.09657855 2.83138666 1.09657855 2.83138666 0 0 Z " fill="#E19F37" transform="translate(355,25)"/>
<path d="M0 0 C2 1 4 2 6 3 C6 3.66 6 4.32 6 5 C6.99 5.33 7.98 5.66 9 6 C7.68 6.33 6.36 6.66 5 7 C4.67 6.34 4.34 5.68 4 5 C1.98330173 3.86649466 1.98330173 3.86649466 0 3 C0 2.01 0 1.02 0 0 Z " fill="#E8B767" transform="translate(380,240)"/>
<path d="M0 0 C1.32 0 2.64 0 4 0 C4 0.66 4 1.32 4 2 C5.32 2.66 6.64 3.32 8 4 C8 4.66 8 5.32 8 6 C9.32 6.33 10.64 6.66 12 7 C10.1875 7.6875 10.1875 7.6875 8 8 C6.25 6.6875 6.25 6.6875 5 5 C5 4.34 5 3.68 5 3 C2.525 2.01 2.525 2.01 0 1 C0 0.67 0 0.34 0 0 Z " fill="#E7BA67" transform="translate(120,146)"/>
<path d="M0 0 C2.31082041 4.45658222 4 7.90360271 4 13 C3.34 13 2.68 13 2 13 C2 11.35 2 9.7 2 8 C1.34 8 0.68 8 0 8 C0 5.36 0 2.72 0 0 Z " fill="#E8B25B" transform="translate(231,60)"/>
<path d="M0 0 C2.475 0.99 2.475 0.99 5 2 C5 2.66 5 3.32 5 4 C1.04 3.67 -2.92 3.34 -7 3 C-7 2.67 -7 2.34 -7 2 C-3.535 1.505 -3.535 1.505 0 1 C0 0.67 0 0.34 0 0 Z " fill="#E4C27E" transform="translate(417,364)"/>
<path d="M0 0 C2.46696805 2.11172465 3.85118258 3.37038784 4.609375 6.578125 C4.65578125 7.45984375 4.7021875 8.3415625 4.75 9.25 C4.80671875 10.14203125 4.8634375 11.0340625 4.921875 11.953125 C4.94765625 12.62859375 4.9734375 13.3040625 5 14 C2.42853943 11.42853943 2.19882003 9.3949583 1.375 5.875 C1.11460937 4.77929688 0.85421875 3.68359375 0.5859375 2.5546875 C0.39257812 1.71164062 0.19921875 0.86859375 0 0 Z " fill="#E8B96A" transform="translate(307,344)"/>
<path d="M0 0 C0.99 0 1.98 0 3 0 C1.73058503 3.91402949 0.48832306 5.79072873 -3 8 C-2.37240135 5.07120629 -1.41377341 2.63904371 0 0 Z " fill="#E6AC55" transform="translate(246,325)"/>
<path d="M0 0 C2.31 0 4.62 0 7 0 C5.5625 2 5.5625 2 3 4 C-0.02824418 4.35442445 -2.96485939 4.23347235 -6 4 C-6 3.67 -6 3.34 -6 3 C-4.02 2.67 -2.04 2.34 0 2 C0 1.34 0 0.68 0 0 Z " fill="#ED9A26" transform="translate(448,299)"/>
<path d="M0 0 C1.32 0 2.64 0 4 0 C4 0.66 4 1.32 4 2 C5.65 2 7.3 2 9 2 C9.33 3.32 9.66 4.64 10 6 C8.68 5.67 7.36 5.34 6 5 C6 4.34 6 3.68 6 3 C5.38125 2.87625 4.7625 2.7525 4.125 2.625 C2 2 2 2 0 0 Z " fill="#E5B464" transform="translate(395,287)"/>
<path d="M0 0 C5.4611399 0.35233161 5.4611399 0.35233161 8 1 C9.5 3.0625 9.5 3.0625 10 5 C2.42857143 3.14285714 2.42857143 3.14285714 0 0 Z " fill="#E6B668" transform="translate(385,282)"/>
<path d="M0 0 C3.58697577 -0.19927643 6.00095064 -0.0683099 9 2 C10.25 4.125 10.25 4.125 11 6 C7.2089881 4.55049545 3.6125362 2.84827434 0 1 C0 0.67 0 0.34 0 0 Z " fill="#E6B164" transform="translate(127,219)"/>
<path d="M0 0 C3.3 0.33 6.6 0.66 10 1 C10.33 2.32 10.66 3.64 11 5 C10.29875 4.71125 9.5975 4.4225 8.875 4.125 C5.94547497 2.97866412 2.99078347 1.97374346 0 1 C0 0.67 0 0.34 0 0 Z " fill="#E6AF5C" transform="translate(107,139)"/>
<path d="M0 0 C0 0.66 0 1.32 0 2 C-1.58086048 2.36504603 -3.16483907 2.71660506 -4.75 3.0625 C-5.63171875 3.25972656 -6.5134375 3.45695312 -7.421875 3.66015625 C-9.98679028 3.99825872 -11.57091639 3.81158635 -14 3 C-12.4188708 2.49307308 -10.83498617 1.99473557 -9.25 1.5 C-7.92742187 1.08234375 -7.92742187 1.08234375 -6.578125 0.65625 C-4 0 -4 0 0 0 Z " fill="#E7B667" transform="translate(378,112)"/>
<path d="M0 0 C0.33 0 0.66 0 1 0 C1 3.96 1 7.92 1 12 C0.34 12 -0.32 12 -1 12 C-1.33 10.02 -1.66 8.04 -2 6 C-1.34 6 -0.68 6 0 6 C0 4.02 0 2.04 0 0 Z " fill="#E1B05F" transform="translate(192,400)"/>
<path d="M0 0 C0.66 0.33 1.32 0.66 2 1 C0.3125 4 0.3125 4 -2 7 C-4.75 7.375 -4.75 7.375 -7 7 C-4.66666667 4.66666667 -2.33333333 2.33333333 0 0 Z " fill="#E8B364" transform="translate(162,240)"/>
<path d="M0 0 C1 2 1 2 0.22265625 4.3828125 C-0.16019531 5.28773438 -0.54304688 6.19265625 -0.9375 7.125 C-1.31777344 8.03507812 -1.69804687 8.94515625 -2.08984375 9.8828125 C-2.39019531 10.58148438 -2.69054687 11.28015625 -3 12 C-4.46538911 7.57452487 -3.0196077 5.11689261 -1 1 C-0.67 0.67 -0.34 0.34 0 0 Z " fill="#E6B567" transform="translate(290,333)"/>
<path d="M0 0 C-3.63 1.32 -7.26 2.64 -11 4 C-11.33 3.34 -11.66 2.68 -12 2 C-11.01 2 -10.02 2 -9 2 C-9 1.34 -9 0.68 -9 0 C-3.375 -1.125 -3.375 -1.125 0 0 Z " fill="#E5AE5D" transform="translate(396,235)"/>
<path d="M0 0 C-2 2 -2 2 -4.625 2.125 C-5.40875 2.08375 -6.1925 2.0425 -7 2 C-7 2.66 -7 3.32 -7 4 C-7.66 3.67 -8.32 3.34 -9 3 C-9 2.34 -9 1.68 -9 1 C-5.57367167 -0.61798838 -3.61944899 -1.34053666 0 0 Z " fill="#E7B455" transform="translate(93,199)"/>
<path d="M0 0 C0.99 0.33 1.98 0.66 3 1 C3 2.66666667 3 4.33333333 3 6 C1.68 6 0.36 6 -1 6 C-1.042721 4.33388095 -1.04063832 2.66617115 -1 1 C-0.67 0.67 -0.34 0.34 0 0 Z " fill="#ED9922" transform="translate(395,355)"/>
<path d="M0 0 C0.33 1.32 0.66 2.64 1 4 C0.01 4 -0.98 4 -2 4 C-2 4.99 -2 5.98 -2 7 C-3.32 6.67 -4.64 6.34 -6 6 C-4.02 4.02 -2.04 2.04 0 0 Z " fill="#EDC78F" transform="translate(144,316)"/>
<path d="M0 0 C4.455 1.98 4.455 1.98 9 4 C5.06329512 5.31223496 2.87511856 4.24296256 -1 3 C-0.67 2.01 -0.34 1.02 0 0 Z " fill="#E8AE5E" transform="translate(429,290)"/>
<path d="M0 0 C1.32 0 2.64 0 4 0 C4 0.66 4 1.32 4 2 C5.98 2 7.96 2 10 2 C9.67 2.99 9.34 3.98 9 5 C5.22454612 3.90931332 2.52956528 3.0916909 0 0 Z " fill="#EABB6B" transform="translate(138,225)"/>
<path d="M0 0 C0.33 1.32 0.66 2.64 1 4 C-2 6 -2 6 -4.1875 5.625 C-4.785625 5.41875 -5.38375 5.2125 -6 5 C-4.02 3.35 -2.04 1.7 0 0 Z " fill="#E8B869" transform="translate(406,96)"/>
<path d="M0 0 C0.66 0 1.32 0 2 0 C1.01 2.97 0.02 5.94 -1 9 C-1.33 9 -1.66 9 -2 9 C-2.125 5.625 -2.125 5.625 -2 2 C-1.34 1.34 -0.68 0.68 0 0 Z " fill="#E8A855" transform="translate(357,66)"/>
<path d="M0 0 C1.64826111 2.96687001 2.44271087 5.65626525 3 9 C0.33264727 6.51047079 -1.55746343 4.36591866 -3 1 C-2.01 0.67 -1.02 0.34 0 0 Z " fill="#E9B662" transform="translate(263,412)"/>
<path d="M0 0 C2 3 2 3 2 6 C-2.875 4.25 -2.875 4.25 -4 2 C-2.68 1.34 -1.36 0.68 0 0 Z " fill="#EFB05B" transform="translate(339,400)"/>
<path d="M0 0 C-3.96 1.98 -3.96 1.98 -8 4 C-8.33 3.01 -8.66 2.02 -9 1 C-5.19495213 -0.79682816 -4.29399165 -1.07349791 0 0 Z " fill="#EBB663" transform="translate(157,328)"/>
<path d="M0 0 C-2.39509338 2.89932357 -4.31245243 3.50168276 -8 4 C-7.67 3.01 -7.34 2.02 -7 1 C-4.53721199 -0.231394 -2.7204945 -0.07159196 0 0 Z " fill="#EAB96E" transform="translate(204,311)"/>
<path d="M0 0 C0.33 0.99 0.66 1.98 1 3 C0 5 0 5 -2 7 C-2.99 6.67 -3.98 6.34 -5 6 C-3.35 4.02 -1.7 2.04 0 0 Z " fill="#ECB35F" transform="translate(91,275)"/>
<path d="M0 0 C2.97 0 5.94 0 9 0 C9.33 0.99 9.66 1.98 10 3 C3.375 2.25 3.375 2.25 0 0 Z " fill="#E6B152" transform="translate(102,209)"/>
<path d="M0 0 C0.99 0 1.98 0 3 0 C2.25 4.75 2.25 4.75 0 7 C0 5.68 0 4.36 0 3 C-0.66 2.67 -1.32 2.34 -2 2 C-1.34 1.34 -0.68 0.68 0 0 Z " fill="#E5BD6E" transform="translate(466,138)"/>
<path d="M0 0 C1.65 0.33 3.3 0.66 5 1 C3.35 2.65 1.7 4.3 0 6 C-1.24546405 3.50907189 -0.7767578 2.58919267 0 0 Z " fill="#E8B45D" transform="translate(402,113)"/>
<path d="M0 0 C3.63 0.66 7.26 1.32 11 2 C11 2.33 11 2.66 11 3 C9.54176788 3.0270043 8.08339325 3.04639787 6.625 3.0625 C5.81289062 3.07410156 5.00078125 3.08570312 4.1640625 3.09765625 C2 3 2 3 0 2 C0 1.34 0 0.68 0 0 Z " fill="#E8B461" transform="translate(139,68)"/>
<path d="M0 0 C2.5 1.375 2.5 1.375 5 3 C5 3.66 5 4.32 5 5 C3.35 4.67 1.7 4.34 0 4 C0 2.68 0 1.36 0 0 Z " fill="#EC992E" transform="translate(341,402)"/>
<path d="M0 0 C0.33 0.66 0.66 1.32 1 2 C1.66 2 2.32 2 3 2 C3.99 3.485 3.99 3.485 5 5 C4.67 5.99 4.34 6.98 4 8 C3.34 7.67 2.68 7.34 2 7 C2 6.01 2 5.02 2 4 C1.34 4 0.68 4 0 4 C0 2.68 0 1.36 0 0 Z " fill="#E8B05C" transform="translate(341,397)"/>
<path d="M0 0 C2.45823172 3.68734758 3.01242616 6.69699971 4 11 C3.01 11 2.02 11 1 11 C0.67 7.37 0.34 3.74 0 0 Z " fill="#E8BB75" transform="translate(332,378)"/>
<path d="M0 0 C2 3 2 3 3 6 C0.0280615 4.87548273 -2.33440687 3.77706209 -5 2 C-3.35 1.34 -1.7 0.68 0 0 Z " fill="#ECAD5F" transform="translate(341,308)"/>
<path d="M0 0 C2.97 0 5.94 0 9 0 C6.08235 1.9451 4.37462715 2.45276317 1 3 C0.67 2.01 0.34 1.02 0 0 Z " fill="#E7B05D" transform="translate(429,172)"/>
<path d="M0 0 C2.97 0.99 5.94 1.98 9 3 C8.01 3.66 7.02 4.32 6 5 C6 4.34 6 3.68 6 3 C4.35 3 2.7 3 1 3 C0.67 2.01 0.34 1.02 0 0 Z " fill="#ECB462" transform="translate(157,150)"/>
<path d="M0 0 C1.65 0 3.3 0 5 0 C5.33 0.99 5.66 1.98 6 3 C3.69 2.67 1.38 2.34 -1 2 C-0.67 1.34 -0.34 0.68 0 0 Z " fill="#E99B27" transform="translate(90,133)"/>
<path d="M0 0 C2.45823172 3.68734758 3.01242616 6.69699971 4 11 C3.01 10.67 2.02 10.34 1 10 C0.67 6.7 0.34 3.4 0 0 Z " fill="#E5B564" transform="translate(238,84)"/>
<path d="M0 0 C5.875 3.75 5.875 3.75 7 6 C4.625 5.8125 4.625 5.8125 2 5 C0.6875 2.4375 0.6875 2.4375 0 0 Z " fill="#EAB975" transform="translate(163,78)"/>
</svg>
