<?xml version="1.0" encoding="UTF-8"?>
<svg version="1.1" xmlns="http://www.w3.org/2000/svg" width="4448" height="3600">
<path d="M0 0 C1467.84 0 2935.68 0 4448 0 C4448 1188 4448 2376 4448 3600 C2980.16 3600 1512.32 3600 0 3600 C0 2412 0 1224 0 0 Z " fill="#FEFEFE" transform="translate(0,0)"/>
<path d="M0 0 C0.72445312 0.72574219 1.44890625 1.45148437 2.1953125 2.19921875 C3.93481687 3.93630042 5.67877282 5.66895135 7.4296875 7.39453125 C11.7580626 11.67450599 15.94543877 15.98974349 19.8984375 20.6171875 C22.2184495 23.24768438 24.61378507 25.79593019 27.02075195 28.34667969 C33.31414429 35.01875278 39.27865993 41.82668959 45 49 C45.99145868 50.20219862 46.98509829 51.40260067 47.98046875 52.6015625 C83.0406877 94.95868619 110.36387737 143.35249011 129 195 C129.28069336 195.76747559 129.56138672 196.53495117 129.85058594 197.32568359 C131.37266529 201.51087405 132.74002061 205.72979749 134 210 C134.4014624 211.35230713 134.4014624 211.35230713 134.81103516 212.73193359 C144.38309054 245.43341325 146.72300956 277.91827351 147.53515625 311.796875 C147.55631752 312.66838951 147.57747879 313.53990402 147.59928131 314.43782806 C148.06138931 333.84368974 148.22078174 353.24727093 148.24023438 372.65820312 C148.24464073 376.39332728 148.25867628 380.12822328 148.28125 383.86328125 C148.49036681 419.33596838 145.98192203 453.91050704 141.25 489.0625 C140.89667975 491.73785656 140.54649178 494.41362123 140.19604492 497.08935547 C138.54755396 509.6408341 136.84419296 522.18442502 135.09765625 534.72265625 C129.68753332 573.61318024 124.53515463 612.41986335 124.5625 651.75 C124.56218781 652.75597229 124.56187561 653.76194458 124.56155396 654.79840088 C124.60924059 674.82059457 125.52229014 695.01891665 129.8203125 714.62890625 C130.10696777 715.94012451 130.10696777 715.94012451 130.39941406 717.27783203 C130.6967041 718.62530518 130.6967041 718.62530518 131 720 C131.20077148 720.93827637 131.40154297 721.87655273 131.60839844 722.84326172 C142.84810123 777.88434423 142.84810123 777.88434423 169 826 C171.41504874 827.04764427 171.41504874 827.04764427 174 827 C175.91877551 826.03195368 175.91877551 826.03195368 177.5625 824.3125 C178.24828125 823.66023437 178.9340625 823.00796875 179.640625 822.3359375 C180.80851562 821.17964844 180.80851562 821.17964844 182 820 C182.92296875 819.12601563 183.8459375 818.25203125 184.796875 817.3515625 C191.7749253 810.66311961 197.79810291 803.4881726 203.63232422 795.79541016 C205.93193013 792.77661296 208.27869893 789.79505838 210.625 786.8125 C211.08471191 786.22742676 211.54442383 785.64235352 212.01806641 785.03955078 C218.18593747 777.20373599 224.52192068 769.5183842 231 761.9375 C231.46204834 761.39609375 231.92409668 760.8546875 232.40014648 760.296875 C240.1062232 751.32399121 248.11543559 742.72014184 256.4934082 734.3762207 C258.06774155 732.8072764 259.63661589 731.23301442 261.20507812 729.65820312 C266.63119885 724.22813058 272.1429568 718.96750726 278 714 C279.15648395 712.99003744 280.31145441 711.97833897 281.46484375 710.96484375 C295.30152299 698.8832245 309.49541173 687.2687458 324 676 C325.41284997 674.89985459 326.82560592 673.79958841 328.23828125 672.69921875 C333.59977833 668.52499822 338.96597471 664.35683288 344.33203125 660.18847656 C349.55730588 656.129009 354.78042088 652.06678864 360 648 C360.62358398 647.5143457 361.24716797 647.02869141 361.88964844 646.52832031 C370.11100866 640.11897838 378.22920135 633.59117195 386.30859375 627.00390625 C389.29643058 624.56883821 392.29847033 622.15262587 395.3125 619.75 C403.36962603 613.31772772 411.31307189 606.75947761 419.16772461 600.08227539 C422.53793016 597.22190741 425.93999462 594.40766015 429.375 591.625 C439.10344775 583.70022067 448.52056484 575.39453729 457.81640625 566.96875 C459.81737985 565.16465216 461.8395031 563.38992983 463.875 561.625 C468.78284321 557.34410682 473.57233089 552.93519758 478.35498047 548.515625 C479.96154189 547.03543306 481.57595076 545.56422241 483.19140625 544.09375 C491.84997483 536.16186251 500.18951422 527.91796288 508.5 519.625 C509.06648254 519.06110565 509.63296509 518.4972113 510.21661377 517.91622925 C515.82976991 512.32331261 521.39754374 506.73023828 526.54589844 500.69921875 C528.74869042 498.1251032 531.06582535 495.66656888 533.375 493.1875 C538.48929769 487.64350308 543.30289521 481.90333408 548 476 C548.41185547 475.48775879 548.82371094 474.97551758 549.24804688 474.44775391 C583.75058463 431.52711577 610.36512298 383.64568419 624 330 C624.29358398 328.84854492 624.58716797 327.69708984 624.88964844 326.51074219 C628.93010781 310.28422284 631.77298168 294.03194152 633.8125 277.4375 C633.91177795 276.64376984 634.01105591 275.85003967 634.11334229 275.03225708 C637.62776334 246.45118895 638.31289008 217.84061 638.51568604 189.08856201 C638.81491813 147.52033118 638.81491813 147.52033118 642 133 C643.79077148 133.50512695 643.79077148 133.50512695 646 135 C647.30230676 137.65280543 648.35466863 140.15162945 649.34765625 142.91796875 C649.79601585 144.12044502 649.79601585 144.12044502 650.25343323 145.34721375 C653.53933075 154.25963256 656.52674501 163.27187748 659.4375 172.3125 C659.71658203 173.17452026 659.99566406 174.03654053 660.28320312 174.92468262 C665.31876064 190.50236332 669.86879744 206.15657318 674 222 C674.4956997 223.85166803 674.99177101 225.70323664 675.48828125 227.5546875 C678.22148415 237.9144555 680.2081309 248.26061023 681.69580078 258.86914062 C681.97384061 260.81675829 682.28037785 262.76025301 682.58984375 264.703125 C683.53345502 270.73672701 684.19204522 276.74559508 684.54418945 282.84179688 C684.58679303 283.5789669 684.62939661 284.31613693 684.67329121 285.07564545 C685.10891656 293.18534716 685.16405338 301.28670315 685.16796875 309.40625 C685.17119979 311.02600124 685.17456507 312.64575222 685.17805481 314.26550293 C685.18398374 317.63696974 685.18590132 321.00841117 685.18530273 324.37988281 C685.18522172 327.77902577 685.19213547 331.17803324 685.20581055 334.57714844 C685.28328878 354.14785851 685.09296856 373.51496177 683 393 C682.92901093 393.70211609 682.85802185 394.40423218 682.78488159 395.12762451 C675.28787902 469.09008304 638.96267993 543.17927791 603.49121094 607.29101562 C602.00338375 609.99385297 600.53391439 612.70585226 599.0703125 615.421875 C592.81547842 627.01615084 586.30949008 638.43838402 579.63671875 649.796875 C575.24883916 657.26611073 570.93088918 664.7752346 566.6105957 672.28369141 C563.56053487 677.57910608 560.49810498 682.86625568 557.3984375 688.1328125 C549.28208678 701.92613074 541.50612702 715.86532798 534 730 C533.48695313 730.96292969 532.97390625 731.92585937 532.4453125 732.91796875 C520.47629088 755.42823531 509.71934208 778.01971126 501 802 C500.72961914 802.73653809 500.45923828 803.47307617 500.18066406 804.23193359 C498.64662839 808.44999978 497.28233103 812.69912342 496 817 C495.660896 818.12535156 495.660896 818.12535156 495.31494141 819.2734375 C484.27111995 856.59140047 480.79306406 895.7492293 480.625 934.5 C480.61294525 936.08161926 480.61294525 936.08161926 480.60064697 937.69519043 C480.5830716 940.72419131 480.58825821 943.75224319 480.6015625 946.78125 C480.59564087 947.67994812 480.58971924 948.57864624 480.58361816 949.50457764 C480.64876785 955.4911568 481.78223218 960.44214423 484 966 C492.51642533 963.83403447 499.94398615 960.22357812 507.6875 956.125 C508.97388963 955.4517802 510.26043169 954.77885158 511.54711914 954.10620117 C522.25952189 948.48288671 532.78675066 942.54704624 543.29101562 936.54541016 C569.89101673 921.37075199 597.08570556 908.9796212 626 899 C627.1152002 898.61440918 628.23040039 898.22881836 629.37939453 897.83154297 C640.3729217 894.05360208 651.41248128 890.48767462 662.5859375 887.28125 C668.90079465 885.46444655 675.17675231 883.51718256 681.45727539 881.58569336 C688.20073823 879.52080433 694.97097988 877.56318657 701.75552368 875.63796997 C706.36976826 874.32641705 710.9814757 873.0059612 715.59375 871.6875 C717.71743901 871.08069801 719.84113708 870.47392768 721.96484375 869.8671875 C723.03976074 869.56006836 724.11467773 869.25294922 725.22216797 868.93652344 C735.03515624 866.1328125 735.03515624 866.1328125 738.2469635 865.21516418 C740.33782202 864.61776882 742.42867297 864.02034694 744.51951599 863.42289734 C748.76161507 862.21076121 753.00373518 860.99870238 757.24633789 859.78833008 C775.29700463 854.63716874 793.30546597 849.35853271 811.2487793 843.84423828 C813.08004837 843.28229592 814.91224449 842.72336561 816.74536133 842.16748047 C886.92286045 820.78982042 959.26778609 796.89708494 1017 750 C1017.89976562 749.27941406 1018.79953125 748.55882812 1019.7265625 747.81640625 C1034.42672955 735.9419539 1034.42672955 735.9419539 1048.08691406 722.91210938 C1049.86110442 721.13882467 1051.68580138 719.51268239 1053.59765625 717.890625 C1058.64479927 713.50577414 1063.34739549 708.79892375 1068.0625 704.0625 C1068.92166016 703.20720703 1069.78082031 702.35191406 1070.66601562 701.47070312 C1075.12295694 697.00695212 1079.43141955 692.47802986 1083.5402832 687.69165039 C1085.31918049 685.6301051 1087.19183395 683.66571974 1089.0625 681.6875 C1099.33960505 670.17783675 1107.89309039 657.6356596 1115.50585938 644.22949219 C1115.84708486 643.63045625 1116.18831034 643.03142032 1116.53987598 642.41423178 C1124.30042017 628.76171699 1131.37170748 614.7849537 1138.34383583 600.71790409 C1140.06075704 597.2583902 1141.78725536 593.80365932 1143.51257324 590.34832764 C1146.7520183 583.85719482 1149.98331503 577.36204426 1153.21140814 570.86525989 C1156.89801657 563.4467285 1160.59413716 556.03294994 1164.29090786 548.6194787 C1171.87090599 533.41810399 1179.43944517 518.21105412 1187 503 C1187.33 503 1187.66 503 1188 503 C1188.19946072 513.15476672 1187.60127518 523.14263558 1186.75 533.25 C1186.68342194 534.05235077 1186.61684387 534.85470154 1186.54824829 535.68136597 C1183.38963658 573.46792762 1178.40487839 611.22031407 1169 648 C1168.6280249 649.49055908 1168.6280249 649.49055908 1168.24853516 651.01123047 C1160.91353176 680.11098383 1149.5821191 707.32647613 1136 734 C1135.35635498 735.28463135 1135.35635498 735.28463135 1134.69970703 736.59521484 C1120.2576113 765.40068628 1100.83399304 791.33100074 1080.48828125 816.17529297 C1079.18131341 817.77770072 1077.88652979 819.39003018 1076.59375 821.00390625 C1072.07887776 826.62295919 1067.35228005 831.97976607 1062.42358398 837.23510742 C1059.83337438 839.99761479 1057.31021919 842.79464229 1054.84765625 845.671875 C1050.48433863 850.68287257 1045.79020545 855.35988244 1041.0847168 860.0456543 C1039.56508332 861.5599258 1038.05087483 863.0794743 1036.53710938 864.59960938 C1031.74038526 869.39961567 1026.89506883 874.09349625 1021.73657227 878.50854492 C1019.15309694 880.72736268 1016.67942309 883.05385206 1014.1875 885.375 C1009.48624815 889.72324662 1004.62750666 893.81271219 999.63671875 897.828125 C997.07579972 899.93756349 994.62876545 902.12887648 992.1875 904.375 C987.75562661 908.41417575 983.11918179 912.10313508 978.38354492 915.77294922 C974.3356498 918.920159 970.39279103 922.16332198 966.5 925.5 C961.57955853 929.71070506 956.55410206 933.75496068 951.44360352 937.73217773 C946.89063059 941.28132585 942.40674327 944.90866016 937.9375 948.5625 C931.64035288 953.7020337 925.2535352 958.69516392 918.79150391 963.62646484 C915.28403075 966.3156232 911.79963359 969.03455409 908.3125 971.75 C907.55372559 972.34071289 906.79495117 972.93142578 906.01318359 973.54003906 C904.45811188 974.75073842 902.9030994 975.96151386 901.34814453 977.17236328 C899.01302017 978.98986598 896.6766529 980.80575788 894.33984375 982.62109375 C878.64098034 994.81746825 862.98380421 1007.01858346 847.84448242 1019.90966797 C844.35768338 1022.87316191 840.82068994 1025.76246365 837.25 1028.625 C832.91679103 1032.1469115 828.98404489 1035.90938978 825.08984375 1039.90625 C823.24747827 1041.75205916 821.36730355 1043.44546669 819.375 1045.125 C808.93552775 1054.12093801 799.47945628 1064.15522171 791 1075 C790.07305352 1076.12855902 789.1431866 1077.25472351 788.2109375 1078.37890625 C768.42734634 1102.36833036 753.78210242 1129.82381143 739.79296875 1157.4609375 C738.05835561 1160.88481442 736.31122819 1164.30206628 734.5625 1167.71875 C723.9630196 1185.92593042 723.9630196 1185.92593042 721 1206 C722.81163267 1208.67431489 723.87761077 1208.95920359 727 1210 C733.09282423 1210.37748745 739.05393094 1210.01573441 745.07171631 1209.04838562 C772.72190134 1204.67741821 800.82265537 1204.56067692 828.75 1204.5625 C829.61436802 1204.56158859 830.47873604 1204.56067719 831.36929703 1204.55973816 C860.20115741 1204.53273145 888.91072085 1205.49365117 917.6875 1207.25 C918.54881027 1207.30151844 919.41012054 1207.35303688 920.29753113 1207.40611649 C941.51835567 1208.67615021 962.50507057 1210.57040071 983.56210327 1213.52282715 C988.77169165 1214.24590708 993.98836741 1214.90863214 999.20703125 1215.5625 C1000.15749832 1215.68181885 1001.10796539 1215.8011377 1002.0872345 1215.92407227 C1030.3357919 1219.44653164 1058.59265616 1222.15156281 1087 1224 C1088.36520782 1224.09087891 1088.36520782 1224.09087891 1089.75799561 1224.18359375 C1119.14498066 1226.12026607 1148.56149753 1226.20228878 1178.00001144 1226.24497986 C1180.9653589 1226.24994203 1183.93068705 1226.25785959 1186.89602661 1226.26623535 C1224.81488085 1226.39715167 1224.81488085 1226.39715167 1262.375 1221.625 C1264.14399658 1221.29302612 1264.14399658 1221.29302612 1265.94873047 1220.9543457 C1269.30227301 1220.31783828 1272.65141517 1219.66201543 1276 1219 C1276.84755859 1218.83773926 1277.69511719 1218.67547852 1278.56835938 1218.50830078 C1291.61938325 1215.99099971 1304.22361281 1212.04797485 1316.87109375 1207.99951172 C1319.68087874 1207.10194151 1322.49568158 1206.22282073 1325.3125 1205.34765625 C1367.15600363 1192.12471888 1405.40238284 1172.2414753 1439 1144 C1439.7429834 1143.37641602 1439.7429834 1143.37641602 1440.50097656 1142.74023438 C1443.77607219 1139.98890949 1447.03898895 1137.22358858 1450.29541016 1134.45019531 C1452.02119329 1132.98196961 1453.75074272 1131.51826467 1455.48046875 1130.0546875 C1462.51457944 1124.08433831 1469.36591932 1117.95581296 1476.1171875 1111.66796875 C1478.38235593 1109.57161369 1480.66514567 1107.51735322 1483 1105.5 C1490.95590824 1098.60600324 1498.67129777 1091.43027403 1506.0480957 1083.9206543 C1507.87953689 1082.1185345 1509.76123621 1080.43407666 1511.7109375 1078.76171875 C1516.03310926 1075.00614432 1520.17238464 1071.07883399 1524.3125 1067.125 C1529.99808179 1061.72749267 1535.73816648 1056.55305458 1541.8984375 1051.69921875 C1543.99893291 1050.07309465 1543.99893291 1050.07309465 1545.6640625 1048.26953125 C1547 1047 1547 1047 1549 1047 C1546.92804506 1053.84782681 1544.1867968 1060.1964789 1541.0625 1066.625 C1540.34006104 1068.12063477 1540.34006104 1068.12063477 1539.60302734 1069.64648438 C1531.42940731 1086.45264986 1522.62579272 1102.87746261 1513.35546875 1119.1015625 C1511.03576807 1123.1632528 1508.75023474 1127.24180793 1506.48828125 1131.3359375 C1496.46794588 1149.46186813 1486.2807791 1167.05253238 1473 1183 C1472.55301758 1183.54317871 1472.10603516 1184.08635742 1471.64550781 1184.64599609 C1460.71640311 1197.91592776 1448.88601023 1210.28387129 1436.71679688 1222.41357422 C1434.73449756 1224.3904601 1432.75767367 1226.37271039 1430.78125 1228.35546875 C1424.69198195 1234.44840905 1418.61102015 1240.46771855 1412 1246 C1410.7811014 1247.06102723 1409.56235439 1248.12222863 1408.34375 1249.18359375 C1334.29096946 1312.39348414 1234.47796583 1342.90467931 1132.25932312 1370.51271057 C1126.05224881 1372.17510755 1119.85258264 1373.85966891 1113.6640625 1375.58984375 C1107.45942892 1377.3243536 1101.24529086 1379.01971352 1095.0234375 1380.69140625 C1030.95115977 1397.92699622 970.35782493 1415.88020831 917 1457 C916.19296631 1457.6177832 916.19296631 1457.6177832 915.36962891 1458.24804688 C905.93469828 1465.48267226 896.90603106 1473.12625304 888 1481 C887.04738281 1481.83917969 886.09476563 1482.67835937 885.11328125 1483.54296875 C880.56158174 1487.59279634 876.19461566 1491.76354759 871.92578125 1496.109375 C870.03854743 1497.96215628 868.08284268 1499.66946417 866.0625 1501.375 C859.62797058 1506.93554807 850.7090222 1514.67293848 848 1523 C848.78090122 1525.54870827 849.59413341 1526.70465958 851.75 1528.2734375 C864.92083112 1534.7216569 878.84245606 1538.26223198 893.021698 1541.68115234 C909.81455417 1545.74037503 925.90861157 1550.63096094 942 1557 C943.21397461 1557.47920898 944.42794922 1557.95841797 945.67871094 1558.45214844 C965.5272021 1566.34221188 984.74196242 1575.42986953 1003.85900879 1584.93701172 C1006.04064816 1586.02018155 1008.22454062 1587.09867541 1010.40917969 1588.17578125 C1026.87537014 1596.29569418 1043.20620104 1604.57273638 1059.25830078 1613.49023438 C1063.35472939 1615.74600592 1067.47991279 1617.94726994 1071.60327148 1620.15332031 C1081.88582575 1625.65561998 1092.09736966 1631.26327332 1102.23486328 1637.02832031 C1113.10801964 1643.21105878 1124.05096813 1649.26669553 1134.99121094 1655.32958984 C1137.57261461 1656.76272551 1140.15082814 1658.20124153 1142.7265625 1659.64453125 C1213.53615812 1699.29920123 1288.35165102 1736.08272565 1382 1751 C1383.22380371 1751.17789062 1384.44760742 1751.35578125 1385.70849609 1751.5390625 C1403.7167104 1754.0335355 1421.66081523 1754.2784207 1439.8125 1754.3125 C1441.48516434 1754.31814972 1441.48516434 1754.31814972 1443.19161987 1754.32391357 C1461.18204733 1754.35474607 1478.38263618 1753.2290319 1495.98925781 1749.41650391 C1498.13043934 1748.97298087 1500.27686179 1748.58209765 1502.4296875 1748.19921875 C1516.95599152 1745.56693547 1530.93295379 1741.43918317 1545 1737 C1546.21187988 1736.62020996 1547.42375977 1736.24041992 1548.67236328 1735.84912109 C1568.51986166 1729.57725975 1587.93470984 1722.30437322 1607.3425293 1714.79150391 C1620.0320407 1709.88179584 1632.75685646 1705.09866105 1645.5625 1700.5 C1646.31761871 1700.22851135 1647.07273743 1699.95702271 1647.85073853 1699.67730713 C1652.22917675 1698.10495884 1656.60928351 1696.53779295 1661 1695 C1662.04792725 1694.62037109 1663.09585449 1694.24074219 1664.17553711 1693.84960938 C1667 1693 1667 1693 1671 1693 C1667.40633797 1701.28590467 1658.80737315 1707.12458701 1651.94140625 1712.625 C1648.80819993 1715.15486645 1645.74721491 1717.75745908 1642.6875 1720.375 C1635.94437226 1726.11509251 1629.00243283 1731.58121274 1622 1737 C1621.1961084 1737.62406738 1621.1961084 1737.62406738 1620.37597656 1738.26074219 C1594.95886377 1757.98442171 1569.25083795 1776.96417232 1541.17822266 1792.77148438 C1539.83342908 1793.52994674 1538.49134881 1794.29327151 1537.15380859 1795.06445312 C1493.25199617 1820.36678673 1440.98557321 1833.77091098 1391 1840 C1389.86949219 1840.14469727 1388.73898438 1840.28939453 1387.57421875 1840.43847656 C1312.11476738 1849.55829026 1233.84302826 1841.4523356 1159.07550049 1830.74356079 C1158.01719025 1830.5920607 1158.01719025 1830.5920607 1156.9375 1830.4375 C1156.23502136 1830.33690277 1155.53254272 1830.23630554 1154.80877686 1830.13265991 C1133.28375248 1827.07035652 1111.65271251 1824.92922627 1090 1823 C1089.04240784 1822.91429749 1088.08481567 1822.82859497 1087.09820557 1822.74029541 C1061.85575907 1820.51124102 1036.64805585 1819.7026499 1011.31741333 1819.63208389 C1009.22882883 1819.62513746 1007.14031518 1819.61349325 1005.05175781 1819.60092163 C953.30090979 1819.33132738 888.67304815 1830.28959145 845.43359375 1861.4140625 C842.6886244 1863.77263819 842.6886244 1863.77263819 842.84375 1866.9921875 C847.06272325 1877.96721927 860.70547753 1885.28067749 869.98876953 1891.61279297 C881.4140252 1899.49314047 892.18001374 1908.30467105 902.41796875 1917.6640625 C904.49086399 1919.53938981 906.58797667 1921.37141136 908.70410156 1923.19702148 C912.72779593 1926.71571038 916.54402807 1930.39879576 920.31640625 1934.18359375 C920.97656235 1934.84279312 921.63671844 1935.50199249 922.31687927 1936.1811676 C923.70035506 1937.56396835 925.08259083 1938.94801076 926.46362305 1940.33325195 C928.55731669 1942.43230343 930.65629874 1944.5259594 932.75585938 1946.61914062 C934.10969571 1947.97363786 935.46322175 1949.32844531 936.81640625 1950.68359375 C937.43326797 1951.29843124 938.0501297 1951.91326874 938.6856842 1952.54673767 C942.43615557 1956.31710173 945.9991045 1960.20584211 949.47181702 1964.23370361 C951.5547522 1966.64119076 953.71492655 1968.97423867 955.875 1971.3125 C960.01925965 1975.8517496 963.92578398 1980.53458296 967.78515625 1985.31640625 C969.95632827 1987.94708557 972.20241357 1990.47942424 974.5 1993 C979.20453862 1998.17499249 983.60699231 2003.56006057 988 2009 C989.02278358 2010.25443969 990.04626167 2011.50831335 991.0703125 2012.76171875 C996.74825589 2019.71726303 1002.37528885 2026.70710107 1007.90576172 2033.78051758 C1011.24111102 2038.04423194 1014.61252136 2042.27761007 1018 2046.5 C1021.8777107 2051.33590948 1025.73548778 2056.18635503 1029.5625 2061.0625 C1030.01455811 2061.63830811 1030.46661621 2062.21411621 1030.93237305 2062.80737305 C1033.17356571 2065.66450271 1035.40986755 2068.52534099 1037.640625 2071.390625 C1043.25033524 2078.58221792 1048.98519996 2085.65629248 1054.80566406 2092.6784668 C1058.46657555 2097.10532432 1062.04488276 2101.58378201 1065.5625 2106.125 C1070.43043536 2112.39210778 1075.58587703 2118.37857566 1080.8125 2124.34765625 C1083.74733133 2127.69960754 1086.63181931 2131.09098933 1089.5 2134.5 C1098.06598438 2144.65384063 1106.69923146 2154.73720059 1115.77905273 2164.4375 C1118.37606387 2167.21554722 1120.91446121 2170.03262498 1123.41015625 2172.90234375 C1133.29750652 2184.2488582 1143.87533478 2194.9732179 1154.5 2205.625 C1155.41918213 2206.54877441 1156.33836426 2207.47254883 1157.28540039 2208.42431641 C1161.80633015 2212.93496291 1166.37915335 2217.31231537 1171.22607422 2221.47119141 C1173.81902632 2223.70585505 1176.30774107 2226.04189588 1178.8125 2228.375 C1184.35649692 2233.48929769 1190.09666592 2238.30289521 1196 2243 C1196.51224121 2243.41185547 1197.02448242 2243.82371094 1197.55224609 2244.24804688 C1201.66153549 2247.55137411 1205.81315624 2250.79556772 1210 2254 C1210.65291016 2254.50015625 1211.30582031 2255.0003125 1211.97851562 2255.515625 C1253.09335563 2286.73609794 1300.51896133 2307.53513525 1350.859375 2318.32641602 C1353.05402389 2318.79711225 1355.2465935 2319.27756183 1357.4375 2319.76538086 C1376.94604959 2324.06850016 1396.82450323 2326.12685538 1416.6953125 2327.95703125 C1417.62624474 2328.04290245 1418.55717697 2328.12877365 1419.51631927 2328.21724701 C1443.25285828 2330.37621298 1467.03578686 2331.50118205 1490.84100342 2332.59246826 C1496.64303624 2332.86058361 1502.44453361 2333.13984489 1508.24609375 2333.41796875 C1519.49691776 2333.95578139 1530.74824905 2334.48196644 1542 2335 C1541 2337 1541 2337 1539.3157959 2337.66674805 C1538.58445435 2337.86308838 1537.85311279 2338.05942871 1537.09960938 2338.26171875 C1536.27150757 2338.48980225 1535.44340576 2338.71788574 1534.59020996 2338.95288086 C1533.68387817 2339.19530518 1532.77754639 2339.43772949 1531.84375 2339.6875 C1529.91082862 2340.22168496 1527.97855593 2340.75822167 1526.046875 2341.296875 C1525.04527344 2341.57595703 1524.04367188 2341.85503906 1523.01171875 2342.14257812 C1518.26388326 2343.4942641 1513.55341813 2344.95912884 1508.84375 2346.4375 C1507.91264404 2346.72898926 1506.98153809 2347.02047852 1506.0222168 2347.32080078 C1503.18082512 2348.21180569 1500.3402723 2349.10543373 1497.5 2350 C1476.5279352 2356.60531802 1455.60542103 2362.8829054 1434.125 2367.625 C1433.26213379 2367.81732208 1432.39926758 2368.00964417 1431.51025391 2368.20779419 C1418.07192494 2371.19971877 1404.62605293 2373.99463449 1391 2376 C1390.27071289 2376.10892578 1389.54142578 2376.21785156 1388.79003906 2376.33007812 C1370.69237726 2378.97365022 1352.53243567 2379.21086962 1334.27490234 2379.24023438 C1330.66610206 2379.24989003 1327.05788515 2379.28099616 1323.44921875 2379.3125 C1300.97741572 2379.41628657 1278.95398346 2377.23593821 1256.9375 2372.75 C1256.18450623 2372.59971344 1255.43151245 2372.44942688 1254.65570068 2372.29458618 C1193.58054495 2360.07907628 1132.02440041 2335.27957372 1078.25 2303.859375 C1074.99197571 2301.99540918 1071.68778327 2300.3282627 1068.3125 2298.6875 C1059.53063756 2294.36642451 1051.10384128 2289.43441376 1042.63867188 2284.52880859 C1040.16265636 2283.09424076 1037.68351112 2281.66527517 1035.203125 2280.23828125 C1026.83478853 2275.41748721 1018.5011159 2270.53952127 1010.1875 2265.625 C1009.26485352 2265.079646 1008.34220703 2264.53429199 1007.39160156 2263.97241211 C1002.81008155 2261.26185219 998.23334397 2258.54364211 993.6640625 2255.8125 C930.64508427 2218.218181 865.70377541 2184.92060122 791.83349609 2176.44213867 C789.17519555 2176.13554192 786.52589418 2175.80801992 783.87353516 2175.45825195 C770.64186488 2173.79522654 757.45863628 2173.66076813 744.13525391 2173.68432617 C740.34639667 2173.68752414 736.55829472 2173.66380018 732.76953125 2173.63867188 C730.3333343 2173.63640175 727.89713529 2173.63569405 725.4609375 2173.63671875 C724.34206146 2173.627509 723.22318542 2173.61829926 722.07040405 2173.60881042 C715.50144997 2173.64744178 710.0735962 2174.44672104 704 2177 C706.01588998 2183.73241798 708.72939794 2189.63753561 712.1875 2195.75 C712.67871338 2196.63123535 713.16992676 2197.5124707 713.67602539 2198.42041016 C716.32526421 2203.14121797 719.05818508 2207.78987246 721.9375 2212.375 C750.9808459 2258.91504718 770.17946749 2311.70466678 786 2364 C786.20995605 2364.6919043 786.41991211 2365.38380859 786.63623047 2366.09667969 C788.13213817 2371.05269735 789.56982605 2376.0246874 791 2381 C791.28987793 2382.00240723 791.57975586 2383.00481445 791.87841797 2384.03759766 C795.53978409 2396.70268889 799.12543851 2409.38031569 802.5 2422.125 C805.39409454 2433.02852609 808.63109825 2443.80357017 812.0078125 2454.56640625 C813.47233852 2459.25134637 814.87470793 2463.95231775 816.25 2468.6640625 C829.68463124 2514.60018217 843.55998633 2560.78116194 862 2605 C862.41024414 2605.98581055 862.82048828 2606.97162109 863.24316406 2607.98730469 C872.7659468 2630.70475866 883.27357485 2652.89285932 896 2674 C896.7425 2675.23339111 896.7425 2675.23339111 897.5 2676.49169922 C903.99000905 2687.19218615 910.99321679 2697.33980853 918.64648438 2707.23779297 C920.61319184 2709.79834393 922.52110556 2712.40167688 924.4375 2715 C933.63965009 2727.24184949 943.36247332 2738.98017227 954 2750 C954.59603027 2750.61794434 955.19206055 2751.23588867 955.80615234 2751.87255859 C963.47705652 2759.7808908 971.23389895 2767.29581788 980 2774 C980.56203125 2774.43844238 981.1240625 2774.87688477 981.703125 2775.32861328 C1019.68011617 2804.93727707 1063.68270492 2825.92698201 1106.5625 2847.375 C1107.25535347 2847.72172131 1107.94820694 2848.06844261 1108.66205597 2848.42567062 C1124.49361118 2856.34720607 1140.35093027 2864.19863169 1156.34765625 2871.78295898 C1161.94127785 2874.43726427 1167.48365461 2877.18844332 1173 2880 C1173 2880.33 1173 2880.66 1173 2881 C1165.21937143 2881.15211946 1157.63345358 2880.71714826 1149.8984375 2879.8984375 C1148.75934433 2879.78157593 1147.62025116 2879.66471436 1146.44664001 2879.54431152 C1142.7552561 2879.16209747 1139.06507027 2878.76968385 1135.375 2878.375 C1134.1116684 2878.24127991 1132.84833679 2878.10755981 1131.54672241 2877.9697876 C1108.93440723 2875.56532075 1086.44569675 2872.639022 1064 2869 C1062.88882813 2868.82259277 1061.77765625 2868.64518555 1060.6328125 2868.46240234 C1028.88638262 2863.32235538 996.73704408 2855.407594 967 2843 C966.10458496 2842.62681641 965.20916992 2842.25363281 964.28662109 2841.86914062 C940.10232562 2831.69209246 917.65596739 2819.83110797 896 2805 C895.29488281 2804.51756836 894.58976562 2804.03513672 893.86328125 2803.53808594 C877.52649114 2792.27961852 862.16377807 2779.62872399 847.51171875 2766.265625 C846.13049439 2765.01973055 844.74332899 2763.77995101 843.33114624 2762.56925964 C837.88590408 2757.89169951 832.78292731 2752.92837866 827.71484375 2747.84765625 C826.85492325 2746.98869247 825.99500275 2746.1297287 825.10902405 2745.24473572 C823.30184139 2743.43822985 821.49590608 2741.63047538 819.69116211 2739.8215332 C816.94561607 2737.0706319 814.19477454 2734.32510779 811.44335938 2731.58007812 C809.6793668 2729.81542468 807.9156845 2728.05046103 806.15234375 2726.28515625 C805.33861801 2725.47345474 804.52489227 2724.66175323 803.68650818 2723.82545471 C799.45939262 2719.58113464 795.38061104 2715.26588897 791.48033142 2710.71844482 C789.26243941 2708.14380175 786.94117294 2705.67408206 784.625 2703.1875 C780.30030167 2698.51225082 776.24038329 2693.67744591 772.24609375 2688.71484375 C769.9116941 2685.89326505 767.48009402 2683.19409288 765 2680.5 C760.96045182 2676.10621452 757.15320381 2671.58161176 753.40625 2666.9375 C750.70220839 2663.63646219 747.91877143 2660.41245299 745.125 2657.1875 C740.69391746 2652.05706731 736.44269085 2646.81957913 732.2878418 2641.46386719 C728.59231791 2636.71389067 724.77994968 2632.06911184 720.9375 2627.4375 C715.96714006 2621.43765652 711.13506862 2615.36134415 706.4140625 2609.1640625 C699.39192548 2599.96029068 692.16022903 2590.92885809 684.83666992 2581.96386719 C681.33189559 2577.6657842 677.89865106 2573.3197095 674.5 2568.9375 C670.08464164 2563.26003242 665.44120736 2557.8118153 660.7019043 2552.40307617 C657.49648893 2548.74213678 654.3679868 2545.03837252 651.3125 2541.25 C647.48430904 2536.52271098 643.44860882 2532.02389024 639.33203125 2527.546875 C637.37594748 2525.41058251 635.45812303 2523.25219343 633.5625 2521.0625 C629.7735157 2516.70693861 625.87040492 2512.458253 621.95703125 2508.21484375 C619.96227364 2506.05181366 617.98224532 2503.87652554 616.01171875 2501.69140625 C599.94511038 2483.93742526 581.26158576 2470.59813114 561 2458 C560.12085937 2457.45150391 559.24171875 2456.90300781 558.3359375 2456.33789062 C512.99990786 2425.57113528 512.99990786 2425.57113528 462 2413 C460.515 2413.495 460.515 2413.495 459 2414 C458.87418673 2420.07498369 459.27687697 2425.65142472 460.3125 2431.625 C462.03106352 2442.19075333 463.02916513 2452.80907792 463.99731445 2463.46337891 C464.11421631 2464.74132324 464.23111816 2466.01926758 464.3515625 2467.3359375 C464.45291504 2468.47595215 464.55426758 2469.6159668 464.65869141 2470.79052734 C464.86930418 2472.77101057 465.13440733 2474.74758787 465.48683167 2476.70780945 C466.0667399 2480.42816449 466.34480714 2484.12936163 466.55200195 2487.88452148 C466.59404157 2488.62829513 466.63608118 2489.37206877 466.67939472 2490.138381 C467.07985248 2497.70654279 467.1639014 2505.26982036 467.16796875 2512.84765625 C467.17120424 2514.31611662 467.17456974 2515.7845767 467.17805481 2517.2530365 C467.18398077 2520.31266013 467.18590194 2523.37225582 467.18530273 2526.43188477 C467.18522221 2529.4921672 467.19205864 2532.55229759 467.20581055 2535.61254883 C467.32944331 2563.60482988 465.98998393 2591.32452153 463.1875 2619.1875 C463.10385193 2620.03763672 463.02020386 2620.88777344 462.934021 2621.76367188 C461.75311952 2633.71594264 460.30622219 2645.60868401 458.625 2657.5 C453.12474969 2696.44445659 449.19385296 2735.72812116 447 2775 C446.94886047 2775.90151794 446.89772095 2776.80303589 446.84503174 2777.73187256 C445.29655753 2805.38715257 444.7992586 2833.03519383 444.75457382 2860.72828293 C444.7500996 2863.01166912 444.74240944 2865.29502479 444.73403931 2867.57839966 C444.58648329 2914.03668267 445.44913433 2963.29461661 461.12548828 3007.50439453 C462.12807751 3010.36549645 463.07794475 3013.24191402 464.02734375 3016.12109375 C479.6923731 3063.16873726 504.14732052 3104.72092522 536.55859375 3142.16015625 C538.93000118 3144.91857738 541.22037363 3147.72804393 543.5 3150.5625 C547.62807319 3155.63751471 552.00345591 3160.44015416 556.44921875 3165.234375 C558.48401883 3167.44055947 560.47646238 3169.66632261 562.4375 3171.9375 C566.96836408 3177.15878146 571.69697996 3182.2001352 576.39746094 3187.26806641 C578.00129801 3189.00140281 579.59920374 3190.74001539 581.1953125 3192.48046875 C585.85310227 3197.55524437 590.52834708 3202.58347675 595.44140625 3207.4140625 C597.73371304 3209.7465852 599.84841236 3212.22064304 601.98046875 3214.69921875 C603.98437677 3216.98220101 606.04018236 3219.21129763 608.10913086 3221.43530273 C621 3235.31361288 621 3235.31361288 621 3239 C614.07398617 3236.91485153 607.68005204 3234.10704435 601.1875 3230.9375 C600.18340088 3230.45144287 599.17930176 3229.96538574 598.14477539 3229.46459961 C595.09306645 3227.98335796 592.04602335 3226.49289279 589 3225 C588.12279297 3224.57235352 587.24558594 3224.14470703 586.34179688 3223.70410156 C529.55533277 3195.97271641 473.08696354 3162.02736548 432 3113 C430.84564453 3111.67935547 430.84564453 3111.67935547 429.66796875 3110.33203125 C374.42969724 3046.84119515 341.50498104 2967.30768383 317.40820312 2887.64453125 C316.21953268 2883.71661187 315.01332612 2879.79441934 313.796875 2875.875 C313.1978723 2873.93751372 312.59890898 2872.00001526 312 2870.0625 C311.75797852 2869.28656494 311.51595703 2868.51062988 311.26660156 2867.71118164 C309.35859682 2861.47576391 307.71503464 2855.17694154 306.06771851 2848.8690033 C301.2266348 2830.3579275 296.06675236 2811.92985354 290.96466064 2793.48944092 C290.0173228 2790.06266129 289.07265458 2786.63515482 288.12841797 2783.20751953 C272.30786518 2723.9806518 272.30786518 2723.9806518 250 2667 C249.6488916 2666.24783203 249.2977832 2665.49566406 248.93603516 2664.72070312 C246.74440882 2660.08057911 244.42897058 2655.51999743 242 2651 C241.37738281 2649.83726562 240.75476562 2648.67453125 240.11328125 2647.4765625 C223.62357528 2617.70812779 200.46738965 2591.43573329 177 2567 C175.96987793 2565.92685547 175.96987793 2565.92685547 174.91894531 2564.83203125 C162.23507755 2549.71329888 162.23507755 2549.71329888 145.88671875 2540.92578125 C136.64825399 2546.18577671 133.59621144 2566.55581058 131 2576 C130.78585449 2576.78101074 130.57170898 2577.56202148 130.35107422 2578.36669922 C122.50310198 2606.945846 112.96844444 2634.87866418 101 2662 C100.5369043 2663.05171387 100.07380859 2664.10342773 99.59667969 2665.18701172 C87.80884899 2691.74078256 74.72853749 2717.89184792 60.54101562 2743.24316406 C58.81475262 2746.33140264 57.10216158 2749.42701406 55.390625 2752.5234375 C48.93083483 2764.19870719 42.41268187 2775.83986424 35.83740234 2787.45043945 C29.51748894 2798.61087135 23.2426469 2809.79616884 17 2821 C16.67626404 2821.58088379 16.35252808 2822.16176758 16.01898193 2822.76025391 C7.22899882 2838.53777827 -1.38549366 2854.38582996 -9.66796875 2870.4375 C-10.91822507 2872.84268518 -12.18778261 2875.2360576 -13.46875 2877.625 C-26.42905684 2901.81232037 -37.68132334 2926.59118326 -48 2952 C-48.49298584 2953.19270508 -48.98597168 2954.38541016 -49.49389648 2955.61425781 C-53.44412967 2965.27765939 -56.81202476 2975.08201754 -60.0625 2985 C-60.57052901 2986.53920599 -61.07899157 2988.07826895 -61.58789062 2989.6171875 C-62.58323549 2992.62873606 -63.57613906 2995.64107168 -64.56713867 2998.65405273 C-66.33235889 3004.01599798 -68.12207576 3009.36968792 -69.91357422 3014.72290039 C-71.70383021 3020.12303661 -73.40482971 3025.53911462 -75 3031 C-75.3403125 3032.10472656 -75.680625 3033.20945312 -76.03125 3034.34765625 C-83.47296779 3060.7037401 -82.48308789 3088.88917613 -82.39111328 3116.01123047 C-82.37399955 3121.10826924 -82.38420299 3126.20483888 -82.40142918 3131.30186176 C-82.48887624 3161.74306386 -81.2247458 3190.48547396 -73 3220 C-72.72591309 3220.98629395 -72.45182617 3221.97258789 -72.16943359 3222.98876953 C-62.13038792 3258.42990651 -48.14018903 3292.80765706 -35.17578125 3327.25439453 C-34.91892862 3327.93695375 -34.662076 3328.61951298 -34.39743996 3329.32275581 C-33.18426034 3332.54626967 -31.97020081 3335.76944479 -30.75473022 3338.99209595 C-29.89880899 3341.26410832 -29.04602602 3343.53730639 -28.19696045 3345.81188965 C-27.3969535 3347.94271229 -26.58341688 3350.06850269 -25.75665283 3352.18908691 C-25.38014587 3353.17244019 -25.00363892 3354.15579346 -24.61572266 3355.16894531 C-24.2793277 3356.03142883 -23.94293274 3356.89391235 -23.59634399 3357.78253174 C-23 3360 -23 3360 -24 3363 C-24.51046875 3362.42894531 -25.0209375 3361.85789062 -25.546875 3361.26953125 C-29.93438743 3356.3763658 -34.35234342 3351.51442422 -38.8125 3346.6875 C-39.31595947 3346.142146 -39.81941895 3345.59679199 -40.33813477 3345.03491211 C-42.92269906 3342.23792906 -45.51441445 3339.44801793 -48.1171875 3336.66796875 C-53.51602508 3330.88698068 -58.71582829 3325.03393572 -63.66796875 3318.859375 C-65.82682514 3316.212335 -68.04303735 3313.63350032 -70.2890625 3311.06103516 C-77.29695484 3303.01768181 -83.73484875 3294.63089847 -90 3286 C-90.495 3285.32066406 -90.99 3284.64132813 -91.5 3283.94140625 C-136.41056402 3222.07242614 -161.8294686 3150.26786699 -171.30761719 3074.71411133 C-171.62702787 3072.17135662 -171.95369531 3069.62960778 -172.28125 3067.08789062 C-172.49261223 3065.42713733 -172.70356423 3063.76633177 -172.9140625 3062.10546875 C-173.05625717 3060.99875069 -173.05625717 3060.99875069 -173.20132446 3059.86967468 C-174.5834501 3048.77792768 -175.15816614 3037.80622914 -175.16796875 3026.62890625 C-175.17119996 3025.258214 -175.17456524 3023.88752206 -175.17805481 3022.51683044 C-175.1840037 3019.65012825 -175.18589969 3016.78345596 -175.18530273 3013.91674805 C-175.18522238 3011.04428688 -175.19202461 3008.17198829 -175.20581055 3005.29956055 C-175.34694589 2975.30214201 -173.10630338 2945.76920538 -169.5130043 2915.9985199 C-169.24479835 2913.76926528 -168.97966715 2911.53966411 -168.71542358 2909.30993652 C-166.5372367 2890.94098499 -164.18533163 2872.61184633 -161.44848633 2854.31665039 C-159.34290756 2840.18489529 -157.7122253 2826.02472632 -156.25 2811.8125 C-156.14885895 2810.83091919 -156.0477179 2809.84933838 -155.94351196 2808.8380127 C-153.8682636 2788.5509773 -151.93014849 2768.24372954 -150.875 2747.875 C-150.83297455 2747.07426056 -150.7909491 2746.27352112 -150.74765015 2745.44851685 C-150.03389813 2731.44537391 -149.81161319 2717.45761648 -149.8125 2703.4375 C-149.81159363 2702.52216492 -149.81068726 2701.60682983 -149.80975342 2700.66375732 C-149.65574772 2674.43937623 -149.65574772 2674.43937623 -152.5625 2648.4375 C-152.73394531 2647.45813477 -152.90539063 2646.47876953 -153.08203125 2645.46972656 C-158.43039687 2616.65902056 -169.63507391 2556.36492609 -191 2535 C-194.09528949 2534.39604108 -196.15220657 2534.43722492 -198.82421875 2536.2109375 C-200.96905151 2538.06428183 -202.98659736 2540.00447838 -205 2542 C-205.79792969 2542.76054687 -206.59585937 2543.52109375 -207.41796875 2544.3046875 C-213.45723177 2550.16604975 -218.76463149 2556.42286252 -224 2563 C-225.6147992 2564.99168879 -227.23457354 2566.97927045 -228.85449219 2568.96679688 C-232.95362856 2573.9963833 -237.03785038 2579.03549516 -241.0625 2584.125 C-253.42866111 2599.58915554 -266.91001 2613.9780045 -280.875 2628 C-282.05171265 2629.18372192 -282.05171265 2629.18372192 -283.25219727 2630.39135742 C-287.43505447 2634.56268305 -291.70064401 2638.56918161 -296.17773438 2642.42285156 C-298.78311499 2644.67777637 -301.29115204 2647.02644372 -303.8125 2649.375 C-308.4069714 2653.62040478 -313.14113259 2657.6272375 -318.015625 2661.55078125 C-321.5927663 2664.48647182 -325.07734259 2667.51874373 -328.5625 2670.5625 C-333.39109538 2674.77115131 -338.2601766 2678.89099732 -343.29296875 2682.85546875 C-346.80734684 2685.63958646 -350.27616958 2688.47806764 -353.75 2691.3125 C-359.38231183 2695.9000556 -365.05462474 2700.43011763 -370.77807617 2704.90332031 C-375.06622636 2708.25699058 -379.31882174 2711.65278922 -383.5625 2715.0625 C-388.7151246 2719.19836826 -393.91121623 2723.26902777 -399.15869141 2727.28369141 C-404.89537077 2731.67509757 -410.56866934 2736.14577608 -416.24267578 2740.61767578 C-417.97020902 2741.97656619 -419.70125465 2743.33083709 -421.43359375 2744.68359375 C-429.76811904 2751.19745881 -437.99939203 2757.83136955 -446.19140625 2764.5234375 C-447.7923548 2765.83047541 -449.39597976 2767.13423356 -451 2768.4375 C-456.4429572 2772.867814 -461.8203584 2777.36860827 -467.16479492 2781.91674805 C-470.56982797 2784.80918463 -474.01743763 2787.63828926 -477.5 2790.4375 C-482.2549105 2794.30390167 -486.76661645 2798.38528868 -491.234375 2802.57592773 C-494.08816502 2805.25135588 -496.97807301 2807.8699777 -499.9296875 2810.4375 C-511.80339907 2820.78025767 -522.98266067 2831.88236109 -534.125 2843 C-534.66365692 2843.53606873 -535.20231384 2844.07213745 -535.7572937 2844.62445068 C-541.72494282 2850.56944721 -547.54478954 2856.57493566 -553 2863 C-554.04489222 2864.19184539 -555.09175641 2865.38196496 -556.140625 2866.5703125 C-578.89010652 2892.51758486 -598.40782607 2920.74432326 -615 2951 C-615.49886719 2951.90588867 -615.99773437 2952.81177734 -616.51171875 2953.74511719 C-636.76590471 2990.77799576 -649.94500043 3029.78766549 -654.73242188 3071.75292969 C-655.10568717 3074.88754083 -655.59320856 3078.00350089 -656.0625 3081.125 C-658.89806355 3102.96586968 -659.39625996 3125.08405752 -660.24780273 3147.06884766 C-660.77375104 3160.63390141 -661.3759084 3174.19215626 -662.0625 3187.75 C-662.87412596 3203.8294919 -663.51949165 3219.90687677 -664 3236 C-666 3235 -666 3235 -667.33764648 3231.49462891 C-667.85666555 3229.90782602 -668.36713022 3228.318211 -668.87109375 3226.7265625 C-669.14924927 3225.86847488 -669.42740479 3225.01038727 -669.71398926 3224.126297 C-670.62947831 3221.29493379 -671.53377815 3218.46013906 -672.4375 3215.625 C-673.06863401 3213.66139251 -673.70022973 3211.69793337 -674.33227539 3209.73461914 C-675.93013249 3204.76334687 -677.51777746 3199.78887559 -679.10253906 3194.81341553 C-679.9388238 3192.19177891 -680.77892188 3189.57141064 -681.62109375 3186.95166016 C-690.95049791 3157.92185501 -698.80982315 3129.06829592 -704 3099 C-704.20254395 3097.85015625 -704.40508789 3096.7003125 -704.61376953 3095.515625 C-705.86749084 3088.35998151 -707.00501004 3081.19626486 -708 3074 C-708.11859375 3073.1553418 -708.2371875 3072.31068359 -708.359375 3071.44042969 C-712.57849983 3039.55841203 -711.21891347 3005.80941398 -707 2974 C-706.79914795 2972.38134033 -706.79914795 2972.38134033 -706.59423828 2970.72998047 C-699.39064873 2913.45926059 -678.35645913 2858.94199428 -654 2807 C-653.51917969 2805.96987793 -653.03835938 2804.93975586 -652.54296875 2803.87841797 C-646.00808931 2789.91420823 -639.04658153 2776.28097371 -631.55175781 2762.80957031 C-629.36659223 2758.85316919 -627.23091912 2754.87072019 -625.09204102 2750.88916016 C-613.18073751 2728.73979512 -600.2314199 2707.23053519 -587.19921875 2685.7265625 C-579.105786 2672.34728019 -571.27105939 2658.85124836 -563.73388672 2645.15039062 C-562.57815193 2643.05047487 -561.41831811 2640.9528099 -560.25439453 2638.85742188 C-528.39506828 2581.44842674 -508.44858152 2521.66680961 -504.3125 2455.875 C-504.24996033 2454.90762909 -504.18742065 2453.94025818 -504.12298584 2452.943573 C-503.34723978 2440.82101344 -502.70656543 2428.71162943 -502.625 2416.5625 C-502.61122314 2415.45181152 -502.59744629 2414.34112305 -502.58325195 2413.19677734 C-502.61709324 2407.5267823 -502.70808679 2402.29191321 -507 2398 C-512.86327747 2397.60366257 -516.43774063 2398.19123017 -521.75 2400.9375 C-522.40919434 2401.27813477 -523.06838867 2401.61876953 -523.74755859 2401.96972656 C-531.51463511 2406.0939907 -538.96675439 2410.77980004 -546.4602356 2415.37554932 C-606.61381751 2452.2641084 -673.18423596 2471.39572571 -740.56584167 2490.46495056 C-883.67754895 2529.34341452 -883.67754895 2529.34341452 -1056.17871094 2624.48291016 C-1057.87568201 2625.89644611 -1059.58123335 2627.29884032 -1061.2890625 2628.69921875 C-1074.58471492 2639.68570176 -1088.36643274 2651.52226353 -1099.1875 2665 C-1099.94546875 2665.94359375 -1100.7034375 2666.8871875 -1101.484375 2667.859375 C-1101.88720703 2668.36404297 -1102.29003906 2668.86871094 -1102.70507812 2669.38867188 C-1104.08727834 2671.10860427 -1105.487746 2672.81252619 -1106.890625 2674.515625 C-1113.84474843 2683.00487006 -1120.1171337 2691.74056469 -1126 2701 C-1126.49081055 2701.76521973 -1126.98162109 2702.53043945 -1127.48730469 2703.31884766 C-1144.66339951 2730.17455479 -1159.00382032 2758.77901243 -1173.140625 2787.32421875 C-1173.73290623 2788.51908813 -1174.32519648 2789.71395303 -1174.91749573 2790.90881348 C-1177.30105578 2795.71996653 -1179.68261511 2800.53206978 -1182.05175781 2805.3503418 C-1200.60267132 2843.05650945 -1200.60267132 2843.05650945 -1207 2848 C-1207.99 2848 -1208.98 2848 -1210 2848 C-1211.02599475 2821.11104517 -1207.04502896 2794.63787967 -1202.53417969 2768.19482422 C-1201.95810924 2764.74945956 -1201.41840927 2761.29953592 -1200.8828125 2757.84765625 C-1188.41496653 2678.51859058 -1156.4743732 2609.42847673 -1105 2548 C-1104.56977539 2547.4848584 -1104.13955078 2546.9697168 -1103.69628906 2546.43896484 C-1098.34171311 2540.03361512 -1092.92139961 2533.70341653 -1087.29663086 2527.53222656 C-1085.87022521 2525.95949569 -1084.45167929 2524.37955165 -1083.0456543 2522.78857422 C-1077.27871595 2516.27749247 -1071.23888184 2510.08457592 -1065.0793457 2503.94897461 C-1063.43258596 2502.30760204 -1061.79127905 2500.66091181 -1060.15039062 2499.01367188 C-1055.1395422 2493.99966173 -1050.09957179 2489.0672078 -1044.70581055 2484.46069336 C-1042.13005203 2482.25505958 -1039.66883876 2479.93628897 -1037.1875 2477.625 C-1032.58821468 2473.37514703 -1027.8491206 2469.36423497 -1022.96875 2465.4375 C-1019.47718923 2462.57074484 -1016.08459846 2459.60239816 -1012.6875 2456.625 C-1007.29497344 2451.91038716 -1001.78762495 2447.4021591 -996.12304688 2443.01953125 C-992.21816972 2439.9887492 -988.43304321 2436.84989355 -984.6875 2433.625 C-979.12862098 2428.85268229 -973.35953839 2424.40226562 -967.51733398 2419.98364258 C-962.51362614 2416.18836468 -957.60773756 2412.29261609 -952.75 2408.3125 C-946.97663581 2403.58366587 -941.1295973 2398.9790651 -935.19921875 2394.44921875 C-925.21032806 2386.8186029 -915.42374186 2378.9403798 -905.68359375 2370.99609375 C-902.74396592 2368.60003947 -899.78469991 2366.2306009 -896.8125 2363.875 C-891.35462574 2359.51963457 -886.03620937 2355.00260781 -880.72509766 2350.47070312 C-878.97952584 2348.9825451 -877.23016685 2347.49892806 -875.48046875 2346.015625 C-868.40630018 2340.00316668 -861.48991995 2333.85653762 -854.68481445 2327.54125977 C-853.39043481 2326.3571678 -852.0846913 2325.18548871 -850.77416992 2324.01928711 C-844.58797742 2318.51298904 -838.65455036 2312.80649295 -832.8125 2306.9375 C-831.53729492 2305.6680957 -831.53729492 2305.6680957 -830.23632812 2304.37304688 C-825.28310906 2299.41217805 -820.52170729 2294.35718744 -816 2289 C-815.48896729 2288.39567139 -814.97793457 2287.79134277 -814.45141602 2287.16870117 C-794.9636283 2263.89778766 -779.71134172 2239.02497878 -766 2212 C-765.29924583 2210.62885545 -764.5980508 2209.25793615 -763.89648438 2207.88720703 C-761.98765811 2204.15573212 -760.08954939 2200.41895468 -758.19784546 2196.67877197 C-757.45316043 2195.20869811 -756.70602966 2193.73986007 -755.95620728 2192.2723999 C-746.22356646 2174.0660954 -746.22356646 2174.0660954 -744 2154 C-757.04800791 2150.21577497 -773.42813548 2154.22268555 -786.625 2156.0625 C-809.73969929 2158.94167826 -833.36598959 2158.20618078 -856.625 2158.1875 C-857.87225294 2158.18687876 -857.87225294 2158.18687876 -859.14470291 2158.18624496 C-883.23219125 2158.17124439 -907.2490473 2158.0769938 -931.27667236 2156.20898438 C-934.346467 2155.9734126 -937.41703989 2155.75006787 -940.48779297 2155.52734375 C-968.09650003 2153.50838852 -995.59878854 2150.98488894 -1023.0625 2147.5 C-1024.23984711 2147.35063995 -1025.41719421 2147.20127991 -1026.63021851 2147.0473938 C-1027.8043631 2146.89841644 -1028.97850769 2146.74943909 -1030.18823242 2146.59594727 C-1083.68206881 2139.81666972 -1137.13003729 2135.71675256 -1191.0625 2135.75 C-1192.11153503 2135.75030024 -1192.11153503 2135.75030024 -1193.1817627 2135.75060654 C-1219.20141498 2135.76550292 -1245.30380299 2135.84558777 -1271.1875 2138.75 C-1271.98118988 2138.83647797 -1272.77487976 2138.92295593 -1273.59262085 2139.01205444 C-1296.64561693 2141.54272539 -1318.81988888 2146.21154175 -1341 2153 C-1341.99741211 2153.30276855 -1342.99482422 2153.60553711 -1344.02246094 2153.91748047 C-1376.20830731 2163.80994122 -1405.44974976 2178.74671545 -1433 2198 C-1433.79422363 2198.55333008 -1434.58844727 2199.10666016 -1435.40673828 2199.67675781 C-1445.70611876 2206.88868099 -1455.58175646 2214.52767813 -1465.25585938 2222.55566406 C-1467.71933937 2224.59569033 -1470.20467035 2226.60859789 -1472.6875 2228.625 C-1478.27478896 2233.20324125 -1483.79175963 2237.86210068 -1489.29101562 2242.54541016 C-1490.44238858 2243.52539302 -1491.59475354 2244.50421145 -1492.74804688 2245.48193359 C-1500.07736053 2251.69565282 -1507.27330651 2258.01931143 -1514.328125 2264.54296875 C-1517.18513939 2267.17025245 -1520.09299502 2269.72889691 -1523.0234375 2272.2734375 C-1529.14767523 2277.62306808 -1535.13962637 2283.12116492 -1541.125 2288.625 C-1544.99176001 2292.18066933 -1548.89674744 2295.6821575 -1552.87109375 2299.1171875 C-1555.10583297 2301.09359907 -1557.29104139 2303.11955113 -1559.47558594 2305.15112305 C-1564.10667584 2309.45233686 -1568.71022539 2313.51355764 -1574 2317 C-1572.38335411 2311.53814915 -1569.96098233 2306.63310934 -1567.4140625 2301.5625 C-1566.73437408 2300.19889343 -1566.73437408 2300.19889343 -1566.04095459 2298.80773926 C-1564.57388261 2295.86933765 -1563.10012616 2292.93436571 -1561.625 2290 C-1561.12446106 2289.00202393 -1560.62392212 2288.00404785 -1560.10821533 2286.97583008 C-1553.010695 2272.83266479 -1545.90017377 2258.71655915 -1538 2245 C-1537.55140625 2244.2157666 -1537.1028125 2243.4315332 -1536.640625 2242.62353516 C-1521.91504044 2217.03472969 -1505.26450425 2191.58649872 -1485.859375 2169.2980957 C-1483.99392757 2167.15547042 -1482.1504383 2164.99723761 -1480.3269043 2162.81884766 C-1473.61013481 2154.82232459 -1466.57417003 2147.25877408 -1459.16333008 2139.90258789 C-1457.42745269 2138.17751523 -1455.7026491 2136.44188009 -1453.97851562 2134.70507812 C-1447.29142211 2128.01008355 -1440.41730244 2121.88534273 -1433 2116 C-1431.89800947 2115.06541189 -1430.80168788 2114.1240346 -1429.71484375 2113.171875 C-1415.83015369 2101.06426904 -1400.60872584 2090.74397665 -1385 2081 C-1384.3915625 2080.61924316 -1383.783125 2080.23848633 -1383.15625 2079.84619141 C-1323.71841983 2042.87677346 -1255.93785481 2018.88472694 -1188.52954102 2001.04663086 C-1182.75038306 1999.51148204 -1177.06083998 1997.78687761 -1171.375 1995.9375 C-1164.18856561 1993.60676452 -1156.96422061 1991.67144173 -1149.62280273 1989.89428711 C-1143.51580923 1988.40707339 -1137.47377879 1986.75139294 -1131.4375 1985 C-1124.91446644 1983.10953433 -1118.38456066 1981.27520604 -1111.8125 1979.5625 C-1111.05517578 1979.36454834 -1110.29785156 1979.16659668 -1109.51757812 1978.96264648 C-1107.90467468 1978.54130371 -1106.2917168 1978.12016927 -1104.67871094 1977.69921875 C-1103.79473633 1977.46847656 -1102.91076172 1977.23773437 -1102 1977 C-1100.98711914 1976.73574219 -1099.97423828 1976.47148438 -1098.93066406 1976.19921875 C-1085.74518246 1972.74615989 -1072.7341337 1969.08465205 -1059.85351562 1964.62597656 C-1057.23545444 1963.74179468 -1054.58865322 1962.96601325 -1051.9375 1962.1875 C-1009.11296016 1949.0932798 -968.99641199 1930.11439305 -934 1902 C-932.49759766 1900.79923828 -932.49759766 1900.79923828 -930.96484375 1899.57421875 C-928.28902724 1897.40661488 -925.64004817 1895.21099203 -923 1893 C-922.49549316 1892.58041016 -921.99098633 1892.16082031 -921.47119141 1891.72851562 C-914.43013546 1885.86987812 -907.5655633 1879.85950792 -900.8515625 1873.62890625 C-898.16298472 1871.15025851 -895.43166958 1868.72919315 -892.6875 1866.3125 C-888.41610324 1862.46960324 -884.66283368 1858.41764756 -881 1854 C-880.20980469 1853.09765625 -879.41960938 1852.1953125 -878.60546875 1851.265625 C-877.78691406 1850.31171875 -876.96835938 1849.3578125 -876.125 1848.375 C-875.36445312 1847.49585938 -874.60390625 1846.61671875 -873.8203125 1845.7109375 C-871.81356185 1842.72234319 -871.32299094 1840.55290029 -871 1837 C-875.85219264 1833.46194287 -880.56880654 1831.31483135 -886.30078125 1829.5859375 C-887.0009285 1829.371082 -887.70107574 1829.1562265 -888.42243958 1828.93486023 C-895.25559627 1826.86759978 -902.15749321 1825.09956235 -909.07720947 1823.34997559 C-945.03542562 1814.19168053 -979.40759898 1800.39720701 -1012.87646484 1784.48388672 C-1016.04389783 1782.97914562 -1019.21873864 1781.49091077 -1022.39453125 1780.00390625 C-1035.25406014 1773.94738131 -1047.78831634 1767.45217145 -1060.20800781 1760.54296875 C-1064.09186163 1758.39659273 -1067.99983347 1756.29603282 -1071.9074707 1754.19335938 C-1080.78725428 1749.41397381 -1089.61114756 1744.55130562 -1098.375 1739.5625 C-1109.68611926 1733.12903452 -1121.12650091 1726.951269 -1132.60253906 1720.81787109 C-1136.06861594 1718.96328584 -1139.53080927 1717.10161968 -1142.9921875 1715.23828125 C-1156.37099624 1708.04043727 -1169.79868673 1700.94420096 -1183.29296875 1693.96484375 C-1186.72488223 1692.18799731 -1190.14655152 1690.39571462 -1193.55078125 1688.56640625 C-1233.47235188 1667.13781666 -1275.42657408 1647.12806122 -1318.46435547 1632.84619141 C-1321.24403476 1631.91856109 -1324.01451632 1630.9659945 -1326.78515625 1630.01171875 C-1352.16570855 1621.3247457 -1377.63572319 1615.16286747 -1404.1875 1611.25 C-1404.96295166 1611.13438721 -1405.73840332 1611.01877441 -1406.53735352 1610.8996582 C-1421.67460326 1608.80005231 -1436.89547448 1608.78461532 -1452.14697266 1608.75976562 C-1455.70109121 1608.75013256 -1459.25461185 1608.71905151 -1462.80859375 1608.6875 C-1484.90414171 1608.58616576 -1506.7964665 1610.43976736 -1528.36132812 1615.39453125 C-1530.16747922 1615.80897007 -1531.97625671 1616.21208099 -1533.78710938 1616.60546875 C-1573.14692694 1625.21298353 -1611.25141625 1639.82370379 -1648.81188965 1654.16479492 C-1689.43147863 1669.66935435 -1689.43147863 1669.66935435 -1695 1668 C-1680.305632 1652.91776036 -1680.305632 1652.91776036 -1672 1646.3671875 C-1668.90544548 1643.92539058 -1665.87219217 1641.41990443 -1662.84033203 1638.90112305 C-1655.64511627 1632.92942701 -1648.37354965 1627.10041763 -1640.91748047 1621.45654297 C-1638.6587958 1619.74081688 -1636.40949763 1618.01311272 -1634.16015625 1616.28515625 C-1583.53494956 1577.44841736 -1530.41409202 1547.87464645 -1467.9375 1532.6875 C-1467.25829498 1532.52214752 -1466.57908997 1532.35679504 -1465.87930298 1532.18643188 C-1450.92530045 1528.57235315 -1435.96097339 1525.83240221 -1420.6875 1523.9375 C-1419.31786706 1523.76590137 -1417.94823821 1523.59427004 -1416.57861328 1523.42260742 C-1413.90525206 1523.08915143 -1411.23140094 1522.76075776 -1408.55712891 1522.43457031 C-1405.63444917 1522.07750992 -1402.71369118 1521.70849371 -1399.79296875 1521.3359375 C-1352.97099564 1515.60439596 -1303.85449471 1517.74022047 -1257 1522 C-1255.59415649 1522.12728485 -1255.59415649 1522.12728485 -1254.15991211 1522.25714111 C-1230.38971962 1524.43225412 -1206.78276361 1527.3822011 -1183.17440796 1530.88449097 C-1156.54844845 1534.81365832 -1129.80161259 1537.57802389 -1103 1540 C-1102.13282349 1540.07841125 -1101.26564697 1540.15682251 -1100.37219238 1540.23760986 C-1044.62404939 1545.19144807 -986.14541179 1544.71413852 -932.41455078 1527.76074219 C-929.45290973 1526.82763061 -926.47598344 1525.94862946 -923.5 1525.0625 C-921.33112126 1524.38201068 -919.16484246 1523.69322278 -917 1523 C-916.15002441 1522.73106934 -915.30004883 1522.46213867 -914.42431641 1522.18505859 C-903.78072415 1518.80179536 -893.21930886 1515.34184562 -883 1510.8125 C-882.30173096 1510.5040918 -881.60346191 1510.19568359 -880.8840332 1509.87792969 C-878.89456182 1508.96599798 -876.94618397 1508.00076975 -875 1507 C-873.89205078 1506.45351807 -873.89205078 1506.45351807 -872.76171875 1505.89599609 C-868.88437831 1503.78601354 -867.2983156 1502.79912422 -865.7109375 1498.546875 C-866.08577244 1493.94754902 -867.4147448 1492.523556 -870.625 1489.25 C-871.12717041 1488.73542236 -871.62934082 1488.22084473 -872.14672852 1487.69067383 C-881.41323997 1478.36988036 -891.80784256 1470.58370004 -902.33349609 1462.76953125 C-913.82822701 1454.20440396 -924.91155244 1445.14383059 -935.41015625 1435.37890625 C-937.48085044 1433.47686588 -939.57979631 1431.63717717 -941.7109375 1429.8046875 C-946.53551002 1425.59640281 -951.04799802 1421.0986197 -955.5625 1416.5625 C-956.37396484 1415.75490234 -957.18542969 1414.94730469 -958.02148438 1414.11523438 C-962.89001877 1409.23884117 -967.50984579 1404.22425531 -972 1399 C-973.45445517 1397.39231627 -974.91220895 1395.78760285 -976.375 1394.1875 C-980.23022386 1389.91689849 -983.87582515 1385.51226331 -987.4921875 1381.0390625 C-990.38831222 1377.52942849 -993.37662324 1374.10964618 -996.375 1370.6875 C-1001.08538999 1365.29960689 -1005.58885653 1359.79657045 -1009.96948242 1354.13842773 C-1013.11331504 1350.09013424 -1016.3595521 1346.14810875 -1019.6875 1342.25 C-1023.46867782 1337.8208646 -1027.16786737 1333.34148943 -1030.78515625 1328.77734375 C-1033.60099915 1325.24636614 -1036.45813239 1321.7498505 -1039.3125 1318.25 C-1043.4235665 1313.20363337 -1047.49349705 1308.1297665 -1051.5 1303 C-1057.07949846 1295.85852857 -1062.79016423 1288.82691103 -1068.5234375 1281.80859375 C-1069.83047541 1280.2076452 -1071.13423356 1278.60402024 -1072.4375 1277 C-1076.86820064 1271.55656779 -1081.37171963 1266.18083722 -1085.91674805 1260.83300781 C-1088.79591336 1257.44008249 -1091.63222581 1254.01709624 -1094.4375 1250.5625 C-1099.33248605 1244.55264169 -1104.38317358 1238.68248717 -1109.44287109 1232.81152344 C-1110.99451936 1231.00637604 -1112.53933585 1229.19561441 -1114.08203125 1227.3828125 C-1119.54435297 1220.96964865 -1125.0793291 1214.65069588 -1130.7734375 1208.44140625 C-1132.69133207 1206.33845167 -1134.57376045 1204.21330844 -1136.4375 1202.0625 C-1140.67745717 1197.19294362 -1145.04437188 1192.44092267 -1149.42822266 1187.70117188 C-1150.47927136 1186.56359695 -1151.52841639 1185.4242603 -1152.57568359 1184.28320312 C-1160.98717692 1175.12542693 -1169.65627943 1166.23899666 -1178.4375 1157.4375 C-1179.20892838 1156.66218933 -1179.20892838 1156.66218933 -1179.99594116 1155.87121582 C-1185.2735044 1150.57268017 -1190.57789322 1145.35758443 -1196.26342773 1140.49145508 C-1198.84690306 1138.27263732 -1201.32057691 1135.94614794 -1203.8125 1133.625 C-1209.3568192 1128.50979411 -1215.11198381 1123.71666019 -1221 1119 C-1222.10761935 1118.08957299 -1223.214348 1117.17806157 -1224.3203125 1116.265625 C-1270.94754614 1078.02680077 -1325.70768353 1052.76564842 -1385 1042 C-1386.37623535 1041.73993164 -1386.37623535 1041.73993164 -1387.78027344 1041.47460938 C-1394.83070699 1040.14939589 -1401.90012057 1039.02584589 -1409 1038 C-1410.15000488 1037.83113281 -1411.30000977 1037.66226562 -1412.48486328 1037.48828125 C-1444.03560165 1033.02833896 -1475.97239231 1032.37336392 -1507.77514648 1031.16143799 C-1511.92246901 1031.00336589 -1516.0696445 1030.84166609 -1520.21679688 1030.67919922 C-1535.14368986 1030.09569449 -1550.07125309 1029.53395698 -1565 1029 C-1564 1027 -1564 1027 -1561.60241699 1025.99589539 C-1560.53672485 1025.64235489 -1559.47103271 1025.28881439 -1558.37304688 1024.92456055 C-1557.16668579 1024.52041428 -1555.96032471 1024.11626801 -1554.71740723 1023.69987488 C-1553.38459978 1023.26191783 -1552.05171181 1022.82420577 -1550.71875 1022.38671875 C-1549.34823979 1021.93130026 -1547.97792197 1021.47530247 -1546.60778809 1021.01875305 C-1543.72065788 1020.05843779 -1540.83193988 1019.10311687 -1537.94189453 1018.15161133 C-1534.28731808 1016.94829597 -1530.63575015 1015.73616636 -1526.98519516 1014.52071285 C-1512.72722136 1009.77499937 -1498.47478214 1005.04973992 -1484 1001 C-1482.92878906 1000.69296143 -1481.85757813 1000.38592285 -1480.75390625 1000.06958008 C-1455.66586611 992.92115799 -1430.58915534 987.61769324 -1404.5859375 985.29370117 C-1402.03793378 985.05118073 -1402.03793378 985.05118073 -1399.72970581 984.49072266 C-1396.6820828 983.94284762 -1393.8354806 983.86554582 -1390.73876953 983.85473633 C-1389.49201447 983.84835648 -1388.2452594 983.84197662 -1386.96072388 983.83540344 C-1385.60142048 983.83387182 -1384.24211656 983.83275944 -1382.8828125 983.83203125 C-1381.46532153 983.82880966 -1380.04783088 983.82544495 -1378.63034058 983.82194519 C-1375.6495487 983.81595735 -1372.66878575 983.81410426 -1369.68798828 983.81469727 C-1366.67816033 983.81477763 -1363.66848745 983.80798222 -1360.65869141 983.79418945 C-1336.94708309 983.68736532 -1313.76421312 984.59770614 -1290.375 988.8125 C-1289.62796814 988.94449799 -1288.88093628 989.07649597 -1288.11126709 989.2124939 C-1219.01814211 1001.43356353 -1153.26124957 1031.42222384 -1091.77978516 1064.51220703 C-1088.37537797 1066.33430939 -1084.95931835 1068.13402942 -1081.54296875 1069.93359375 C-1066.50258692 1077.86446056 -1051.58145332 1085.95403703 -1036.8203125 1094.39648438 C-1032.80412852 1096.67992416 -1028.76697695 1098.92515486 -1024.73071289 1101.17285156 C-1015.46998702 1106.330941 -1006.2652319 1111.56870835 -997.125 1116.9375 C-967.72600328 1134.1697311 -937.72577192 1151.38185468 -906 1164 C-904.44273193 1164.62382568 -904.44273193 1164.62382568 -902.85400391 1165.26025391 C-883.32610299 1172.96242405 -863.52006462 1177.8454544 -843 1182 C-841.90284668 1182.22413574 -840.80569336 1182.44827148 -839.67529297 1182.67919922 C-823.58370365 1185.89646655 -807.33040366 1187.5213344 -791 1189 C-790.24315918 1189.07347656 -789.48631836 1189.14695312 -788.70654297 1189.22265625 C-758.31096528 1192.27449808 -758.31096528 1192.27449808 -729 1186 C-729.45618121 1179.28872387 -731.35430485 1174.25502324 -734.3125 1168.25 C-734.75400391 1167.33822998 -735.19550781 1166.42645996 -735.65039062 1165.48706055 C-739.68234218 1157.32545149 -744.29908389 1149.57633523 -749.05859375 1141.82421875 C-788.92878591 1076.84528297 -808.0979826 1001.56901065 -828.96764565 928.9676857 C-832.61555173 916.28180121 -836.34461107 903.62094457 -840.11550903 890.97103882 C-840.94157222 888.19626113 -841.76362658 885.42033991 -842.58374023 882.64379883 C-859.60302662 825.05758508 -878.14891398 767.85392353 -905 714 C-905.4640625 713.06784668 -905.928125 712.13569336 -906.40625 711.17529297 C-923.60461997 676.88237842 -946.5422323 646.56557567 -972.58056641 618.53710938 C-974.0888623 616.90377072 -975.58246808 615.257832 -977.07421875 613.609375 C-981.84987002 608.34838116 -986.57841346 603.2115081 -992.04296875 598.6484375 C-994.24472904 596.79386097 -996.33066567 594.83665751 -998.4375 592.875 C-1005.58374281 586.43901068 -1013.28316235 580.7261667 -1021 575 C-1021.67417969 574.4956543 -1022.34835937 573.99130859 -1023.04296875 573.47167969 C-1035.41616361 564.26471003 -1048.57129426 556.55735641 -1062 549 C-1062.89283691 548.49500977 -1063.78567383 547.99001953 -1064.70556641 547.46972656 C-1088.22321098 534.22196968 -1112.49367485 522.44694903 -1137.09887695 511.37719727 C-1152.90767139 504.26462007 -1168.59532309 496.89350828 -1184 488.9375 C-1184.70705078 488.57930176 -1185.41410156 488.22110352 -1186.14257812 487.85205078 C-1190.88225567 485.35323299 -1190.88225567 485.35323299 -1192 482 C-1182.33082773 481.8579019 -1172.82075747 482.2004726 -1163.1875 483.0625 C-1162.48279572 483.12457642 -1161.77809143 483.18665283 -1161.05203247 483.25061035 C-1118.56277131 487.07094619 -1074.20987592 492.67420173 -1033 504 C-1032.29762207 504.18739746 -1031.59524414 504.37479492 -1030.87158203 504.56787109 C-1011.22559195 509.84515457 -992.35409215 517.27914967 -974 526 C-972.80673096 526.55977539 -972.80673096 526.55977539 -971.58935547 527.13085938 C-949.89393351 537.36429973 -929.48934158 550.05056502 -910 564 C-909.20899902 564.5657373 -908.41799805 565.13147461 -907.60302734 565.71435547 C-896.41350905 573.75815396 -885.58054025 582.17256522 -875 591 C-874.40960937 591.49129395 -873.81921875 591.98258789 -873.2109375 592.48876953 C-865.99778048 598.50310309 -858.9378559 604.66920649 -852 611 C-851.113125 611.7940625 -850.22625 612.588125 -849.3125 613.40625 C-843.10630746 619.005315 -837.10865032 624.78753103 -831.1875 630.6875 C-830.48230225 631.38810547 -829.77710449 632.08871094 -829.05053711 632.81054688 C-825.07550413 636.79730008 -821.28205384 640.88578433 -817.60571289 645.14916992 C-815.33893599 647.76197754 -812.98267824 650.28135894 -810.625 652.8125 C-806.37959522 657.4069714 -802.3727625 662.14113259 -798.44921875 667.015625 C-795.51352818 670.5927663 -792.48125627 674.07734259 -789.4375 677.5625 C-785.22575585 682.3946438 -781.10226385 687.26669939 -777.13671875 692.3046875 C-775.468648 694.40883525 -773.78412325 696.49390151 -772.08203125 698.5703125 C-765.86686817 706.15496635 -759.79957815 713.82419434 -753.87841797 721.640625 C-750.16085868 726.53032727 -746.33649315 731.31658249 -742.4375 736.0625 C-737.60752744 741.94539067 -732.98672093 747.95039058 -728.45336914 754.06396484 C-724.53842456 759.32735447 -720.47886581 764.45870639 -716.36132812 769.56445312 C-713.16923923 773.52632492 -710.0287846 777.52151672 -706.9375 781.5625 C-695.2765789 796.79299604 -683.3411442 811.8097082 -670.89160156 826.4050293 C-667.95479526 829.85162288 -665.09028279 833.34863538 -662.25 836.875 C-659.22823531 840.5903726 -656.09829616 844.02295258 -652.65625 847.34765625 C-650.96233581 849.03757536 -649.4225168 850.80059906 -647.875 852.625 C-640.23601356 861.44580272 -631.88269802 869.59086434 -622.73046875 876.828125 C-619.83895354 879.1280999 -617.05137934 881.52883739 -614.25 883.9375 C-585.59740814 907.82082173 -549.60741886 924.06573922 -516.25 940.25 C-515.15051025 940.78665283 -514.05102051 941.32330566 -512.91821289 941.8762207 C-500.50917795 947.95678514 -500.50917795 947.95678514 -487 949 C-484.82523599 947.45661909 -484.18167363 946.36334727 -483 944 C-482.36881813 936.06167411 -483.11613488 928.50253614 -484.375 920.6875 C-488.6285025 894.17152912 -488.36403921 867.56188175 -488.31805801 840.78121185 C-488.3124454 837.46776785 -488.30960698 834.15432892 -488.30697632 830.84088135 C-488.2722451 800.77639453 -487.96014301 770.87134472 -485.25646973 740.909729 C-484.87597181 736.59286155 -484.53262808 732.2731323 -484.18470764 727.95353699 C-482.26647097 704.26242972 -479.94154338 680.64831255 -477 657.0625 C-467.59272907 581.53037837 -462.66340053 504.03919369 -469 428 C-469.10183594 426.69289063 -469.20367188 425.38578125 -469.30859375 424.0390625 C-475.23438755 349.56427127 -507.29338295 283.69527042 -554.56005859 226.73974609 C-556.5794632 224.29988899 -558.56870961 221.83580436 -560.5625 219.375 C-568.35089947 209.8811116 -576.33301907 200.57764568 -584.7277832 191.61376953 C-587.32874667 188.83360312 -589.87094714 186.01551054 -592.3671875 183.140625 C-596.0834068 178.87364788 -599.92822032 174.73890154 -603.8125 170.625 C-604.51173584 169.88258057 -605.21097168 169.14016113 -605.93139648 168.37524414 C-610.50795406 163.53249094 -615.17125915 158.80088946 -619.91015625 154.1171875 C-622.44323912 151.55096149 -624.80712958 148.87358528 -627.1484375 146.1328125 C-629.41985222 143.51637276 -631.77404686 140.98263216 -634.125 138.4375 C-637.75813806 134.46098609 -641.01414643 130.47878036 -644 126 C-643.67 125.34 -643.34 124.68 -643 124 C-619.86802511 132.6033539 -598.22524175 145.10872377 -576.87304688 157.36425781 C-573.86962469 159.07422795 -570.85163953 160.75551784 -567.828125 162.4296875 C-543.85195412 175.70631599 -520.09076534 189.36838885 -499 207 C-497.95318599 207.86075126 -496.90630674 208.72142319 -495.859375 209.58203125 C-488.85983981 215.37845733 -482.3303625 221.46902742 -476 228 C-473.27549221 230.74255089 -470.5300089 233.46184494 -467.765625 236.1640625 C-461.52371476 242.29116681 -455.55383175 248.44055134 -450.125 255.31640625 C-447.89969996 258.12666568 -445.58088871 260.83939444 -443.25 263.5625 C-396.1181904 320.06212269 -367.34032347 390.71583959 -345 460 C-344.78345764 460.67131958 -344.56691528 461.34263916 -344.34381104 462.03430176 C-339.6484425 476.62052985 -335.24878338 491.26121629 -331.3815918 506.09033203 C-330.0365814 511.24105758 -328.60633346 516.34107054 -327.015625 521.421875 C-324.97089416 527.97829052 -323.24339102 534.59247608 -321.5625 541.25 C-319.45835921 549.47752146 -317.29091906 557.66496098 -314.83959961 565.7956543 C-313.16806577 571.3586112 -311.63660936 576.95415298 -310.125 582.5625 C-307.16668675 593.51210098 -304.00741654 604.39821124 -300.80078125 615.27734375 C-300.08084665 617.7251214 -299.36685191 620.17450009 -298.65625 622.625 C-287.44354494 661.23374143 -274.97225822 702.16842896 -251 735 C-250.55011719 735.61681641 -250.10023437 736.23363281 -249.63671875 736.86914062 C-243.34755772 745.45658345 -236.86395644 753.86196469 -230 762 C-229.54657227 762.53834473 -229.09314453 763.07668945 -228.62597656 763.63134766 C-222.42865983 770.97332576 -216.09702622 778.16796924 -209.56640625 785.21484375 C-207.25906323 787.71885528 -205.0012793 790.2582448 -202.75 792.8125 C-187.06875395 811.79747654 -187.06875395 811.79747654 -166 822 C-165.71898437 821.12601563 -165.43796875 820.25203125 -165.1484375 819.3515625 C-164.09734563 816.28409031 -162.91154084 813.34961353 -161.625 810.375 C-159.08786607 804.3409366 -156.97038442 798.23938565 -155 792 C-154.65098633 790.90534424 -154.30197266 789.81068848 -153.94238281 788.68286133 C-151.96812144 782.39299659 -150.23203555 776.10872806 -148.75 769.6875 C-142.87382721 744.7438529 -133.6151285 720.26657497 -123 697 C-122.71060547 696.36231689 -122.42121094 695.72463379 -122.12304688 695.06762695 C-112.83660477 674.6093584 -102.84662543 654.67987212 -92 635 C-91.01870118 633.20702554 -90.03911788 631.4131209 -89.05963135 629.61915588 C-81.47812237 615.73909623 -73.73199915 601.95867416 -65.86181641 588.24047852 C-55.82780989 570.74812216 -46.04666675 553.11360454 -36.26904297 535.47705078 C-33.30132826 530.12672753 -30.32688598 524.78166732 -27.28662109 519.47216797 C-24.18495529 514.00002283 -21.19983337 508.50734249 -18.4140625 502.8671875 C-17.71110026 501.4523531 -17.00770859 500.037732 -16.30395508 498.62329102 C-15.93178864 497.87500031 -15.55962219 497.12670959 -15.17617798 496.35574341 C-13.5280298 493.05470031 -11.86275365 489.76241456 -10.19744873 486.47000122 C26.25039656 414.40384552 59.13095648 339.79619307 59.16796875 257.67578125 C59.17119663 255.95533727 59.17456173 254.23489354 59.17805481 252.51445007 C59.18399066 248.93190883 59.18590048 245.3493915 59.18530273 241.7668457 C59.18522153 238.13951628 59.19216393 234.5123133 59.20581055 230.88500977 C59.46618351 160.58570172 36.99378226 100.23180179 12.40625 35.2109375 C12.1676721 34.57990931 11.9290942 33.94888111 11.68328667 33.29873085 C9.39710353 27.25674409 7.09799898 21.22101373 4.7265625 15.21191406 C4.39281616 14.36537262 4.05906982 13.51883118 3.71520996 12.64663696 C3.11612233 11.13437331 2.51243857 9.62391766 1.9029541 8.11581421 C0.76032616 5.23978715 0 3.12793257 0 0 Z " fill="#EC9C26" transform="translate(2206,61)"/>
</svg>
