<?xml version="1.0" standalone="no"?>
<!DOCTYPE svg PUBLIC "-//W3C//DTD SVG 20010904//EN"
 "http://www.w3.org/TR/2001/REC-SVG-20010904/DTD/svg10.dtd">
<svg version="1.0" xmlns="http://www.w3.org/2000/svg"
 width="640.000000pt" height="640.000000pt" viewBox="0 0 640.000000 640.000000"
 preserveAspectRatio="xMidYMid meet">

<g transform="translate(0.000000,640.000000) scale(0.100000,-0.100000)"
fill="#000000" stroke="none">
<path d="M3246 6285 c84 -224 88 -241 88 -380 -1 -111 -5 -143 -27 -218 -35
-113 -93 -236 -197 -417 -105 -183 -142 -262 -170 -372 -13 -51 -28 -88 -35
-88 -16 0 -113 104 -156 166 -45 65 -71 137 -124 335 -59 217 -84 289 -147
411 -52 103 -134 201 -216 261 -48 36 -232 137 -248 137 -4 0 21 -30 57 -67
152 -158 218 -258 255 -393 28 -102 29 -312 3 -530 -25 -201 -30 -389 -16
-497 11 -79 8 -80 -121 -13 -130 67 -172 105 -314 289 -165 213 -216 270 -310
346 -100 80 -195 130 -290 154 -72 19 -286 47 -293 39 -3 -2 48 -28 113 -57
154 -70 230 -120 306 -203 117 -128 169 -243 272 -606 59 -206 89 -284 149
-383 20 -32 34 -63 30 -69 -9 -14 -116 -12 -205 4 -97 18 -157 42 -288 118
-322 186 -478 247 -648 256 -119 5 -201 -7 -333 -51 l-96 -32 155 -6 c348 -14
482 -98 815 -514 157 -196 189 -230 288 -304 31 -24 57 -49 57 -56 0 -15 -52
-37 -153 -65 -97 -27 -254 -26 -445 2 -348 51 -584 18 -770 -106 -68 -46 -194
-147 -189 -153 2 -1 28 7 58 18 169 66 257 91 341 96 202 13 352 -39 744 -258
138 -78 249 -125 352 -149 28 -6 52 -17 52 -24 0 -15 -68 -81 -134 -131 -85
-63 -158 -93 -358 -145 -106 -28 -238 -69 -293 -91 -240 -93 -383 -224 -500
-459 l-37 -74 71 64 c196 178 267 223 415 260 109 27 317 27 537 -1 177 -23
377 -29 477 -15 77 11 78 9 16 -113 -59 -118 -127 -191 -314 -337 -187 -145
-260 -212 -332 -303 -102 -127 -148 -238 -173 -411 -25 -180 -22 -181 60 -15
80 164 127 227 224 305 120 96 242 147 604 250 196 56 250 77 350 139 81 49
82 48 74 -78 -10 -157 -45 -253 -171 -459 -226 -373 -267 -609 -158 -927 l27
-80 7 165 c7 185 24 257 85 370 72 132 172 238 373 395 206 160 271 219 342
309 58 73 72 86 83 75 7 -8 27 -59 45 -114 28 -89 32 -113 32 -215 -1 -63 -10
-179 -21 -257 -29 -205 -35 -306 -22 -408 26 -214 89 -351 235 -510 l46 -50
-26 70 c-86 229 -89 240 -88 385 0 129 2 140 37 242 41 123 76 193 198 409 95
167 137 264 165 372 9 37 22 67 29 67 16 0 112 -102 153 -162 48 -71 68 -124
128 -343 58 -214 78 -271 132 -380 68 -138 161 -246 274 -318 53 -35 192 -107
204 -107 4 0 -23 31 -58 68 -160 169 -209 246 -250 389 -33 111 -32 375 1 623
23 173 24 297 5 428 -6 38 -5 42 14 42 32 0 174 -77 239 -129 34 -27 113 -117
191 -216 321 -410 453 -493 837 -529 l60 -6 -160 79 c-172 86 -233 131 -309
230 -95 123 -141 235 -236 571 -51 184 -93 288 -150 382 -16 26 -30 53 -30 58
0 15 142 12 228 -6 90 -18 183 -60 331 -148 394 -237 599 -274 929 -169 l87
27 -160 8 c-353 17 -491 106 -823 530 -124 158 -203 241 -284 297 -27 17 -48
38 -48 45 0 15 67 44 165 73 82 24 237 21 440 -7 339 -48 552 -22 733 88 63
38 223 164 217 171 -2 2 -63 -20 -135 -48 -152 -59 -242 -76 -356 -67 -160 12
-303 64 -532 194 -225 127 -334 178 -429 202 -57 13 -93 27 -93 35 0 17 103
112 172 157 75 50 123 68 344 127 244 65 367 115 494 201 63 43 155 137 192
195 42 68 120 215 113 215 -3 0 -46 -38 -96 -86 -50 -47 -117 -105 -149 -128
-69 -51 -193 -99 -303 -116 -95 -16 -331 -8 -497 15 -129 19 -353 24 -447 12
-79 -11 -79 -7 -18 111 68 132 116 185 286 316 210 163 279 225 355 320 118
146 171 290 188 506 l6 75 -77 -155 c-72 -146 -82 -160 -162 -240 -140 -138
-241 -187 -587 -285 -254 -72 -295 -87 -406 -151 -42 -24 -82 -44 -88 -44 -14
0 -12 119 4 210 19 104 49 174 156 355 101 172 155 288 191 411 19 65 24 102
24 214 0 124 -3 144 -33 250 -19 63 -38 119 -43 124 -5 6 -9 -32 -9 -95 0
-385 -100 -545 -565 -904 -123 -95 -175 -145 -241 -231 -31 -41 -63 -74 -70
-74 -13 0 -46 79 -70 170 -28 107 -28 183 1 390 24 169 27 217 23 365 -4 159
-7 176 -37 265 -35 104 -106 219 -190 310 l-51 55 26 -70z"/>
</g>
</svg>
